 <svg xmlns="http://www.w3.org/2000/svg" xmlns:xlink="http://www.w3.org/1999/xlink" xml:space="preserve" viewBox="0 0 500 500" class="w-7 rounded-full"><path d="M0 0h500v500H0z" style="fill: rgb(239, 182, 20);"></path><defs><path id="nftOne_svg__a" d="M0 0h500v500H0z"></path></defs><clipPath id="nftOne_svg__b"><use xlink:href="#nftOne_svg__a" style="overflow: visible;"></use></clipPath><g style="clip-path: url(&quot;#nftOne_svg__b&quot;);"><path d="M204.03 157.533c-6.587-6.521-9.592-7.304-16.602-8.689s-12.236-2.809-12.236-2.293c0 .515 2.672 4.443 2.672 4.443s-10.387 3.189-14.284 8.846-4.588 8.441-4.588 8.441 1.59.864.856 2.88-2.807 5.862-3.791 9.51c-.983 3.647-4.974 5.191-1.94 15.391s6.111 16.571 10.065 19.156 13.272 7.176 14.332 7.176 10.15 1.461 10.15.752 11.935-36.165 11.935-36.165z" style="fill: rgb(255, 141, 42);"></path><path d="M214.651 314.891c-8.94 4.479-23.265 14.104-26.616 17.455s-10.662 11.804-10.662 15.813-3.183 18.311-3.183 18.311l-15.942 9.411s-12.994 9.989-14.267 11.262-3.864 8.857-3.342 12.639.852 4.376 1.148 4.079c.297-.297 36.023 100.921 36.023 100.921l169.456 3.368s5.234-8.977 5.234-22.021c0-13.043-.492-24.783-.492-24.783s-.655-12.15-.655-13.151-4.708-27.6-4.708-27.6l1.874-24.173-4.342-8.872-4.758-3.027-21.65-11.677-5.813-9.685-6.687-17.755s-3.544-11.482-3.544-12.793-4.435-8.312-4.956-8.312-11.372-6.401-11.928-6.958c-.556-.556-18.962-8.307-18.962-8.307z" style="fill: rgb(98, 41, 151);"></path><path d="M227.344 138.852c-11.1 3.909-27.069 9.887-27.069 14.138s3.183 8.055 3.183 10.054-3.171 23.038-4.672 28.88c-1.502 5.843-12.016 35.97-12.016 35.97l-2.159 7.214 1.02 1.02 7.091-2.559s-3.897 16.914-3.033 20.036 1.534 2.548 2.998 2.548 3.322-1.774 3.322-1.774 3.61 14.197 4.591 16.058 1.474 2.406 1.474 2.406l2.423-3.759s4.755 10.987 6.466 12.896a69 69 0 0 1 3.258 3.963s2.664 11.095 2.664 15.102c0 4.008-2.907 16.97-2.907 16.97s3.362.192 3.721 2.075c.36 1.883-.297 10.33-1.2 13.663-.904 3.333-9.631 21.471-9.631 21.471 3.675 3.675 9.407 3.764 12.838 4.122s15.56 1.006 18.141.956 19.163-1.219 25.07-2.451c5.908-1.232 15.492-3.605 15.492-3.605s-10.556-25.128-9.618-25.128c.939 0 3.887-.293 3.887-.293s-5.843-11.935-6.528-17.413-1.448-16.083-1.448-16.083 9.567.836 15.046 1.351 14.313.116 16.416-.833 20.439-11.497 23.922-15.87 5.018-10.931 5.018-10.931l2.439-14.549 1.05-7.39-4.396-16.506 3.616.984s-2.585-9.065-2.585-10.109 2.118-1.259 2.792-1.609 10.762-7.326 10.762-7.326l5.791-7.239 5.989-14.92 1.446-14.102-2.202-14.386 1.81-.354s-1.598-6.554-2.087-7.044l-6.678-6.678-6.098-1.648s-8.023 6.047-8.07 6.047-4.873-11.622-9.61-13.369-25.042-6.968-30.13-6.832-34 .992-40.069 1.865c-6.069.876-21.53 4.971-21.53 4.971" style="fill: rgb(255, 141, 42);"></path><path d="M211.597 152.495c9.39-4.673 29.346-17.756 68.346-14.234s44.732 14.234 44.732 14.234 2.617.361 2.617-.741.981-9.376-9.72-12.866-26.933-6.87-35.281-6.87-20.225.806-24.395 1.177-22.128 2.965-27.106 4.472-21.778 9.563-21.778 9.563l-10.045 5.415z" style="fill: rgb(198, 108, 34);"></path><path d="M192.161 150.522c4.826 3.978 6.12 20.724 6.12 21.313s2.815 6.47 2.815 6.47l2.362-11.478 14.529 2.348c0 10.63.391 20.739 9.391 24.13s9.538 2.283 9.538 2.283c-3.147 12.717 3.028 23.389 3.028 23.389-18.305 12.024-20.766 26.451-19.536 42.227s13.974 28.727 13.974 28.727l-13.974-5.758-4.356-2.106s-3.038.425-2.435 2.152 3.267 16.829 3.267 16.829 23.46.975 28.781 3.323 14.116 13.301 17.641 16.826 8.533 5.896 7.931 4.554-5.577-19.228-6.164-21.576-1.183-9.815-1.183-9.815 63.795-38.706 63.795-41.837c0-3.13-5.095-20.152-6.756-23.478s-9.226-12.134-9.226-12.134 4.429-.188 4.429-10.755v-10.567s4.769 1.644 3.953-.45-2.308-13.246-2.308-13.246l-2.861-21.522-111.493-6.949h-6.634z" style="fill: rgb(198, 108, 34);"></path><path d="m324.68 270.59-2.69 6.49s-6.7 8.18-8.8 9.22c-2.11 1.05-12.21 8.09-17.03 9.55-4.81 1.46-9.76 1.05-15.83.6-6.06-.46-16.72-.69-20.44-1.37-3.72-.69-10.47-4.8-14.22-6.97-3.76-2.18-13.95-11.43-16.5-15.27-2.54-3.84-3.03-19.24-2.45-25.39.58-6.14 10.62-18.55 13.22-21.16.7-.7 2.01-1.52 3.56-2.34 4.21-2.23 10.13-4.49 10.13-4.49s-3.13-1.18-5.38-2.06-6.34-5.96-7.62-9.38c-1.28-3.41-.16-5.37 1.28-9.84 1.16-3.62 7.25-8.14 15.34-9.57 8.08-1.44 3.65-30.13 3.65-30.13h26.96s22.47 22.82 17.65 30.87l3.32 2.53 2.88 6.3.45 5.03s-3.33 6.24-3.33 6.92-7.7 6.65-7.7 6.65l6.9 3.67 8.1 8.83 5.92 9.11 1.3 2s3.29 14.61 3.51 15.66c.23 1.05-2.18 14.54-2.18 14.54" style="fill: rgb(255, 205, 57);"></path><path d="M269.769 190.885c4.826-6.32 6.65-16.103 6.65-16.103l4.99 1.479s.828 17.757 6.789 17.139 12.222-5.835 12.222-5.835l-10.968-22.82-22.822 1.562-.906 18.397-5.802 5.549 8.386 1.515zM272.998 208.43c10.106 0-12.913 6.722-18.391 3.494s-2.666-10.224-2.666-10.224 20.578 6.73 21.057 6.73M283.074 207.251c13.207 2.423 16.522 3.891 20.414 0 3.891-3.891 3.52-6.616 3.52-6.616s-3.105-4.504-5.693-3.602c-2.589.902-18.241 7.208-18.241 10.218M324.68 270.59l-2.69 6.49s-6.7 8.18-8.8 9.22c-2.11 1.05-12.21 8.09-17.03 9.55-4.81 1.46-9.76 1.05-15.83.6-6.06-.46-16.72-.69-20.44-1.37-3.72-.69-10.47-4.8-14.22-6.97-3.76-2.18-13.95-11.43-16.5-15.27-2.54-3.84-3.03-19.24-2.45-25.39.58-6.14 10.62-18.55 13.22-21.16.7-.7 2.01-1.52 3.56-2.34-2.72 9.67 11.77 19.833 27.95 19.833 13.147 0 16.75-5.453 16.75-5.453 9.94 7.34 23.2-11.07 29.58-4.7 1.01 1.01 2.51 2.65 4.27 4.76l1.3 2s3.29 14.61 3.51 15.66c.23 1.05-2.18 14.54-2.18 14.54" style="fill: rgb(239, 182, 20);"></path><path d="M222.471 164.234c.635 5.331 2.347 19.761 4.744 22.158s3.661 3.612 18.168 3.612 20.51-1.372 21.061-1.656c2.283-1.174 4.5-21.326 4.5-21.326zM285.421 166.044c.261 5.869 2.455 17.602 4.032 20.018s3.142 3.199 7.185 3.199 15.522-1.032 15.522-1.032l7.926-2.359 4.111-6.261 4.396-16.347z" style="fill: rgb(35, 35, 35);"></path><path d="m221.64 152.645.832 11.082 34.31 2.343s22.366.698 23.064 0 19.37-.515 19.37-.515l28.471-3.228 1.197-10.572s-20.465 1.131-22.377 1.156-69.83.872-69.83.872z" style="fill: rgb(210, 40, 122);"></path><path d="M221.64 152.645c0 .475.832 11.589.832 11.589s-9.441-.624-10.42-.972-8.289.295-8.694-.907c-.404-1.202-5.078-9.71-5.078-9.71l15.64.344z" style="fill: rgb(98, 41, 151);"></path><path d="M201.095 181.011c-3.13-9.293-4.989-16.629-11.641-17.461s-12.228.733-15.652 3.57-6.565 8.817-7.924 10.176-4.318 10.044-5.179 12.957 3.027 18.736 8.31 21.671 7.884 4.794 9.763 4.794 8.726 1.565 8.726 1.565l3.326-.391zM328.884 160.839c4.375-1.741 8.679-2.328 11.125.117 2.446 2.446 7.422 8.696 5.961 15.305s-1.168 16.685-3.516 21.087-11.641 14.967-11.641 14.967l-6.616 5.841s-3.043-7.478-2.971-7.406 5.653-.1 5.653-.1l-8.767-23.991s3.552-1.673 5.241-5.764 3.94-11.036 3.94-11.036z" style="fill: rgb(255, 205, 57);"></path><path d="M284.185 204.495c3.324-4.408 9.519-8.402 13.172-8.101 3.652.301 5.038.399 5.038 2.718s-1.887 5.778-5.778 5.778c-3.891.001-12.432-.395-12.432-.395M270.552 205.5c-4.956-3.913-7.304-5.994-9.978-5.964s-6.717-1.666-7.891.747-2.087 2.89.326 4.608 4.696 3.153 6.522 3.414 5.152.092 6.457-.28 4.956-1.231 4.956-1.231z" style="fill: rgb(35, 35, 35);"></path><path d="m380.99 492.57-.13 9.48h-31.38s2.2-12.66 2.59-18.79c.4-6.13-.72-31.81-.72-31.81s-4.05-21.45-3.95-22.67c.11-1.21-2.63-8.65-1.59-13.21 1.05-4.57 3.13-16.25 3.13-16.25 1.14.7 2.36 1.66 3.61 2.82 7.08 6.51 15.37 19.08 17.92 24.51 3 6.39 7.42 27.01 8.01 31.85.58 4.85 2.51 34.07 2.51 34.07M178.68 484.7c0 1.95-.87 20.08-.87 20.08l-5.18-.08c-14.27-.2-53.18-.75-54-.75-1.01 0 .5-21.35.5-21.35s.82-9.15 1.3-13.11c.49-3.97 4.87-24.17 5.47-25.49.59-1.32 10.05-29.4 11.52-32.72 1.03-2.32 4.31-7.03 8.61-10 1.87-1.29 3.93-2.24 6.09-2.53 6.78-.9 10.43 7.29 10.43 7.29s5.87 14.74 6.26 16.44c.39 1.69 4.18 12.52 5.38 18.91s3.37 22.73 3.37 22.73 1.12 18.62 1.12 20.58" style="fill: rgb(210, 40, 122);"></path><path d="M178.68 484.7c0 1.95-.87 20.08-.87 20.08l-5.18-.08c-.04-5.57-.49-47.06-3.04-58.64-2.68-12.12-9.93-41.87-23.56-44.78 1.87-1.29 3.93-2.24 6.09-2.53 6.78-.9 10.43 7.29 10.43 7.29s5.87 14.74 6.26 16.44c.39 1.69 4.18 12.52 5.38 18.91s3.37 22.73 3.37 22.73 1.12 18.62 1.12 20.58" style="fill: rgb(175, 21, 102);"></path><path d="M207.356 356.902c11.446 1.663 28.23 3.69 32.702 3.41s19.072-3.192 21.31-3.192 16.289-4.255 17.04-2.872c.752 1.383 2.219 4.904 3.784 7.056s7.903 15.558 9.674 22.11c1.771 6.553 2.26 22.498 1.38 28.172s-4.696 31.304-4.696 31.304-4.696 39.62-3.326 43.924 3.217 17.335 3.217 17.335l-37.064-2.857-2.054-26.217-4.595-40.123s-.222-17.04-1.939-20.953c-1.716-3.913-12.803-21.13-12.803-21.13l-19.031-22.925s-4.087-9.423-4.43-11.314.831-1.728.831-1.728M192.494 149.348c0-20.088 4.492-34.37 8.601-41.609s17.363-17.541 33.353-22.642c15.99-5.102 32.093-5.244 35.587-4.875s15.843 2.604 15.843 2.604l13.911 6.031-65.824 48.328-12.621 4.696-23.403 11.258z" style="fill: rgb(210, 40, 122);"></path><path d="M192.494 144.149c8.21-16.453 42.449-39.109 62.405-46.27s44.889-9.022 44.889-9.022l-63.613 46.705-23.211 9.799s-13.875 8.389-15.024 7.778-6.114-1.443-5.78-2.617.334-6.373.334-6.373" style="fill: rgb(175, 21, 102);"></path><path d="M352.51 126.3c-.93 2.2-2.05 4.15-3.26 5.72-6.71 8.69-19.54 19.06-20.33 19.7-.03.02-.04.03-.04.03s-7.61-14.72-20.05-16.35c-12.45-1.64-43.56-3.38-43.56-3.38l-37.41 5.97-2.08.33c2.64-3.49 7.92-10.29 15.4-17.7 8.64-8.57 20.23-17.94 34.08-23.89 25.81-11.1 51.06-13.27 67.88-4.16 13.88 7.51 13.74 23.37 9.37 33.73" style="fill: rgb(140, 89, 193);"></path><path d="M352.51 126.3c-.93 2.2-2.05 4.15-3.26 5.72-6.71 8.69-19.54 19.06-20.33 19.7-.03.02-.04.03-.04.03s-7.61-14.72-20.05-16.35c-12.45-1.64-43.56-3.38-43.56-3.38l-37.41 5.97c2.89-3.6 6.9-8.27 11.89-13.21 8.64-8.57 20.23-17.94 34.08-23.89 25.81-11.1 51.06-13.27 67.88-4.16 12.13 6.56 13.55 19.5 10.8 29.57M237.628 83.687c-.435-2.507.467-5.547 2.269-7.35s13.975-4.511 16.714-2.965 3.487 7.171 3.487 7.171l-14.717 1.498z" style="fill: rgb(98, 41, 151);"></path><path d="M237.577 251.549c-2.764 3.582-4.081 6.973-3.194 12.712s5.675 15 11.759 17.478 16.498 5.413 20.747 6c4.25.587 18.793.391 24.141-.783s9.391-2.804 9.391-2.804 10.828-4.956 13.224-9.244 6.441-6.93 6.441-13.288-1.404-11.354-3.214-12.133-1.614-1.856-4.549-1.171-11.089 6.766-12.783 7.736c-1.695.97-14.119 5.568-16.271 5.568s-5.383.972-9.393-.834-9.732-4.399-10.857-5.524-5.789-4.696-9.351-6.946-10.605-2.935-12.073-1.467c-1.467 1.466-4.018 4.7-4.018 4.7" style="fill: rgb(255, 246, 235);"></path><path d="M196.068 200.635c.658-10.982-3.283-27.809-15.464-27.809s-14.726 5.965-14.726 5.217 6.088-13.205 16.12-14.494 15.059 8.153 17.078 11.454 2.019 6.007 2.019 6.007zM325.856 176.674c4.63-4.63 9.522-6.587 12.196.326s5.032 16.258 2.875 22.77c2.865-9.727 6.078-16.579 5.043-24.14-1.035-7.56-2.999-13.15-6.634-15.232-5.713-3.272-11.001.884-11.001.884z" style="fill: rgb(239, 182, 20);"></path><path d="M328.92 151.72c-.03.02-.04.03-.04.03s-7.61-14.72-20.05-16.35c-12.45-1.64-43.56-3.38-43.56-3.38l-39.49 6.3c2.64-3.49 7.92-10.29 15.4-17.7 40.33-20.12 92.33-14.99 99.81-1.3 7.27 13.33-11.1 31.45-12.07 32.4" style="fill: rgb(71, 25, 124);"></path><path d="m221.876 156.151 52.375 1.697 53.918-1.685-1.092-4.409-58.663 1.235-40.95-.494-6.039.15z" style="fill: rgb(244, 78, 173);"></path><path d="m201.095 155.967 20.781.183s-.724-2.865-1.02-3.162-21.65.181-21.65.181z" style="fill: rgb(140, 89, 193);"></path><path d="M229.588 391.836c.529-1.575 10.47-8.183 10.47-8.183l7.227 9.478s-10.922 7.496-11.293 7.126-6.404-8.421-6.404-8.421M258.095 391.836l-16.761 17.469s2.251 8.743 2.52 10.696 2.681 22.07 2.681 22.07l8.469 15.615c.287.532 7.591 9.271 7.591 9.271s9.261-2.478 8.609-3.913-10.44-24.896-11.285-26.6-7.628-16.835-7.628-16.835l7.043-6.261 14.739 13.641 6.371-2.928 2.234-2.234-6.242-13.233-7.111-9.275-7.957-6.334-2.236-2.236c.001.001-2.074 1.087-1.037 1.087M268.595 387.13c.652.652 6.178 9.261 6.522 9.261.343 0 3.012 3.114 3.012 3.114l6.751-6.187s-2.72-5.535-3.372-6.187l-5.739-5.739z" style="fill: rgb(239, 182, 20);"></path><path d="M250.893 492.184s19.891-12.882 19.891-13.406 14.096-12.229 14.096-12.229l.345-3.798-11.837-21.326s3.326-4.092 5.576-4.981 3.713-.905 3.713-.905l5.764 13.809-2.957 17.726-.838 12.612s-27.889 23.271-28.379 23.271-3.62-.267-4.011-1.161c-.389-.894-1.363-9.612-1.363-9.612M284.648 487.304c-.792 0-8.35 7.533-8.35 7.533l4.624 9.978s7.543-.587 7.271-2.367-3.545-15.144-3.545-15.144" style="fill: rgb(239, 182, 20);"></path><path d="M237.421 252.913c0 3.848 1.821 14.085 1.821 14.085v1.405l-3.495.683s-3.152-5.354-2.565-8.676 2.087-7.497 4.239-7.497M251.378 266.315c0 .228-5.236 6.529-5.236 6.529s2.495 3.606 2.495 3.221 6.002-4.63 6.002-4.63zM261.992 272.844c.282.282 2.671 5.357 2.671 5.357l6.787-3.727-4.729-5.006zM279.014 275.12c.245-.245 6.408-3.375 6.408-3.375l2.362 3.163-4.903 4.809zM295.253 273.457l6.061 4.108 4.064-7.288-3.864-2.494-3.424 4.506zM314.202 263.478l-3.281 4.577s4.493 5.044 4.493 4.619 2.755-4.891 2.755-4.891z" style="fill: rgb(117, 12, 34);"></path><path d="M175.16 368.152c-1.652 12.913 7.639 31.304 12.874 39.13s8.561 31.109 20.691 31.109 25.265-13.553 30.558-11.179c5.293 2.373 4.707 2.726 4.707 1.572s2.495-9.176-4.157-10.349-8.834 1.458-12.047 3.468-11.024 8.173-13.967 6.95c-2.942-1.223-4.808.324-7.295-5.047s-3.669-8.893-5.43-12.415-7.826-10.281-7.826-10.281l-9.987-11.632-4.599-8.5zM290.769 432.13c4.956-14.087 21.391-21.391 26.478-26.478s8.478-15.158 8.478-15.158l-7.174-16.407 1.928 14.261-1.628 1.926s-9.713 12.442-10.604 12.442c-.892 0-10.418 7.763-10.418 7.763s2.167-8.583-.555-20.204-6.696-31.97-11.166-39.665-4.34-6.391-6.687-16.696c-2.348-10.304-10.826-23.726-10.826-23.726h-2.728l6.81 18.639-3.766 1.291 8.944 20.491s8.253 14.886 8.253 15.913 6.487 17.217 6.487 20.217.652 23.217.652 23.217l-2.167 15.992zM214.095 315.173c-5.761 1.783-3.666 13.131-4.387 20.175-.722 7.043-7.365 12.726-4.37 19.537 0 0 .815-.057 3.993-4.841s6.699-10.697 7.221-12.892 1.516-11.209 1.516-11.209l-.273-4.557z" style="fill: rgb(71, 25, 124);"></path><path d="M357.29 446.06c0 7.63-1.11 44.71-1.46 55.99h-6.35s2.2-12.66 2.59-18.79c.4-6.13-.72-31.81-.72-31.81s-4.05-21.45-3.95-22.67c.11-1.21-2.63-8.65-1.59-13.21 1.05-4.57 3.13-16.25 3.13-16.25 1.14.7 2.36 1.66 3.61 2.82.9 2.29 1.61 4.16 1.61 4.16 0 10.44 3.13 30.72 3.13 39.76" style="fill: rgb(175, 21, 102);"></path><path d="M145.846 410.093c-.596.032.517-.034-.269.019-.352.024-.669.019-1.016.14-.571.199-.924.592-1.352.995-.699.658-1.257 1.112-1.786 1.955-.448.714-.773 1.494-1.201 2.219-1.508 2.556-2.542 5.46-3.519 8.263-1.898 5.445-3.321 10.992-4.496 16.634-2.399 11.518-3.719 23.294-4.075 35.052-.099 3.265-.1 6.523.246 9.772.189 1.774.377 3.547.728 5.297.147.731.279 1.495.526 2.199.231.658.5 1.074.89 1.605q.554.707.041.005l.324.849c.893 2.334 4.431 2.541 5.08-.125.015-.062.151-1.354.051-.681l-.16.182a2.9 2.9 0 0 0 .696-1.102c.346-.711.462-1.463.572-2.238.248-1.756.365-3.518.48-5.286.184-2.802.272-5.586.363-8.392.186-5.747.498-11.474 1.097-17.195-.101.97.006-.054.034-.294q.053-.463.108-.925.125-1.04.258-2.08.3-2.31.651-4.612c.423-2.763.885-5.521 1.404-8.267 1.067-5.64 2.373-11.248 3.71-16.829.751-3.135 1.572-6.725 1.987-9.567.112-.767.302-1.52.404-2.29.129-.975-.011-1.646-.145-2.613-.116-.84-.2-1.524-.809-2.18-.111-.121-.467-.529-.822-.51M359.409 421.418c-.027.679.147 1.256.35 1.894l-.024-.996c-.278 1.465.442 2.813.872 4.189.421 1.346.759 2.726 1.114 4.091a111 111 0 0 1 1.808 8.321c.577 3.216 1.178 6.36 1.653 9.214.255 1.532.499 3.131.96 4.615.209.671.611 1.252.825 1.927.274.865.596 1.603 1.085 2.37.873 1.369 2.663 1.159 3.504-.086.513-.759.826-1.536 1.056-2.422.248-.958.659-1.911.736-2.945a23.8 23.8 0 0 0-.248-5.853 68 68 0 0 0-2.455-10.22c-1.008-3.094-2.046-6.304-3.661-9.144-.742-1.305-1.66-2.568-2.628-3.714-.605-.716-1.208-1.226-2.048-1.638.631.309-.424-.362-.451-.378-.31-.182-.673-.29-1.019-.37-.765-.178-1.399.395-1.429 1.145M369.87 464.988l-.017.019a3.09 3.09 0 0 0-.722 3.03l.219.531q.215.7.744 1.208a2.77 2.77 0 0 0 2.717.648 2.8 2.8 0 0 0 1.207-.744l.314-.404.468-.638q.325-.541.339-1.16.1-.414-.02-.823a2.3 2.3 0 0 0-.395-1.141l-.011-.022a3.1 3.1 0 0 0-1.13-1.077 2.3 2.3 0 0 0-1.152-.337 2.34 2.34 0 0 0-1.225.085 3.1 3.1 0 0 0-1.336.825M208.294 107.524c2.004-.948 4.009-1.855 5.876-3.068 1.804-1.172 3.549-2.423 5.386-3.547 3.639-2.227 7.452-4.347 11.419-5.933 7.924-3.168 16.439-5.837 24.742-6.97 2.624-.358 5.283-.584 7.881-1.11 2.413-.489 4.633-1.299 6.98-2.009 1.406-.426 1.27-2.388-.068-2.786-2.322-.69-4.443-1.291-6.88-1.452-2.465-.163-4.895.119-7.326.516a99 99 0 0 0-13.161 3.071c-8.785 2.705-17.122 6.895-24.759 11.998a87 87 0 0 0-6.073 4.42c-2.063 1.652-3.62 3.683-5.055 5.881-.452.689.441 1.272 1.038.989" style="fill: rgb(244, 78, 173);"></path><path d="M183.817 343.779c-3.192 2.598-4.014 6.802-5.163 10.56-1.18 3.863-1.484 8.16-1.056 12.181.894 8.392 5.805 14.863 10.884 21.265 4.613 5.814 9.3 11.091 13.432 17.438 1.011 1.552 1.999 3.122 2.898 4.742q.65 1.171 1.241 2.374.136.278.27.558c-.006-.013.281.6.135.283-.007-.014.365.85.485 1.135 1.382 3.275 2.966 6.895 6.343 8.571 4.355 2.161 8.557.214 12.109-2.471.752-.568 1.499-1.148 2.286-1.669a15 15 0 0 1 1.333-.792c-.074.039-.429.177-.002-.007.251-.109.511-.2.77-.286q.292-.098.589-.181c.087-.024 1.064-.254.683-.18-.368.072.287-.035.293-.036.273-.026.546-.048.82-.058.549-.02 1.092.024 1.64.033.203.003.405-.009.608-.006.089.002.884.081.436.018 1.781.247 3.534-.397 4.207-2.196.568-1.521.099-3.784-1.588-4.474-2.077-.85-4.046-1.367-6.316-1.163-2.178.196-4.153.763-6.115 1.711-1.498.724-2.791 1.776-4.114 2.769-.598.449-1.202.892-1.836 1.29-.305.191-.629.35-.934.537-.381.234.07-.034.146-.059-.214.07-.43.146-.643.22-.708.247.476.009-.269.047-.725.037.421.155-.314-.033-.085-.022-.57-.217-.138-.025.519.231-.225-.092-.237-.162l-.135-.082.308.225c-.15-.147-.313-.291-.469-.432-.525-.472.208.381-.194-.219-.188-.28-.375-.56-.546-.851a17 17 0 0 1-.492-.908c-.078-.155-.148-.315-.228-.468-.283-.538.227.547-.009-.012-1.404-3.333-2.932-6.577-4.841-9.653-3.814-6.146-8.81-11.541-13.541-16.98-2.376-2.732-4.432-5.156-6.564-8.031-2.188-2.951-4.165-6.02-5.13-9.594-1.09-4.039-.655-7.992-.439-12.157.214-4.117 1.755-8.515.382-12.537-.155-.454-.645-.511-.985-.235M285.817 323.895c.201 0 .193-.312-.008-.312s-.193.312.008.312M286.353 324.682c1.988 1.407 2.901 3.705 3.97 5.795.505.988 1.128 1.921 1.653 2.902q.356.666.692 1.343c.351.704.363.771.76 1.657q.254.563.518 1.12c.027.056.285.638.082.176q.343.787.655 1.587.659 1.692 1.196 3.426c.792 2.547 1.438 5.136 2.039 7.734 1.237 5.344 2.232 10.743 4.363 15.826 1.147 2.736 2.545 5.299 4.03 7.861.635 1.094 1.264 2.193 1.83 3.324.124.249.249.499.365.752-.293-.642.063.172.126.331.279.703.524 1.42.715 2.153q.103.4.187.804c.258 1.21-.001-.65.054.479.03.621.044 1.231.016 1.853-.037.831-.025.141.005-.024-.065.366-.125.731-.211 1.093a14 14 0 0 1-.419 1.424q.241-.578.062-.158a32 32 0 0 1-1.892 3.391 7 7 0 0 0-.369.625q-.633 1.566-.255.676l-.187.3c-.525.668-.803 1.38-1.056 2.188-.581 1.858 1.082 3.375 2.777 3.468.993.055 1.714-.178 2.595-.591-.071.033 1.012-.5.544-.277l-.12.043a9.4 9.4 0 0 0 1.237-.533c1.423-.814 2.693-2.463 3.482-3.862a18.1 18.1 0 0 0 2.3-8.712c.038-6.194-3.657-11.292-6.464-16.511a40 40 0 0 1-.977-1.936c.267.565-.123-.279-.179-.412a46 46 0 0 1-.42-1.022c-.571-1.441-1.051-2.91-1.526-4.384-.931-2.894-1.751-5.817-2.521-8.758-1.432-5.466-3.013-10.824-5.676-15.839-1.388-2.615-3.528-5.55-6.022-7.208-2.331-1.549-4.966-2.148-7.549-3.151-.646-.25-.885.711-.41 1.047M153.601 388.963c.397.21.717.584 1.11.818.551.327 1.123.507 1.734.691.874.263 1.748.728 2.654 1.106 1.175.49 3.048 1.65 3.998 2.459 3.011 2.565 4.883 5.762 6.7 9.498 1.644 3.382 3.184 7.599 4.387 11.626.599 2.004.947 4.125 1.716 6.07.863 2.181 2.102 4.074 3.163 6.139.826 1.608 3.387 1.068 3.768-.587.557-2.419 1.18-4.745 1.011-7.272-.172-2.578-1.046-5.213-1.812-7.665-1.478-4.733-3.553-9.35-5.988-13.667-2.39-4.238-5.431-8.185-9.508-10.918-2.021-1.355-4.613-2.527-7.061-2.65-1.165-.058-2.406-.043-3.546.218-1.238.284-1.809 1.028-2.683 1.813-.711.637-.438 1.901.357 2.321M181.787 437.684l-.046.111.435-.594c-.456.617-.77 1.099-.855 1.872-.057.521.047.996.132 1.509l-.136-.857q.02.119.034.239l.413-1.692c-.605.838-.645 2.056-.334 3.011.076.235.157.467.222.706.123.458.212.929.292 1.396l-.159-1c.158 1.013.181 2.08.075 3.1-.125 1.203.883 2.76 1.965 3.241l.085.038-1.83-3.018c.058.593.154 1.177.274 1.761.233 1.141 1.032 2.094 2.194 2.384 1.821.454 3.431-.984 4.178-2.517l-3.016 1.831.048-.005c.865-.095 1.596-.314 2.285-.874.597-.486 1.189-1.224 1.315-2.011.13-.815.264-1.672.231-2.502s-.195-1.674-.388-2.48c-.19-.796-.539-1.536-.898-2.269a9 9 0 0 0-.352-.647c-.721-1.202-1.933-1.903-3.352-1.863l2.377.918c-.236-.198-.482-.38-.73-.563-.843-.62-1.814-.714-2.817-.477l.762-.122-.149.007c-.854.047-1.908.513-2.255 1.367M185.935 464.608c0 .324.045.732-.006 1.052.09-.566-.157.19-.21.338-.285.797-.206 1.656-.253 2.494l.38-1.555c-.381.951-.505 1.783-.486 2.797.012.652.015 1.301.052 1.952.07 1.245.108 2.491.17 3.736.029.593.028 1.189.062 1.782.029.497.135.985.211 1.477-.101-.659.039.455.041.478.136 1.225.291 2.669.753 4.22.593 1.993 3.754 2.553 4.689.497.392-.863.687-1.701.898-2.62.227-.99.271-1.984.46-2.977l.018.233q.097-.651.154-1.307c.014-.355-.008-.714-.016-1.069-.019-.831-.04-1.666-.125-2.493-.178-1.727-.438-3.447-.867-5.129q-.087-.342-.178-.682-.332-1.217-.35-.698-.005.277-.125-.265l-.246-.665c-.35-.855-.986-1.356-1.358-2.184-.383-.852-1.091-1.468-2.088-1.292a1.88 1.88 0 0 0-1.58 1.88M333.084 406.569c-1.532 4.283-1.776 8.796-1.737 13.314.019 2.18.443 4.428.741 6.586q.504 3.676 1.115 7.336c.75 4.465 1.42 8.177 1.959 12.63.538 4.446.849 8.937.651 13.416a47 47 0 0 1-.281 3.533c.01-.083.099-.656.007-.142-.061.341-.095.687-.152 1.029q-.134.819-.315 1.629c-.241 1.079-.395 2.152-.599 3.238-.149.795-.406 1.585-.37 2.404.016.369.05.809.157 1.164q.627 1.393.322.712-.164-.378.034.108l-.036-1.462c-.244 1.002-.568 1.915-.14 2.927.334.788.899 1.236 1.763 1.276 1.31.062 2.173-.778 3.034-1.641l-1.195.737c2.574-.568 3.883-2.786 4.875-5.06 1.011-2.317 1.271-5.058 1.474-7.551.365-4.498-.078-9.104-.704-13.559-1.319-9.397-3.835-18.544-5.528-27.868a99 99 0 0 0-.729-3.557c-.256-1.165-.629-2.324-.853-3.488-.255-1.323-.337-2.642-.674-3.955q-.49-1.9-.975-3.803c-.254-.994-1.552-.771-1.844.047" style="fill: rgb(140, 89, 193);"></path></g><g style="clip-path: url(&quot;#nftOne_svg__b&quot;);"><path d="M276.583 212.77c-.002-.874-.517-1.686-.909-2.451-.439-.856-1.051-1.651-1.643-2.408-1.192-1.524-2.529-2.942-4.018-4.178-3.105-2.577-6.874-4.415-10.905-4.901-1.915-.231-4.041-.323-5.832.51-1.653.769-2.859 2.525-2.431 4.387.404 1.761 2.151 2.902 3.627 3.717a17.4 17.4 0 0 0 5.128 1.845c4.104.782 8.408.159 12.076-1.855 1.008-.553.067-2.082-.94-1.522-2.802 1.558-6.026 2.168-9.212 1.892a16 16 0 0 1-4.547-1.09c-1.384-.558-3.036-1.334-3.992-2.523-1.009-1.254-.254-2.735 1.092-3.343 1.535-.694 3.532-.544 5.154-.308 3.475.506 6.78 2.038 9.531 4.204a27.7 27.7 0 0 1 4.016 3.914c.626.742 1.185 1.535 1.802 2.283.554.671 1.068 1.494 1.828 1.933.08.045.176-.019.175-.106M281.703 210.786c.689-1.292 1.24-2.651 1.95-3.931a19 19 0 0 1 2.632-3.652c1.989-2.162 4.461-3.899 7.224-4.918 1.373-.506 2.814-.864 4.276-.973 1.306-.097 3.098.007 3.568 1.495.378 1.197-.248 2.613-1.166 3.393-1.194 1.014-2.862 1.368-4.369 1.599a54 54 0 0 1-6.702.623c-1.099.029-2.194-.031-3.292-.038-.997-.006-2.137.013-2.521 1.092-.051.143.019.318.122.419.734.719 1.845.45 2.788.472 1.147.026 2.289.065 3.437.022a56 56 0 0 0 6.511-.645c1.9-.298 3.789-.805 5.284-2.077 1.231-1.047 2.005-2.75 1.882-4.376-.137-1.806-1.359-3.189-3.115-3.612-1.674-.404-3.522-.073-5.165.333-3.277.809-6.311 2.546-8.758 4.859a19 19 0 0 0-3.507 4.489c-.918 1.645-1.647 3.388-1.605 5.298.005.275.394.375.526.128" style="fill: rgb(35, 35, 35);"></path><path d="M254.811 218.716c-3.5-.638-6.952-1.804-9.573-4.301a13.04 13.04 0 0 1-4.062-9.539c.011-3.575 1.416-7.15 3.98-9.662 1.518-1.487 3.369-2.584 5.231-3.581.962-.515 1.933-1.023 2.98-1.346 1.105-.342 2.252-.411 3.402-.325 2.256.169 4.481.886 6.658 1.463 2.322.615 4.644 1.236 6.985 1.778 4.504 1.042 9.135 1.81 13.773 1.593 4.628-.216 9.027-1.62 13.49-2.733 2.12-.529 4.329-1.09 6.53-1.06 2.044.027 3.715.898 4.826 2.624 2.219 3.448 2.11 8.022.78 11.768-1.312 3.693-4.021 6.824-7.121 9.154a45 45 0 0 1-2.385 1.66c-1.031.674-.066 2.241 1.006 1.629 7.464-4.268 13.397-13.042 10.875-21.895-.565-1.985-1.594-4.022-3.259-5.305-1.867-1.439-4.216-1.686-6.496-1.421-4.843.563-9.44 2.371-14.222 3.25-4.909.903-9.911.468-14.776-.488-2.513-.494-4.998-1.118-7.478-1.753-2.407-.616-4.814-1.338-7.265-1.763-2.437-.423-4.797-.338-7.083.669-2.08.916-4.146 2.07-5.957 3.446-3.249 2.468-5.418 6.043-5.981 10.102-.537 3.877.354 7.86 2.771 10.977 2.288 2.951 5.91 5.429 9.708 5.766.91.081 1.787-.011 2.678-.194.254-.054.236-.468-.015-.513" style="fill: rgb(35, 35, 35);"></path><path d="M254.347 218.772a9.9 9.9 0 0 0-3.13.274c-.996.245-1.966.573-2.915.96a28.5 28.5 0 0 0-5.509 2.998c-3.508 2.442-6.53 5.528-9.108 8.925-2.886 3.803-5.328 7.953-6.921 12.466-1.305 3.697-1.921 7.635-1.91 11.552.023 7.879 2.597 15.802 7.303 22.13 2.539 3.415 5.654 6.226 9.175 8.602 4.11 2.773 8.522 5.172 13.155 6.947 4.73 1.811 9.702 2.731 14.723 3.263 2.542.269 5.093.44 7.644.585 2.509.142 5.145.417 7.639.006 1.221-.201 2.37-.687 3.526-1.121.368-.138.327-.793-.118-.734-1.245.165-2.451.033-3.701.035-1.212.002-2.423.059-3.636.033-2.431-.053-4.865-.214-7.29-.388-4.878-.348-9.766-.93-14.486-2.254-4.62-1.296-8.967-3.375-13.093-5.804-3.738-2.201-7.297-4.668-10.207-7.913-5.003-5.579-8.044-12.907-8.708-20.353-.331-3.714-.09-7.467.796-11.092 1.056-4.319 3.053-8.335 5.479-12.042 4.455-6.81 10.624-13.007 18.566-15.458a61 61 0 0 0 2.831-.951c.372-.135.275-.64-.105-.666M290.861 298.132c1.793-.363 3.49-.991 5.192-1.649a69 69 0 0 0 4.965-2.14 70.6 70.6 0 0 0 9.442-5.492 74 74 0 0 0 8.535-6.858c1.37-1.278 2.66-2.639 3.713-4.193 1.045-1.542 1.789-3.268 2.377-5.03.592-1.775 1.011-3.602 1.413-5.429.446-2.028.873-4.067 1.135-6.129.478-3.765.291-7.529-.492-11.24-1.534-7.27-5.126-14.02-9.319-20.091-3.776-5.469-8.454-10.77-14.797-13.227a6.5 6.5 0 0 0-2.474-.471c-.728-.004-.953 1.022-.333 1.362.331.182.65.403.993.559.37.168.773.268 1.153.414.757.29 1.493.641 2.206 1.025a23.6 23.6 0 0 1 3.934 2.686c2.464 2.062 4.583 4.508 6.481 7.092 4.147 5.646 7.724 11.933 9.63 18.708.952 3.386 1.441 6.884 1.327 10.404-.123 3.825-.994 7.657-1.934 11.355-.896 3.524-2.262 6.72-4.774 9.397-2.4 2.558-5.163 4.811-7.951 6.928-3.13 2.377-6.439 4.511-9.869 6.428a107 107 0 0 1-5.306 2.763c-1.782.87-3.631 1.59-5.398 2.489-.203.103-.043.379.151.339M279 219.278c.147-.232.327-.375.458-.612l-.676.017c.974 1.837 2.18 3.541 3.131 5.395a71 71 0 0 1 2.671 5.797 58.8 58.8 0 0 1 3.437 12.081 63 63 0 0 1 .472 3.421c.131 1.139.229 2.45.641 3.525.133.349.63.359.737-.018.277-.971.22-2.116.169-3.115-.055-1.069-.232-2.145-.395-3.201a57 57 0 0 0-1.354-6.405c-1.149-4.183-2.816-8.186-4.912-11.98-1.142-2.067-2.389-4.246-3.994-5.988-.221-.24-.7-.041-.661.293.032.278.149.509.197.783.008.038.062.035.079.007M288.309 251.484c-.02.11-.085.189-.093.307-.007.093-.012.177-.027.269-.035.221-.017.453-.032.676a9 9 0 0 1-.137 1.109c-.076.385-.186.767-.278 1.146-.049.201-.111.401-.169.6-.063.214-.134.418-.009.625a.31.31 0 0 0 .273.148c.424-.025.687-.619.842-.962.102-.227.201-.435.265-.677q.084-.325.136-.655c.071-.449.114-.903.086-1.357-.013-.22-.023-.459-.077-.673-.027-.11-.072-.222-.107-.331-.041-.125-.129-.189-.189-.299-.107-.196-.443-.148-.484.074M249.723 208.927c1.031 2.035 3.065 3.279 5.152 4.024a18 18 0 0 0 3.695.888c.642.085 1.248.158 1.89.108.673-.053 1.365.086 2.022-.103.234-.067.272-.408.055-.523-.511-.27-1.102-.322-1.658-.46-.618-.153-1.207-.314-1.837-.432-1.15-.214-2.307-.441-3.424-.792-2.033-.639-3.908-1.674-5.601-2.951-.172-.128-.396.04-.294.241M306.231 199.117c-.177 1.648-.376 3.319-1.087 4.847-.346.742-.797 1.387-1.316 2.015-.27.326-.578.609-.863.92-.263.287-.689.593-.843.95-.116.27.04.512.327.539.419.04.964-.294 1.315-.503.416-.248.804-.619 1.136-.971.654-.691 1.176-1.574 1.549-2.445.727-1.697 1.002-3.779.063-5.436-.082-.146-.266-.052-.281.084" style="fill: rgb(35, 35, 35);"></path><path d="M238.948 249.452c-2.796 2.067-4.877 4.981-5.651 8.396-.858 3.786-.035 7.787 1.418 11.324 2.795 6.804 8.23 11.966 14.961 14.828 6.874 2.922 14.39 3.738 21.76 4.416 4.392.404 8.819.688 13.225.336 4.133-.33 8.232-1.23 12.174-2.503 7.037-2.273 13.9-6.06 18.52-11.969 4.419-5.652 6.886-13.237 5.059-20.351-.884-3.44-3.592-7.133-7.578-6.732-1.882.19-3.477 1.233-4.944 2.353-1.53 1.169-3.064 2.318-4.685 3.36a54.4 54.4 0 0 1-10.362 5.197c-3.706 1.384-7.723 2.596-11.687 2.861-4.213.282-8.257-1.324-11.979-3.139-3.63-1.77-6.971-3.99-10.094-6.542-3.092-2.526-6.304-5.242-10.329-6.056-3.475-.703-7.002.349-9.438 2.951-.525.561-1.048 1.209-1.396 1.898-.374.742-.516 1.521-.734 2.308-.226.815 1.047 1.131 1.273.318.202-.729.71-1.393 1.11-2.02a8.8 8.8 0 0 1 1.391-1.677 8.34 8.34 0 0 1 3.971-2.078c3.675-.781 7.332 1.287 10.144 3.431 1.548 1.18 3.011 2.466 4.555 3.652a52 52 0 0 0 4.773 3.27c3.278 1.98 6.842 3.707 10.531 4.768 1.917.551 3.906.843 5.903.746 2.003-.098 3.992-.502 5.938-.965a56.3 56.3 0 0 0 10.475-3.639 55.3 55.3 0 0 0 9.549-5.604c1.447-1.058 2.81-2.326 4.431-3.118 1.547-.756 3.189-.666 4.621.3 2.891 1.95 3.448 6.206 3.397 9.412-.055 3.392-1.007 6.745-2.547 9.756-3.242 6.337-8.97 10.798-15.345 13.722-7.098 3.255-14.94 4.808-22.732 4.629-3.995-.091-7.991-.467-11.961-.907-3.5-.388-6.997-.901-10.415-1.762-6.723-1.694-13.056-4.958-17.203-10.674-2.039-2.811-3.505-6.02-4.24-9.417-.78-3.604-.395-7.288 1.455-10.51.837-1.459 1.839-2.75 3.155-3.809.434-.353 0-1.107-.469-.76" style="fill: rgb(35, 35, 35);"></path><path d="M237.76 250.399c-.983 1.364-1.221 3.192-1.371 4.828-.16 1.748-.077 3.487.198 5.219.551 3.47 1.796 6.771 3.406 9.883q.592 1.142 1.254 2.246c.423.706.912 1.456 1.73 1.737 1.606.551 3.307-.968 4.44-1.926 2.597-2.196 4.45-5.175 5.796-8.266.855-1.965 1.54-3.997 2.177-6.041.329-1.055.649-2.114.971-3.171.332-1.088.743-2.181.942-3.302.136-.767-.998-1.34-1.355-.533-.742 1.68-1.158 3.543-1.694 5.299-.493 1.617-.993 3.232-1.572 4.821-1.1 3.02-2.538 5.983-4.682 8.406-1.014 1.146-2.196 2.234-3.542 2.978-.717.396-1.155.287-1.608-.407-.441-.675-.83-1.389-1.214-2.097-1.538-2.836-2.768-5.864-3.462-9.022a23.5 23.5 0 0 1-.567-5.229c.015-1.799.501-3.537.556-5.323.006-.237-.291-.255-.403-.1" style="fill: rgb(35, 35, 35);"></path><path d="M251.93 264.354c-1.082 1.901-.695 4.443.763 6.041 1.349 1.479 3.459 1.988 5.366 2.245 1.197.161 2.404.258 3.606.372 1.204.114 2.417.218 3.52-.385 1.923-1.052 2.793-3.576 3.284-5.571.31-1.262.505-2.548.754-3.823.118-.603.247-1.205.407-1.798.176-.652.466-1.28.611-1.937.217-.981-1.296-1.361-1.515-.378a4 4 0 0 0-.066.46c-.028.291.305.585.584.556.159-.017.31-.042.466-.079l-.909-1.125c-.525.792-.743 1.879-.955 2.795-.224.968-.388 1.949-.568 2.926-.349 1.894-.739 3.9-1.853 5.515-.605.877-1.372 1.31-2.442 1.295-1.144-.016-2.296-.191-3.435-.291-1.681-.147-3.497-.316-4.968-1.218-2.036-1.249-1.678-3.582-2.32-5.565-.048-.148-.253-.171-.33-.035" style="fill: rgb(35, 35, 35);"></path><path d="M266.852 268.292c-.732 1.898.656 4.057 2.012 5.296 1.778 1.624 4.07 2.123 6.421 2.158 2.596.038 5.311-.358 7.751-1.264 1.211-.45 1.806-1.277 2.375-2.397a18.5 18.5 0 0 0 1.335-3.45c.368-1.333.572-2.713.632-4.094q.046-1.033-.031-2.063c-.051-.672-.042-1.475-.738-1.811a.64.64 0 0 0-.74.114c-.391.359-.382.817-.332 1.307q.082.812.086 1.627a16.3 16.3 0 0 1-.277 3.114 17 17 0 0 1-.884 3.123c-.186.472-.399.934-.629 1.385-.225.443-.447.993-.869 1.281-.395.27-.941.39-1.393.529q-.837.257-1.691.446c-1.104.244-2.225.39-3.354.448-2.087.107-4.211-.012-6-1.196-1.722-1.139-2.383-2.966-3.518-4.577-.045-.065-.129-.044-.156.024" style="fill: rgb(35, 35, 35);"></path><path d="M285.455 270.184c-.052.43-.143.791-.16 1.229-.019.503-.026.99.113 1.481.23.811.77 1.576 1.523 1.976 1.089.579 2.464.396 3.637.241a24 24 0 0 0 3.542-.739c2.155-.625 4.556-1.495 6.19-3.097 1.747-1.712 1.815-4.273 1.892-6.572.044-1.345-.018-2.686-.239-4.015-.203-1.217-.496-2.861-1.389-3.771-.431-.439-1.401-.099-1.299.576.148.973.663 1.878.887 2.847.227.979.323 1.983.352 2.986a29 29 0 0 1-.092 3.049c-.076.978-.149 2.02-.642 2.891-.9 1.587-2.899 2.387-4.52 2.996a23.3 23.3 0 0 1-6.186 1.401c-1.039.09-1.792-.08-2.279-1.045-.181-.36-.325-.734-.47-1.109-.159-.407-.337-.912-.423-1.337-.043-.211-.41-.208-.437.012" style="fill: rgb(35, 35, 35);"></path><path d="M300.95 265.887c-.013 1.008.535 2.211 1.072 3.048.557.866 1.429 1.479 2.451 1.643 2.076.333 4.235-.876 5.902-1.98 1.719-1.14 3.858-2.74 4.466-4.808.325-1.106.202-2.306.084-3.434a42 42 0 0 0-.535-3.638 37.6 37.6 0 0 0-1.644-5.881c-.119-.32-.225-.66-.374-.968-.194-.4-.45-.461-.759-.755-.328-.313-.872-.057-.87.386.001.218-.105.428-.096.646.011.268.159.523.258.767a37 37 0 0 1 1.489 4.486c.523 1.996.901 4.049 1.033 6.111.06.93.029 1.852-.489 2.659-.508.792-1.289 1.463-2.005 2.063-1.396 1.169-3.108 2.309-4.892 2.758-.943.237-1.926.194-2.639-.535-.79-.808-1.133-1.884-1.81-2.757-.205-.267-.637-.176-.642.189" style="fill: rgb(35, 35, 35);"></path><path d="M301.821 282.771c.35-.887.109-1.978.066-2.905-.046-1.008-.009-2.013.195-3.003.425-2.056 1.546-3.826 3.247-5.064a14 14 0 0 1 2.639-1.49q.724-.313 1.468-.575c.452-.16.982-.419 1.47-.377.924.079 1.928 1.214 2.442 1.916.298.407.559.854.675 1.349.113.483-.016.977.164 1.447.195.509.816.697 1.221.291.712-.715.439-1.942.079-2.772-.389-.896-1.019-1.668-1.747-2.313-.744-.658-1.641-1.36-2.667-1.436-.955-.071-1.939.38-2.811.723-1.812.712-3.571 1.64-4.974 3.011-1.391 1.359-2.272 3.131-2.605 5.042a13 13 0 0 0-.148 3.284c.08.95.209 2.246.963 2.922.087.078.272.079.323-.05" style="fill: rgb(35, 35, 35);"></path><path d="M300.881 278.98c.575-.501.413-1.476.174-2.108a4.4 4.4 0 0 0-1.601-2.1c-1.809-1.313-4.178-1.249-6.301-1.043-1.216.118-2.43.257-3.643.392-1.09.121-2.15.294-3.121.833-1.769.983-2.87 2.799-3.493 4.669-.818 2.459-1.044 5.175-1.249 7.745-.088 1.1 1.635 1.054 1.717-.042.149-1.978.367-3.974.792-5.913.361-1.648.952-3.273 2.212-4.449 1.412-1.318 3.462-1.28 5.272-1.491 1.873-.218 3.874-.604 5.73-.089.933.259 1.585.791 2.27 1.444.637.607.643 1.444 1.092 2.137.037.054.104.055.149.015" style="fill: rgb(35, 35, 35);"></path><path d="M282.906 281.729c.575-.672.622-1.725.503-2.567-.155-1.091-.803-1.744-1.7-2.315-.939-.598-1.513-1.596-2.517-2.115-1.012-.523-2.164-.662-3.283-.755a18.8 18.8 0 0 0-7.535.931c-1.019.346-2.057.809-2.787 1.628-.754.846-1.139 1.938-1.379 3.029-.298 1.356-.502 2.738-.746 4.105-.217 1.217-.877 3.005.154 4.001.343.331.991.172 1.089-.316.086-.43.088-.864.138-1.298.066-.575.19-1.147.289-1.717l.569-3.26c.156-.889.292-1.827.697-2.643.423-.851 1.123-1.372 1.991-1.726 1.945-.793 4.072-1.175 6.168-1.196 1.016-.01 2.066.029 3.058.268.966.233 1.518.769 2.204 1.446.384.379.808.674 1.28.934.434.239.801.475 1.032.931.419.826.18 1.785.56 2.615.036.076.162.081.215.02" style="fill: rgb(35, 35, 35);"></path><path d="M264.841 280.36c.383-.855.39-1.845.335-2.766-.058-.988-.27-1.963-.718-2.85-.86-1.704-2.608-2.665-4.4-3.105-1.891-.464-4.008-.579-5.942-.368-2.079.227-3.948 1.033-5.266 2.704-.746.946-1.329 2.008-1.871 3.081-.606 1.199-1.238 2.472-1.599 3.77-.248.892 1.134 1.471 1.535.604.835-1.805 1.492-3.659 2.515-5.379.954-1.604 2.204-2.682 4.055-3.075 1.63-.346 3.461-.277 5.105-.047 1.544.216 3.187.687 4.232 1.923.609.72.937 1.631 1.14 2.54.216.97.199 2.018.6 2.937.047.108.22.164.279.031" style="fill: rgb(35, 35, 35);"></path><path d="M245.852 273.237c.078-.028-.061-.006.034-.007l-.192-.047.024.013-.147-.14c.023.034.05.072.079.1q.14.108.071.049-.036-.033 0 .004a1 1 0 0 0 .047.049c-.024-.028.052.071.051.07.04.052.081.107.13.15.122.106-.074-.095-.053-.103-.04.015.232.341.294.404l-.213-.481c.029.201.064.361.195.521.067.083.143.154.217.23q.182.189.362.381.084.091.166.186c.098.112-.067-.088-.007-.01l.068.087a5.4 5.4 0 0 1 .538.868c.015.031.027.072.048.1-.101-.136-.035-.081-.008-.016q.049.114.092.231c.032.086.058.175.089.261.029.081.062.172.107.245l.132.162q-.101-.13-.059-.05c.058.078-.052-.124-.014-.031l.054.128c.093.214.21.34.399.473l-.241-.23.03.042c.15.21.374.329.637.287a.63.63 0 0 0 .514-.466c-.053.204.038-.084.048-.117.027-.089.03-.179.027-.271-.001-.034.007-.247-.021-.269l-.021.111.024-.218a1 1 0 0 0-.056-.296 6.371 6.371 0 0 0-.648-1.36 6.6 6.6 0 0 0-.74-.944 3 3 0 0 0-.41-.371c-.252-.187-.514-.41-.852-.369l.349.085a2 2 0 0 0-.226-.107c-.163-.064-.296-.045-.466-.017l.331-.008c-.212-.048-.426-.142-.649-.137a.7.7 0 0 0-.165.022c-.021.006-.292.145-.252.204-.003-.004.157-.187-.018-.003-.035.036-.062.079-.091.12-.17.241.131.578.392.485M240.144 268.497c-.572-.506-1.337-.751-2.086-.821l.369.09c-.269-.144-.569-.124-.861-.082a4 4 0 0 0-.704.153c-.313.107-.6.256-.776.548a.89.89 0 0 0 .308 1.205c.452.261 1.065.015 1.124-.525a.76.76 0 0 0-.219-.62q.313.335.025.848l.028-.029q-.155.116-.053.049l.038-.02-.053.026.046-.018q.07-.026.14-.049.14-.045.286-.075l.048-.009-.055.008c.015.013.13-.015.147-.016.202-.017.375-.038.561-.141l-.364.108a4 4 0 0 1 .418-.011q.098.003.194.012c.091.008-.118-.025-.029 0 .039.011.082.015.121.024q.191.043.377.109c.063.022.036.018-.009-.004q.056.025.113.051.101.045.202.092c.257.122.553.072.725-.163.162-.217.151-.552-.061-.74M314.052 262.472c-.084.293.044.611.14.889.094.273.201.543.332.801a8.6 8.6 0 0 0 .826 1.305c.325.427.677.835 1.066 1.205.18.171.372.328.55.5l.051.055q-.052-.068-.007-.005c.017.025.096.166.038.034.017.039.023.082.038.122q.133.324.049.077-.039-.184-.034-.049c-.015.57.82.931 1.191.46.246-.312.355-.661.217-1.051-.111-.313-.335-.593-.582-.81-.416-.367-.832-.714-1.202-1.131a8 8 0 0 1-.889-1.235c-.145-.244-.291-.488-.428-.736-.162-.293-.266-.586-.553-.779-.308-.211-.712.032-.803.348" style="fill: rgb(35, 35, 35);"></path><path d="M203.095 163.575c-.981 5.583-1.668 11.212-2.715 16.786a219 219 0 0 1-3.793 16.602 215 215 0 0 1-5.04 16.144c-1.938 5.443-4.186 10.763-6.269 16.151-.56 1.449-1.213 2.918-1.628 4.416-.277 1.001-.317 2.33.5 3.104 1.182 1.119 2.922.056 4.147-.428l4.743-1.872-1.193-1.137c-.804 4.406-1.613 8.812-2.413 13.22-.394 2.168-.771 4.376-.68 6.589.07 1.676.553 3.703 2.476 4.087 1.951.39 3.783-1.22 4.904-2.626l-1.642-.634a55.8 55.8 0 0 0 6.319 18.826c.259.471.88.548 1.316.311 1.616-.877 2.762-2.284 3.423-3.984l-1.847.045a58.6 58.6 0 0 0 5.658 12.303c.968 1.586 2.212 3.503 4.251 3.69 1.668.153 3.576-1.094 3.4-2.927l-1.633.725c2.702 3.263 6.706 4.981 10.694 6.104 2.056.579 4.149 1.029 6.24 1.462 2.372.491 4.772.904 7.197.995 2.656.1 5.334-.245 7.775-1.338.464-.208.794-.646.631-1.179-.137-.447-.704-.833-1.178-.632-4.203 1.79-8.825 1.234-13.181.381-3.932-.77-8.035-1.541-11.672-3.283-1.986-.951-3.76-2.212-5.172-3.914-.531-.64-1.711-.07-1.633.725.046.468-.272.73-.698.883-.565.203-1.099-.002-1.562-.351-.594-.449-1.022-1.093-1.418-1.712a52 52 0 0 1-1.439-2.412 56 56 0 0 1-4.425-10.076c-.319-.972-1.521-.797-1.847.045-.477 1.23-1.423 2.197-2.569 2.819l1.316.311a53.2 53.2 0 0 1-6.042-17.866c-.106-.718-1.067-1.355-1.642-.634-.607.762-2.891 3.232-3.785 1.543-.44-.832-.348-2.031-.32-2.936.036-1.201.199-2.39.397-3.574.811-4.853 1.756-9.688 2.638-14.529.118-.649-.472-1.421-1.193-1.137l-4.049 1.6-1.851.732c-.146.057-1.046.493-1.15.406-.194-.163-.072-.755-.031-.969.113-.595.368-1.168.574-1.735.475-1.305.97-2.602 1.475-3.896 2.024-5.187 4.163-10.324 6.018-15.575a212.6 212.6 0 0 0 8.46-31.38c1.127-5.968 2.168-12.057 2.384-18.135.029-.695-1.103-.831-1.226-.134M221.125 153.354c-.285 1.966-.091 4.013.019 5.992.11 1.97.285 3.937.471 5.9.367 3.872.815 7.745 1.436 11.585.481 2.973 1.178 6.017 2.779 8.608 1.704 2.757 4.385 4.494 7.537 5.157 3.531.743 7.289.49 10.865.298 4.002-.215 7.994-.642 11.954-1.258 2.02-.314 4.022-.103 6.059-.045 1.049.03 2.108.054 3.153-.046.832-.08 1.721-.201 2.289-.879.925-1.103 1.213-2.705 1.584-4.058.537-1.959 1.084-3.896 1.459-5.896.377-2.013.642-4.044.863-6.08.116-1.066.218-2.134.315-3.202.049-.542.102-1.085.145-1.628.045-.559-.085-1.018-.223-1.556-.117-.456-.841-.557-1.045-.111-.187.409-.395.795-.473 1.238-.08.459-.088.941-.129 1.406q-.122 1.381-.259 2.76a88 88 0 0 1-.658 5.173 62 62 0 0 1-2.261 9.33 6.7 6.7 0 0 1-.613 1.391c-.016.027-.289.35-.06.098-.054.059-.2.064.001.018-.147.034-.289.098-.438.132-.718.165-1.766.163-2.629.162-1.923-.002-3.872-.234-5.793-.115-1.535.095-3.083.494-4.608.703-1.905.262-3.819.463-5.735.622-3.609.299-7.305.563-10.924.316-3.051-.207-6.056-1.09-8.114-3.474-1.878-2.176-2.711-5.088-3.273-7.848-.795-3.902-1.229-7.902-1.691-11.855a318 318 0 0 1-.669-6.387c-.207-2.139-.271-4.384-.807-6.466-.065-.248-.488-.256-.527.015M284.989 165.407c-.134.285-.311.579-.367.894-.063.352.015.775.04 1.129.06.839.134 1.673.243 2.507q.311 2.366.733 4.714c.563 3.134 1.243 6.274 2.158 9.326.772 2.576 2.111 4.749 4.747 5.685 2.472.877 5.228.504 7.776.266 3.338-.311 6.674-.641 10.012-.962 2.837-.273 5.838-.378 8.447-1.644 2.46-1.194 3.987-3.497 5.099-5.91 1.261-2.735 2.284-5.598 3.124-8.488a65 65 0 0 0 2.101-10.26c.416-3.42.759-7.027.389-10.464-.111-1.029-1.58-1.01-1.616.04-.099 2.924-.037 5.827-.323 8.747a63 63 0 0 1-1.469 8.622 64 64 0 0 1-2.621 8.347c-.923 2.35-1.913 4.926-3.798 6.686-1.904 1.778-4.634 2.124-7.116 2.371-3.101.309-6.204.598-9.306.897-2.69.259-5.47.748-8.179.543-1.087-.082-2.185-.342-3.122-.915-1.042-.638-1.713-1.687-2.157-2.802-.583-1.465-.954-3.026-1.343-4.55a98 98 0 0 1-1.121-4.92 93 93 0 0 1-.866-5.009c-.126-.875-.259-1.748-.388-2.622-.058-.394-.085-.807-.177-1.194-.097-.412-.325-.698-.571-1.042-.076-.108-.263-.131-.329.008" style="fill: rgb(35, 35, 35);"></path><path d="M221.697 153.569c3.487.223 7.002.156 10.495.179q5.121.032 10.242.041c6.911.012 13.822 0 20.732.002 13.738.006 27.476-.024 41.213-.039 3.83-.004 7.66.015 11.49.006l5.745-.013c1.969-.004 3.983.149 5.914-.256.642-.134.585-1.146-.031-1.273-1.701-.349-3.445-.225-5.176-.221l-5.245.014q-5.12.015-10.24.055c-6.91.051-13.82.056-20.73.083-13.737.053-27.473.104-41.21.183-3.829.022-7.659.048-11.488.094-3.905.047-7.837-.024-11.734.245-.582.042-.548.864.023.9M221.839 164.666c6.889.826 13.87 1.022 20.794 1.427 6.833.4 13.67.851 20.511 1.077 6.92.229 13.848-.027 20.763-.312a629 629 0 0 0 20.589-1.187 635 635 0 0 0 23.257-2.154c1.051-.117 1.02-1.773-.041-1.656a634 634 0 0 1-41.364 3.233c-6.841.309-13.703.604-20.552.494-6.827-.11-13.646-.599-20.464-.93l-11.697-.568c-3.894-.189-7.793-.414-11.692-.364-.521.008-.649.875-.104.94M203.883 163.38c-.838-4.687-3.169-9.295-7.246-11.938-4.016-2.604-8.956-3.418-13.571-4.307a290 290 0 0 0-9.621-1.683c-.858-.135-1.423 1.02-.581 1.48a10.6 10.6 0 0 1 4.365 4.483l.45-1.19c-6.898 1.792-12.976 6.199-16.977 12.077a28 28 0 0 0-2.826 5.305c-.155.385-.114.89.316 1.096 2.372 1.137-.122 4.815-.783 6.293a49 49 0 0 0-2.699 7.587c-1.34 5.103-1.76 10.464-.893 15.682.754 4.533 2.521 8.945 5.221 12.673 2.908 4.014 6.826 6.914 11.352 8.886 2.664 1.161 5.435 2.048 8.217 2.873 2.994.888 6.071 1.742 9.199 1.051 1.107-.245.595-1.937-.511-1.691-2.673.596-5.397-.216-7.953-.965-2.467-.723-4.936-1.473-7.317-2.448-4.457-1.824-8.485-4.464-11.413-8.34-6.023-7.974-6.779-18.478-4.186-27.879.789-2.861 1.867-5.629 3.167-8.296.599-1.229 1.28-2.553 1.171-3.964-.092-1.187-.687-2.346-1.792-2.875l.316 1.096c2.543-6.331 7.418-11.56 13.506-14.626a27 27 0 0 1 5.35-1.999c.534-.139.677-.752.45-1.19a12.1 12.1 0 0 0-4.955-5.043l-.581 1.48c5.187.817 10.426 1.646 15.526 2.91 4.278 1.06 8.539 2.807 11.065 6.617 1.484 2.238 2.258 4.815 3.459 7.196.236.471.853.088.775-.351" style="fill: rgb(35, 35, 35);"></path><path d="M201.142 179.562c.02-1.947-.554-3.896-1.281-5.694a22.6 22.6 0 0 0-2.885-5.14c-2.382-3.157-5.521-5.553-9.503-6.171-3.75-.582-7.603.209-10.947 1.962-3.346 1.755-6.155 4.437-8.486 7.379-2.51 3.167-4.83 6.705-6.352 10.459a26.85 26.85 0 0 0-1.945 10.736c.175 7.26 3.217 14.39 8.639 19.274 5.284 4.76 12.482 7.39 19.596 7.051a22 22 0 0 0 2.688-.307c1.001-.172.732-1.905-.286-1.781-3.292.399-6.567.284-9.79-.528a26.2 26.2 0 0 1-8.91-4.145c-5.439-3.927-8.98-10.064-9.864-16.698-.448-3.364-.267-6.796.612-10.076.981-3.66 2.913-6.969 5.02-10.088 3.882-5.746 9.38-11.127 16.673-11.597 3.611-.232 6.994.894 9.62 3.408 2.68 2.566 4.587 5.955 5.66 9.489.266.876.495 1.752.772 2.624.17.537.963.403.969-.157" style="fill: rgb(35, 35, 35);"></path><path d="M192.876 192.15c.528-2.01.096-4.204-.626-6.117-.762-2.017-1.869-3.842-3.245-5.497-1.366-1.642-3.203-3.272-5.285-3.89-2.275-.675-4.633.252-6.489 1.562-3.592 2.535-6.512 6.381-7.429 10.731-.948 4.494.222 9.378 3.673 12.532 1.702 1.555 3.786 2.583 6.106 2.711 1.901.105 4.583-.589 5.075-2.705.135-.581-.535-1.133-1.063-.777-.588.396-1.133.893-1.79 1.179-.662.288-1.391.368-2.106.346-1.591-.049-3.105-.726-4.335-1.712-3.046-2.441-4.417-6.371-3.891-10.207.53-3.865 2.753-7.237 5.677-9.741 1.441-1.234 3.279-2.487 5.262-2.385 1.909.098 3.597 1.609 4.88 2.894a16.3 16.3 0 0 1 3.461 5.108c.822 1.932 1.219 3.981 1.84 5.973.043.142.248.136.285-.005M221.281 152.001c-.899-.189-1.898.024-2.805.1a296 296 0 0 1-2.665.212q-2.85.209-5.709.238a95 95 0 0 1-11.291-.561c-.72-.079-1.117 1.035-.566 1.468.484.38 1.002.511 1.522.807.559.319 1.067-.438.646-.881-.366-.385-.563-.822-.994-1.159l-.566 1.468a88.2 88.2 0 0 0 16.997.205 57 57 0 0 0 2.904-.318c.881-.12 1.881-.173 2.681-.588.415-.216.287-.898-.154-.991M222.516 164.52c-.09.005-.488-.19-.672-.228-.179-.037-.363-.043-.544-.07-.378-.057-.736-.172-1.104-.267-.761-.196-1.524-.395-2.288-.582a74 74 0 0 0-4.764-1.003c-3.19-.563-6.421-.924-9.663-.945-1.036-.007-1.242 1.635-.202 1.834.84.161 1.658.233 2.427-.202.242-.137.219-.437.065-.621-.521-.62-1.27-.849-2.042-.983l-.202 1.834c3.291-.033 6.563.295 9.806.838 1.603.268 3.196.59 4.794.885.744.137 1.499.324 2.26.319a7.5 7.5 0 0 0 1.09-.085c.172-.027.334-.057.493-.129.233-.105.355-.366.584-.471.06-.029.025-.128-.038-.124M317.847 188.151c-.394 2.004.36 4.057.948 5.963a65 65 0 0 0 2.09 5.787 73 73 0 0 0 5.732 11.043l.558-1.476c-1.93.373-3.897.476-5.857.357-.632-.038-1.127.708-.926 1.28 1.579 4.491 3.161 8.981 4.738 13.473l1.193 3.398c.175.499.37.994.519 1.502.078.267.237.724.089.991-.108.195-.831-.17-1.123-.304-.757-.349-1.547-.706-2.402-.614-.801.086-1.142.808-.818 1.512 1.846 4.019 3.702 8.095 4.585 12.453.403 1.991.561 4.04.43 6.068-.064.998-.22 1.989-.458 2.96-.121.493-.277.974-.419 1.461-.173.596-.19 1.055-.129 1.667.036.36.447.677.792.429.475-.342.827-.638 1.07-1.184.242-.543.416-1.106.564-1.681a20 20 0 0 0 .535-3.266c.19-2.207.005-4.426-.4-6.6-.874-4.685-2.907-9.05-4.885-13.35l-.818 1.512c1.239-.133 2.245 1.073 3.53.961 1.854-.161 2.188-2.111 1.752-3.588-.581-1.969-1.362-3.899-2.043-5.836l-2.056-5.859-2.343-6.679-.926 1.28c2.146.132 4.274-.031 6.384-.437.638-.123.874-.979.558-1.476-2.151-3.395-4.038-6.958-5.585-10.669a80 80 0 0 1-2.116-5.663c-.614-1.855-.977-3.928-2.178-5.505-.155-.202-.527-.203-.585.09" style="fill: rgb(35, 35, 35);"></path><path d="M328.069 162.216c.836-.589 1.673-1.228 2.624-1.622a8 8 0 0 1 3.084-.605c2.247.001 4.353.926 6.001 2.431 3.882 3.543 5.154 9.321 5.259 14.368.115 5.523-1.102 11.064-2.94 16.25a52.8 52.8 0 0 1-6.75 12.993 46 46 0 0 1-5.331 6.21 42 42 0 0 1-2.994 2.669c-1.123.905-2.338 1.685-3.42 2.635-.331.291-.297.85-.041 1.166.297.366.743.393 1.148.2 1.198-.57 2.249-1.419 3.283-2.246a47 47 0 0 0 3.046-2.647 47 47 0 0 0 5.151-5.8c3.203-4.258 5.72-8.969 7.568-13.964 2.018-5.454 3.346-11.33 3.225-17.168-.114-5.49-1.537-11.564-5.616-15.51-1.981-1.917-4.512-3.076-7.285-3.108-2.385-.027-5.523.856-6.532 3.253-.13.308.185.73.52.495M199.203 152.91c.497-.118 1.024-.203 1.498-.39.54-.213 1.08-.503 1.591-.778q1.504-.81 3.013-1.613a513 513 0 0 1 6.065-3.161c4.01-2.063 8.08-4.014 12.256-5.72 4.192-1.712 8.484-3.181 12.888-4.248 4.625-1.12 9.334-1.812 14.057-2.356 9.446-1.087 18.957-1.741 28.469-1.623 9.473.118 18.942.999 28.205 3.028 4.128.904 8.256 2.052 11.478 4.93 2.883 2.574 4.888 5.947 6.671 9.334.457.868.9 1.742 1.342 2.618.577 1.144 2.268.092 1.694-1.047-1.8-3.571-3.66-7.143-6.261-10.209-1.28-1.509-2.751-2.845-4.411-3.925-1.851-1.204-3.939-2.02-6.049-2.642-4.521-1.333-9.255-2.111-13.919-2.743a149 149 0 0 0-14.485-1.228c-9.666-.356-19.354.171-28.969 1.173-4.865.507-9.734 1.093-14.534 2.05-4.572.912-9.053 2.28-13.413 3.922-8.665 3.263-16.835 7.643-24.88 12.19-.474.268-.95.557-1.398.867-.441.305-.807.738-1.188 1.114-.209.205.024.518.28.457" style="fill: rgb(35, 35, 35);"></path><path d="M225.829 139.202a65 65 0 0 0 3.081-3.778q1.417-1.875 2.905-3.695a128 128 0 0 1 6.357-7.199 125 125 0 0 1 14.256-12.846c10.094-7.771 21.354-14.029 33.327-18.387 6.811-2.479 13.916-4.524 21.146-5.25 3.965-.398 7.951-.329 11.922-.069 3.9.255 7.838.538 11.709 1.084 3.332.47 6.559 1.344 9.566 2.872a27.7 27.7 0 0 1 7.456 5.519c4.548 4.747 7.086 11.193 7.018 17.766-.073 7.06-3.583 13.361-7.691 18.895a64.5 64.5 0 0 1-14.338 14.08 66 66 0 0 1-4.136 2.712c-1.096.662-.053 2.359 1.047 1.695a66.4 66.4 0 0 0 15.911-13.421 65.6 65.6 0 0 0 6.175-8.413c1.928-3.128 3.57-6.502 4.386-10.102 1.554-6.853.207-14.29-3.529-20.227-3.445-5.474-8.81-9.589-14.875-11.767-3.506-1.259-7.214-1.704-10.906-2.022-4.05-.349-8.109-.702-12.176-.764-8.057-.121-15.909 1.452-23.57 3.856-12.552 3.938-24.479 9.875-35.211 17.481-10.677 7.568-20.213 16.758-28.033 27.258a32 32 0 0 0-2.609 4.125c-.263.498.421 1.041.812.597" style="fill: rgb(35, 35, 35);"></path><path d="M333.284 148.588c3.119-1.903 7.019-1.169 10.055.514 2.946 1.633 5.394 4.285 6.692 7.404.744 1.789 1.136 3.669 1.116 5.608l.968-1.018c-.933.127-1.796.004-2.629-.444-.953-.513-1.716.541-1.327 1.395 3.72 8.162 3.992 17.506 1.978 26.151-2.059 8.839-6.421 17.588-12.961 23.959a38.6 38.6 0 0 1-5.76 4.622 40 40 0 0 1-3.203 1.895c-1.126.597-2.288 1.102-3.392 1.738-.865.498-.225 1.811.703 1.561 2.212-.595 4.31-1.841 6.242-3.052a41.6 41.6 0 0 0 5.566-4.192c3.65-3.256 6.615-7.19 9.012-11.441 4.608-8.172 7.3-17.607 7.013-27.026-.16-5.274-1.311-10.461-3.507-15.262l-1.327 1.395c1.118.6 2.378.86 3.639.687.547-.075.963-.43.968-1.018.072-7.9-6.312-15.701-14.395-16.204-1.1-.068-2.267.062-3.314.417-1.076.365-1.885 1.015-2.49 1.976-.134.219.148.461.353.335" style="fill: rgb(35, 35, 35);"></path><path d="M324.72 174.2q.516.19.258.758c-.149.152.061.429.24.296.246-.182.537-.235.783-.426.281-.219.578-.404.872-.604.574-.391 1.199-.728 1.819-1.041 1.217-.614 2.775-1.21 4.16-1.057 2.585.285 3.739 3.355 4.223 5.526.662 2.97.327 6.096-.408 9.018-.628 2.499-1.52 5.033-3.054 7.132-.818 1.119-1.852 2.105-3.075 2.768-.59.32-1.256.544-1.926.601-.361.03-.708.027-1.065-.027-.373-.056-.749-.022-1.117-.1-.447-.094-.906.419-.61.836.481.678.977 1.088 1.818 1.222.821.131 1.645.037 2.439-.199 1.5-.446 2.84-1.396 3.929-2.501 2.134-2.165 3.387-5.07 4.235-7.947 1-3.395 1.473-6.988.887-10.5-.493-2.958-1.946-6.481-5.095-7.421-1.775-.53-3.767.107-5.367.901-.773.384-1.497.845-2.124 1.439a11 11 0 0 0-.961 1.003c-.11.133-.235.256-.332.4-.157.232-.165.477-.3.721l.355.14c.163-.445-.082-.948-.583-.945-.005-.001-.005.005-.001.007M192.798 149.413c.161-.568.41-1.137.42-1.727.012-.666.003-1.333.013-2 .02-1.295.044-2.589.098-3.883a91 91 0 0 1 .644-7.756c.64-4.984 1.73-9.931 3.392-14.677 2.929-8.361 7.778-16.166 14.537-21.961 7.21-6.182 16.315-9.572 25.291-12.273 4.954-1.49 9.978-2.817 15.106-3.555a78.3 78.3 0 0 1 14.389-.716c9.627.401 19.22 2.59 28.053 6.444q1.615.706 3.197 1.484c1.032.506 1.899-1.06.864-1.566-8.896-4.357-18.553-6.992-28.419-7.838-10.146-.87-20.182.359-29.972 3.073-9.414 2.609-19.049 5.801-27 11.646-7.362 5.412-12.845 13.043-16.335 21.439-3.944 9.488-5.47 19.938-5.334 30.176q.013.94.041 1.881c.018.64.295 1.219.504 1.822.086.248.439.243.511-.013" style="fill: rgb(35, 35, 35);"></path><path d="M238.464 83.618c-.364-.133-.263-.992-.258-1.285.009-.46.022-.922.053-1.382.062-.92.235-1.865.722-2.661.942-1.535 2.909-1.962 4.548-2.289 2.235-.446 4.476-.863 6.716-1.282 2.037-.381 4.341-.884 6.329-.031.825.354 1.579.95 1.993 1.762.228.447.31.95.374 1.443.079.608.059 1.328.578 1.736.403.318 1.038.314 1.302-.2.297-.58.1-1.179.006-1.794-.097-.635-.217-1.243-.487-1.829-.464-1.006-1.248-1.739-2.187-2.303-2.261-1.36-4.96-1.055-7.43-.573-2.736.533-5.491 1.036-8.208 1.653-2.088.474-4.247 1.37-5.152 3.464-.506 1.172-.628 2.466-.618 3.732.008 1.154.001 2.694 1.448 2.938.725.123.95-.85.271-1.099" style="fill: rgb(35, 35, 35);"></path><path d="M248.839 82.333c.426.184.573.143 1.028.054.524-.103 1.042-.131 1.574-.145.956-.024 1.895.015 2.824.263 1.797.48 3.413 1.591 4.97 2.575 1.412.893 2.793 1.853 3.975 3.042a10 10 0 0 1 1.463 1.837c.218.357.383.725.561 1.102.194.413.482.625.829.909.233.19.53.095.629-.183.173-.489.251-.875.071-1.378-.144-.401-.367-.801-.585-1.167-.47-.791-1.064-1.519-1.709-2.174-1.311-1.333-2.882-2.401-4.465-3.383-1.744-1.082-3.554-2.25-5.588-2.688-1.038-.223-2.144-.296-3.19-.094-.814.157-2.113.411-2.443 1.239-.025.065-.021.158.056.191M267.763 95.488l-.015-.041-.219.176a.4.4 0 0 0 .163.041q.102.024.036-.008l-.213-.117.035.028-.134-.218c.012.056.08.27.159.288q-.08-.291-.082-.144a.3.3 0 0 0 .007.105c.014.215.06.426.096.638.059.352.13.7.177 1.052q.076.579.109 1.162c.027.454.026 1.02.355 1.358l-.171-.278c.072.408.121.873.41 1.194.087.097.228.064.315-.008.341-.281.432-.807.508-1.216l-.157.286c.382-.397.299-1.159.255-1.677a18 18 0 0 0-.21-1.561c-.081-.458-.159-1.005-.431-1.396-.144-.207-.306-.311-.523-.409-.301-.137-.518-.035-.727.084-.201.114-.292.435-.148.628.07.094.107.183.216.236.115.057.283-.079.189-.203M236.185 84.973c-.178.052-.36.039-.534.105-.258.098-.477.293-.715.431-.434.252-.821.558-1.21.877q-1.264 1.043-2.499 2.12c-1.404 1.22-2.812 2.433-4.165 3.71-2.544 2.403-4.984 5.021-6.694 8.098-.461.829-.86 1.685-1.169 2.582-.332.964-.426 1.918-.478 2.933-.032.617.818.606 1 .111.292-.794.673-1.561 1.003-2.34a26 26 0 0 1 1.037-2.184c.786-1.463 1.746-2.825 2.806-4.102 2.212-2.665 4.809-4.978 7.355-7.313.832-.763 1.66-1.529 2.475-2.309.414-.396.845-.789 1.187-1.251.161-.217.35-.415.504-.636.16-.229.141-.393.248-.646.041-.099-.035-.22-.151-.186M216.103 112.909a26 26 0 0 0-2.585 5.693 60 60 0 0 0-1.58 6.152c-.836 4.14-1.18 8.409-1.115 12.629q.028 1.816.166 3.626.066.849.158 1.695c.065.603.062 1.293.459 1.783.274.338.889.464 1.112-.027.41-.904.058-2.079-.023-3.039a60.36 60.36 0 0 1-.087-9.295 63 63 0 0 1 2.082-12.297c.298-1.093.619-2.18.937-3.267.339-1.158.579-2.329.871-3.497.061-.24-.271-.363-.395-.156M203.726 222.774c-.754.591-1.031 1.435-1.272 2.337a18 18 0 0 0-.516 2.995 20.1 20.1 0 0 0 .314 5.852c.294 1.468.775 3.45 2.51 3.774.727.135 1.422-.13 2.042-.489.583-.338 1.172-.895 1.875-.933l-.838-.799c.532 4.234.796 8.546 1.605 12.739.655 3.396 2.321 7.132 5.841 8.317.829.279 1.251-.968.544-1.385-2.932-1.729-4.159-4.811-4.742-8.021-.339-1.871-.538-3.772-.786-5.657-.265-2.013-.569-4.02-.825-6.035-.055-.428-.359-.825-.838-.799-.66.037-1.237.279-1.798.616-.465.279-.981.762-1.536.841-1.223.174-1.477-2.442-1.604-3.203a19.5 19.5 0 0 1-.159-5.085c.082-.831.228-1.659.4-2.476.174-.829.388-1.585.213-2.43-.037-.167-.29-.269-.43-.159M216.746 197.331c-.759 0-.99 1.211-1.154 1.766a88 88 0 0 0-.766 2.768c-.485 1.854-.918 3.724-1.109 5.634-.135 1.354-.063 3.449 1.824 3.38.846-.031 1.563-.633 2.229-1.089l2.479-1.695-1.146-.434c.894 4.307-1.071 8.949.931 13.052.209.427.994.209.917-.273-.346-2.176-.301-4.386-.179-6.581.123-2.227.248-4.442-.19-6.646-.096-.485-.761-.692-1.146-.434l-1.994 1.338q-.498.335-.997.669c-.228.152-.589.485-.88.493-.745.019-.051-3.227.035-3.7.281-1.547.674-3.07 1.071-4.59.133-.514 1.221-3.659.075-3.658M213.498 284.146c-.122 1.079.053 2.014.354 3.054.317 1.095.623 2.191.887 3.3a48 48 0 0 1 1.104 6.835 47 47 0 0 1-.745 13.579 47 47 0 0 1-2.201 7.501c-.364.942.957 1.398 1.559.858.625-.562 1.694-.012 2.115.547.744.987.655 2.429.59 3.593a54.6 54.6 0 0 1-1.086 8.113 59.8 59.8 0 0 1-5.45 15.335 60 60 0 0 1-2.276 3.995c-.828 1.33-1.779 2.583-2.576 3.929-.526.89.763 1.845 1.461 1.072 1.054-1.167 1.899-2.534 2.73-3.865a59 59 0 0 0 2.231-3.897 61.6 61.6 0 0 0 3.647-8.477c1-2.898 1.769-5.876 2.304-8.895.264-1.486.465-2.982.626-4.483.158-1.479.346-3.01.246-4.499-.104-1.55-.639-3.117-2.02-3.968-1.237-.762-2.774-.758-3.874.232l1.559.858c3.385-8.786 4.074-18.611 1.955-27.786a41 41 0 0 0-1.04-3.712c-.419-1.265-.884-2.399-1.924-3.268-.055-.047-.167-.037-.176.049M264.291 294.215c-.693 2.186-.711 4.716-.618 6.99.096 2.354.421 4.703.868 7.014.911 4.705 2.43 9.266 4.152 13.731.992 2.57 2.054 5.113 3.124 7.651l.884-1.222-4.127-.291c-.589-.041-1.096.683-.884 1.223l4.972 12.722 2.441 6.245 1.266 3.238c.417 1.068.752 2.205 1.413 3.148.407.58 1.581.407 1.466-.436-.156-1.153-.634-2.184-1.056-3.263l-1.267-3.238-2.443-6.245-4.977-12.72-.884 1.223 4.127.289c.576.04 1.111-.684.884-1.222-3.619-8.578-7.367-17.468-8.074-26.856a55 55 0 0 1-.149-3.921c-.003-1.309.106-2.626.052-3.931-.029-.687-.97-.76-1.17-.129" style="fill: rgb(35, 35, 35);"></path><path d="M213.448 314.453c-7.018 3.13-13.754 7.319-19.851 11.992-5.891 4.514-11.257 9.898-14.808 16.476-7.919 14.667-4.501 32.44 4.305 45.9 4.632 7.079 10.978 12.854 15.51 20.004 1.11 1.751 2.11 3.579 2.902 5.497.855 2.07 1.505 4.218 2.355 6.291 1.47 3.583 3.736 7.177 7.498 8.658 8.35 3.288 13.952-6.501 20.417-9.663 1.707-.835 3.734-1.422 5.633-.98 1.789.416 3.113 1.653 3.954 3.247.871 1.65 1.234 3.574 1.489 5.405.322 2.313.568 4.639.843 6.958a2735 2735 0 0 1 6.468 60.189c.238 2.474.477 4.933.842 7.391.156 1.051 1.745 1.085 1.701-.042-.197-5.065-.819-10.117-1.319-15.161a2708 2708 0 0 0-4.777-44.496c-.564-4.874-1.085-9.759-1.735-14.622-.451-3.374-1.219-7.194-4.074-9.4-3.152-2.436-7.178-1.705-10.474.022-3.683 1.93-6.34 5.172-9.728 7.509-3.201 2.207-7.086 3.274-10.434.709-3.395-2.602-4.626-6.869-6.041-10.707-1.465-3.973-3.519-7.596-6.037-10.995-2.483-3.352-5.263-6.468-7.939-9.665-5.332-6.368-9.696-13.339-12.084-21.35-2.303-7.726-2.706-16.076-.242-23.816 4.723-14.841 18.542-23.904 31.227-31.48a96 96 0 0 0 4.772-3.045c.402-.274.123-1.047-.373-.826" style="fill: rgb(35, 35, 35);"></path><path d="M205.201 349.434a12.4 12.4 0 0 0-.425 4.068c.076 1.396.299 2.786.594 4.152.596 2.761 1.551 5.438 2.725 8.004 2.413 5.273 5.763 10.03 9.433 14.496 7.546 9.185 16.569 17.454 21.596 28.424 1.339 2.921 2.362 6.008 2.935 9.172.275 1.516.423 3.058.453 4.598.033 1.638-.192 3.253.028 4.88.073.542.852.88 1.142.28.644-1.333.75-2.68.78-4.145.03-1.45-.063-2.903-.252-4.341-.38-2.889-1.121-5.713-2.158-8.434-2.096-5.5-5.255-10.488-8.874-15.103-7.342-9.362-16.432-17.453-22.153-28.012-1.512-2.79-2.778-5.725-3.645-8.781-.863-3.04-1.15-6.18-1.773-9.265-.043-.218-.355-.18-.406.007M278.25 342.553c.624 2.53.277 5.225.091 7.788-.19 2.627.077 5.022 1.233 7.415 1.167 2.417 2.789 4.605 4.097 6.948a71 71 0 0 1 3.487 7.167c4.117 9.815 6.101 20.54 5.671 31.178-.24 5.937-1.161 11.819-1.993 17.694l-2.543 17.948c-1.585 11.187-3.455 22.389-4.182 33.674-.686 10.644-.219 21.603 3.315 31.759.46 1.323.997 2.438 1.805 3.582.412.584 1.229.176 1.101-.497-.118-.621-.183-1.269-.371-1.872-.216-.694-.489-1.377-.724-2.066a58 58 0 0 1-1.135-3.755 63 63 0 0 1-1.555-7.84c-.721-5.381-.838-10.829-.613-16.249.467-11.239 2.323-22.385 3.898-33.507l2.519-17.787c.836-5.905 1.784-11.811 2.257-17.759.855-10.756-.561-21.581-4.352-31.695a73.2 73.2 0 0 0-7.084-14.068c-1.445-2.233-3.024-4.495-3.329-7.21-.289-2.57.241-5.171-.069-7.732a7.66 7.66 0 0 0-1.186-3.271c-.116-.179-.388-.05-.338.155" style="fill: rgb(35, 35, 35);"></path><path d="M265.493 309.154c1.177.441 2.314.951 3.512 1.337 1.155.373 2.284.802 3.408 1.258 2.277.923 4.482 2.035 6.631 3.223 4.246 2.346 8.379 4.983 12.395 7.703 3.83 2.594 7.24 5.655 9.236 9.904 2.018 4.298 2.675 9.102 3.825 13.669a80.3 80.3 0 0 0 5.079 14.241c2.074 4.459 4.784 8.542 7.047 12.896 2.094 4.03 3.585 8.5 2.559 13.062-.966 4.296-3.714 7.96-6.836 10.961-3.401 3.269-7.424 5.795-11.217 8.57-1.959 1.433-3.881 2.934-5.646 4.604-1.68 1.59-3.34 3.379-4.198 5.563-.44 1.12-.515 2.114-.267 3.29.141.67 1.242.638 1.355-.033.794-4.75 4.871-8.012 8.494-10.763 3.89-2.954 8.071-5.535 11.739-8.776 3.383-2.989 6.347-6.613 7.903-10.894 1.627-4.475 1.077-9.197-.733-13.524-1.898-4.538-4.746-8.588-7.004-12.942a77.7 77.7 0 0 1-5.657-14.198c-1.358-4.697-2.024-9.598-3.69-14.204-.813-2.247-1.877-4.419-3.34-6.317-1.443-1.872-3.164-3.486-5.036-4.923-3.828-2.939-8.062-5.427-12.237-7.835-4.312-2.487-8.827-4.746-13.682-5.948-1.178-.291-2.389-.313-3.596-.307-.237-.001-.238.31-.044.383" style="fill: rgb(35, 35, 35);"></path><path d="M315.544 370.747c3.157 3.81 7.367 6.713 11.645 9.147a63 63 0 0 0 6.651 3.29c2.002.846 4.034 1.626 5.971 2.617 1.841.941 3.631 2.101 4.934 3.735 1.366 1.713 2.071 3.834 2.271 5.997.436 4.712-.894 9.387-1.353 14.048-1.089 11.06 1.684 22.006 3.483 32.838a180 180 0 0 1 2.368 33.102 178 178 0 0 1-1.085 16.442c-.51 4.494-1.116 9.014-3.286 13.052-.245.456-.421.944-.662 1.403-.269.51-.64.954-1.018 1.389-.433.497.238 1.091.724.69.828-.684 1.767-1.459 2.411-2.322.681-.912 1.158-1.937 1.57-2.991.819-2.097 1.303-4.3 1.649-6.519.836-5.362 1.262-10.818 1.52-16.236.538-11.289.02-22.627-1.552-33.819-1.562-11.126-4.659-22.183-4.352-33.496.136-5.015 1.452-9.89 1.636-14.894.083-2.26-.119-4.6-.948-6.722a12.54 12.54 0 0 0-4.002-5.334c-3.59-2.799-8.096-4.034-12.172-5.929a71 71 0 0 1-6.781-3.64c-2.159-1.307-4.193-2.787-6.273-4.21-1.012-.692-2.015-1.383-3.036-2.06-.274-.184-.488.21-.313.422" style="fill: rgb(35, 35, 35);"></path><path d="M347.077 397.203c1.047 1.561 2.103 3.079 3.265 4.557 1.172 1.491 2.384 2.951 3.583 4.421 2.365 2.901 4.687 5.844 6.897 8.864 4.388 5.996 8.367 12.367 11.184 19.263 3.123 7.645 4.442 15.742 5.48 23.89 1.099 8.632 1.934 17.302 2.32 25.997.191 4.301.273 8.607.222 12.912a199 199 0 0 1-.182 6.512c-.096 2.163-.256 4.333-.219 6.499.018 1.06.034 2.118.077 3.177.02.504.771.604.892.099 1.022-4.28 1.232-8.634 1.355-13.018s.102-8.772-.038-13.156c-.28-8.74-1.034-17.459-2.075-26.139-1.003-8.359-2.066-16.822-4.939-24.782-2.573-7.129-6.356-13.772-10.714-19.953a147 147 0 0 0-6.995-9.115c-2.407-2.901-4.839-5.836-7.549-8.461-.686-.665-1.426-1.277-2.138-1.915-.227-.203-.607.077-.426.348M142.462 405.137c-.004-1.666-.397-3.33-.54-4.991-.142-1.647-.172-3.307.02-4.952.387-3.326 1.59-6.487 3.826-9.011 2.369-2.674 5.44-4.698 8.355-6.721a160 160 0 0 1 9.574-6.181 171 171 0 0 1 8.337-4.636c.956-.497 1.974-.901 2.784-1.62.653-.579-.105-1.48-.815-1.325-.978.213-1.855.799-2.73 1.271q-1.28.689-2.548 1.399a169 169 0 0 0-5.123 2.988 185 185 0 0 0-9.95 6.459c-3.027 2.115-6.223 4.239-8.732 6.976-2.359 2.574-3.83 5.794-4.33 9.245a24.2 24.2 0 0 0-.123 5.738c.174 1.853.482 3.904 1.432 5.53.156.266.564.125.563-.169" style="fill: rgb(35, 35, 35);"></path><path d="M118.896 502.548c.746-7.711.696-15.483 1.349-23.207a192 192 0 0 1 3.34-22.946c1.593-7.633 3.738-15.117 6.268-22.49 1.291-3.762 2.662-7.495 4.048-11.222 1.186-3.19 2.333-6.403 3.727-9.51 1.336-2.978 2.91-5.898 5.025-8.401 2.033-2.406 4.725-4.861 7.978-5.27 3.174-.4 6.27 1.205 8.448 3.414 2.348 2.383 3.778 5.524 4.976 8.601 5.419 13.916 9.175 28.568 11.378 43.331a209 209 0 0 1 1.829 44.941c-.125 1.854-.249 3.696-.307 5.553-.029.946 1.525 1.14 1.676.185.605-3.828.778-7.716.93-11.586q.228-5.804.132-11.612a210 210 0 0 0-1.639-22.928c-1.94-15.299-5.533-30.387-10.772-44.893-2.325-6.439-5.037-13.846-12.05-16.399-3.281-1.195-6.697-.607-9.567 1.325-2.829 1.904-5.082 4.581-6.879 7.453-1.804 2.884-3.154 6.021-4.388 9.183-1.358 3.478-2.627 6.994-3.9 10.504-2.754 7.589-5.301 15.25-7.215 23.098-1.87 7.669-3.198 15.453-4.075 23.296-.884 7.903-1.463 15.904-1.165 23.858.072 1.927.251 3.82.515 5.73a.17.17 0 0 0 .338-.008M205.858 356.53c1.63 1.519 4.013 2.147 6.139 2.608 2.327.505 4.714.798 7.076 1.09 4.896.605 9.818.97 14.752 1.058a146.2 146.2 0 0 0 37.438-4.211 143 143 0 0 0 4.082-1.071c1.342-.373 2.767-.655 3.965-1.381.682-.413.365-1.554-.449-1.511-1.22.064-2.357.495-3.528.826q-1.748.494-3.509.943-3.522.898-7.084 1.618c-4.74.957-9.526 1.667-14.339 2.136-9.566.931-19.225.901-28.788-.048-2.671-.265-5.343-.592-7.99-1.04-1.209-.205-2.417-.438-3.596-.781-1.229-.358-2.393-.856-3.598-1.275-.596-.208-.996.643-.571 1.039M210.593 368.997c.707.98 1.486 1.738 2.465 2.445.928.67 1.924 1.266 2.962 1.748 2.158 1.003 4.446 1.707 6.769 2.213 4.91 1.07 10.009 1.438 15.026 1.469a90.8 90.8 0 0 0 30.213-5.002 91 91 0 0 0 13.856-6.159c.318-.175.634-.355.951-.532.118-.066.259-.109.371-.174l.177-.036q-1.263-1.157.369-.715c-.469-.611-1.538-.243-1.292.583.338 1.135 1.836.659 2.029-.313.119-.599-.221-1.11-.758-1.356-.718-.329-1.406.017-2.038.369-2.336 1.303-4.711 2.53-7.153 3.623a89 89 0 0 1-15.448 5.258c-10.56 2.55-21.596 3.148-32.366 1.704-2.783-.373-5.56-.926-8.208-1.878-2.63-.944-4.964-2.397-7.286-3.919-.395-.262-.915.289-.639.672M239.61 410c.818.624 1.741.373 2.504-.23.93-.734 1.727-1.71 2.552-2.561 1.723-1.778 3.445-3.557 5.158-5.345l10.274-10.728-1.466-.153c2.022 3.45 5.657 5.263 8.637 7.74 3.499 2.908 5.767 7.122 8.098 10.957a242 242 0 0 1 5.516 9.562c.422.772 1.27 1.932.588 2.769-.665.816-1.774 1.423-2.646 1.991-.954.621-1.946 1.236-2.981 1.715-.91.422-1.723.534-2.496-.179-.806-.744-1.486-1.641-2.225-2.45a101 101 0 0 0-11.651-10.886c-.441-.351-.974-.353-1.398.034l-3.684 3.363q-.854.779-1.707 1.558c-.554.507-1.126 1.029-1.46 1.715-.7 1.441-.012 2.86.691 4.14q1.138 2.07 2.246 4.155a298 298 0 0 1 8.408 17.155c2.615 5.802 5.139 11.69 7.291 17.682.053.146.279.581.205.756-.083.198-.484.334-.646.419-.708.368-1.425.722-2.137 1.082l-2.138 1.082c-.567.287-1.444.92-2.109.695-.543-.184-.955-.844-1.306-1.265a106 106 0 0 1-1.559-1.911 121 121 0 0 1-2.758-3.597 122 122 0 0 1-10.776-17.559c-.574-1.14-2.258-.092-1.687 1.043a122 122 0 0 0 9.844 16.275 117 117 0 0 0 5.862 7.533c1.082 1.273 2.399 1.857 4.029 1.201 1.541-.62 3.014-1.492 4.495-2.242 1.244-.63 2.904-1.21 2.855-2.886-.022-.758-.387-1.496-.651-2.192q-.44-1.159-.889-2.315a303.834 303.834 0 0 0-14.647-31.996c-.87-1.64-1.876-3.244-2.658-4.926-.305-.656-.426-1.217.049-1.813.55-.691 1.31-1.255 1.96-1.849l4.313-3.937-1.398.034a101 101 0 0 1 11.108 10.294c.826.89 1.603 1.827 2.437 2.709.776.821 1.744 1.439 2.91 1.427 1.221-.012 2.353-.653 3.391-1.229a32 32 0 0 0 3.109-1.97c.929-.666 2.028-1.366 2.456-2.478.459-1.194-.008-2.403-.566-3.473-1.216-2.329-2.548-4.608-3.875-6.875a244 244 0 0 0-4.113-6.768c-1.302-2.065-2.625-4.127-4.248-5.959-1.616-1.825-3.592-3.198-5.575-4.587-1.876-1.314-3.743-2.717-4.924-4.722-.306-.519-1.059-.579-1.466-.152l-9.309 9.767a1171 1171 0 0 0-4.601 4.849c-.764.811-1.532 1.619-2.291 2.434-.394.423-.78.852-1.175 1.274-.185.198-.651.835-.921.674-.693-.408-1.507.648-.849 1.149M229.3 392.957c1.049-.669 1.986-1.548 2.936-2.35.976-.824 1.954-1.647 2.924-2.478l2.815-2.412 1.407-1.206c.097-.083.403-.189.203-.22-.18-.029.004.098.013.135.071.274.516.636.698.859 1.604 1.974 3.285 3.893 4.852 5.896.25.319.616.751.675 1.17.061.439-.327.65-.658.844-.984.576-2.001 1.097-2.986 1.674a87 87 0 0 0-6.895 4.49c-.723.52-.542 1.531.282 1.814.858.294 1.784-.52 1.684-1.401-.076-.67-1.064-1.081-1.405-.344q.565-.113.204-.188l.282 1.814a87 87 0 0 1 7.093-4.616c1.092-.636 2.347-1.154 3.338-1.94 1.054-.835 1.28-2.102.722-3.303-.557-1.198-1.605-2.188-2.449-3.188-.962-1.139-1.918-2.283-2.888-3.415-.739-.863-1.714-2.448-3.076-1.92-.555.215-1.033.775-1.472 1.16l-1.673 1.463c-1.239 1.083-2.478 2.165-3.709 3.257-1.245 1.105-2.624 2.161-3.713 3.423-.457.532.164 1.385.796.982M268.471 386.137c-.286-.166-.629-.039-.79.25-.221.396-.087 1.001.09 1.382.355.764.978 1.482 1.476 2.162a80 80 0 0 0 1.544 2.039 593 593 0 0 0 6.453 8.115c.329.407.86.638 1.353.32a34.3 34.3 0 0 0 5.25-4.148c.691-.667 1.581-1.389 1.903-2.323.383-1.112-.188-2.13-.806-3.022a101 101 0 0 0-8.53-10.652c-.368-.402-1.042-.323-1.4.034a62 62 0 0 1-6.778 5.868c-1.009.752-.089 2.309 1.039 1.682a4.4 4.4 0 0 1 .897-.366c.599-.175.775-1.142.15-1.418-.74-.327-1.374-.289-2.086.102l1.039 1.682a66 66 0 0 0 7.174-6.184l-1.4.034a98 98 0 0 1 7.54 9.317c.268.376.538.752.796 1.135.194.287.579.741.497 1.124-.067.315-.478.607-.688.826q-.54.561-1.106 1.095a31.7 31.7 0 0 1-4.524 3.537l1.195.124q-2.7-3.309-5.389-6.627c-.869-1.072-1.732-2.148-2.622-3.202-.47-.556-.958-1.095-1.44-1.642-.125-.142-.97-.859-.798-1.003.078-.063.039-.195-.039-.241" style="fill: rgb(35, 35, 35);"></path><path d="M272.936 440.953c-.07.429.16.863.306 1.268.186.517.398 1.018.632 1.516.461.983.958 1.95 1.466 2.909a478 478 0 0 0 3.205 5.943c1.08 1.974 2.154 3.95 3.25 5.915l1.582 2.838c.562 1.008 1.068 2.094 1.724 3.043l.534-1.413.183.021c-.416-.459-1.109-.034-1.128.5-.018.53.284.999.76 1.225.66.315 1.738-.285 1.372-1.11-.47-1.06-1.105-2.058-1.673-3.069l-1.592-2.831c-1.102-1.96-2.223-3.908-3.34-5.859a546 546 0 0 0-3.385-5.832 73 73 0 0 0-1.697-2.767c-.322-.495-.668-.952-1.022-1.423-.269-.357-.523-.806-.942-.978-.089-.033-.217-.008-.235.104" style="fill: rgb(35, 35, 35);"></path><path d="m272.461 441.362.092.024c.108.138.273.282.468.254.997-.147 1.721-.725 2.412-1.435.699-.717 1.43-1.345 2.278-1.88a11.1 11.1 0 0 1 2.703-1.248c.434-.132.889-.189 1.32-.318.211-.063.189-.09.295.093.092.159.133.349.181.526.592 2.199 1.231 4.347 2.129 6.446a44 44 0 0 0 1.48 3.128c.491.938 1.009 2.106 2.217 2.151a.83.83 0 0 0 .724-.44l-.024.06c.288-.232.289-.594-.02-.809l.038.027.083.532c.104-.398-.114-.713-.353-1.004a6.4 6.4 0 0 1-.708-1.055 38 38 0 0 1-1.314-2.652 43 43 0 0 1-2.077-5.799c-.224-.794-.35-1.686-.872-2.352-.62-.79-1.555-.791-2.461-.608a12.1 12.1 0 0 0-4.866 2.19 13.3 13.3 0 0 0-2.158 2.057c-.296.355-.581.708-.911 1.032-.152.149-.364.291-.494.455-.09.114-.117.332-.197.384a.133.133 0 0 0 .035.241M250.25 492.457c1.276.798 3.066-.472 4.017-1.285 1.262-1.078 2.387-2.28 3.726-3.271 2.798-2.072 5.915-3.662 8.857-5.511 2.801-1.76 5.259-3.871 7.616-6.182 2.274-2.229 4.499-4.564 7.171-6.326.739-.488 1.51-.935 2.313-1.31.784-.366 1.944-.673 1.957-1.744.011-.972-1.162-1.634-1.899-.881-.543.555-.257 1.412.511 1.478.334.028.62-.331.609-.64l-.002-.061-.187.486q-1.113-.005-.612.161.261.109-.093-.061l-.256-.415.017.091-.013-.517c.04-.156.162-.147-.143-.009-.156.071-.314.135-.47.205q-.452.201-.894.423-.932.474-1.805 1.048c-1.162.759-2.25 1.631-3.293 2.545-2.047 1.794-3.907 3.785-5.891 5.647-2.121 1.991-4.432 3.649-6.922 5.149-2.503 1.508-5.075 2.909-7.403 4.685-1.304.994-2.459 2.109-3.616 3.265a17 17 0 0 1-1.674 1.479c-.542.414-1.192.609-1.697 1.062-.157.142-.081.391.076.489M257.36 500.718c.388 1.329 2.082.062 2.713-.354 1.067-.704 2.082-1.529 3.058-2.353 1.967-1.659 3.864-3.397 5.752-5.145 3.766-3.487 7.535-7.017 11.8-9.897a45 45 0 0 1 2.718-1.699c.282-.162.626-.276.884-.468.534-.397.712-1.234.161-1.699-.447-.378-1.259-.344-1.537.235-.171.357-.091.675.149.966l.036.044c.428.519 1.379.055 1.319-.585l-.005-.058-.379.7.036-.021-.623.097-.416-.428.073-.693c.176-.417.388-.236.103-.191-.095.015-.334.146-.383.17-.216.108-.423.238-.631.359q-.76.443-1.503.915c-.9.573-1.779 1.179-2.641 1.809-1.766 1.292-3.457 2.684-5.1 4.127-3.263 2.863-6.353 5.915-9.578 8.82-.901.812-1.82 1.603-2.727 2.407-.465.412-.949.803-1.415 1.213-.205.181-.403.372-.601.562-.154.148-.696.529-.517.706-.327-.321-.871.034-.746.461M281.326 503.996c.132-.718-.211-1.273-.581-1.866-.43-.69-.835-1.395-1.245-2.096a28.7 28.7 0 0 1-2.154-4.486 4 4 0 0 1-.099-.277l.003.139c.129-.16.333-.304.484-.44l1.015-.914c.676-.609 1.348-1.224 2.021-1.837l2.018-1.84 1.009-.92.55-.502c.176-.161.57-.299.148-.406l-.502-.367.023.048-.019-.775.17-.168.881.092-.049-.039c-.52-.418-1.394-.001-1.164.717l.019.058a.745.745 0 0 0 .712.515c.449.009.823-.319.943-.735.108-.374-.097-.799-.429-.985-1.042-.583-1.932.64-2.623 1.272l-2.382 2.176c-.825.753-1.652 1.504-2.472 2.262l-1.184 1.095c-.352.326-.73.627-.889 1.097-.287.847.323 1.829.659 2.583.423.948.884 1.877 1.394 2.78.477.844.998 1.638 1.586 2.408.532.697 1.039 1.493 1.991 1.545.072.004.153-.062.166-.134M171.062 429.022c.493.095.978.254 1.48.292.565.043 1.139-.013 1.701-.071a80 80 0 0 0 3.513-.427c1.11-.164 2.248-.287 3.34-.546a10 10 0 0 0 1.568-.502c.515-.219 1.06-.379 1.567-.62.188-.09.057-.332-.103-.347-.563-.051-1.131-.016-1.695-.052a10 10 0 0 0-1.695.058c-1.132.126-2.258.353-3.383.53-1.111.174-2.219.375-3.327.568-.553.096-1.122.19-1.651.382-.464.168-.883.441-1.329.65-.035.017-.023.078.014.085M170.63 425.281l-.288-.213.025.164c.028-.069.052-.124.051-.202-.001-.041-.081-.228-.053-.16.025.063-.048-.171-.057-.195-.053-.138-.142-.238-.237-.351l-.254 1.069c1.189-.281 2.326-.798 3.428-1.319q.817-.385 1.608-.819c.522-.286 1.129-.644 1.319-1.245.068-.216-.097-.502-.324-.54-.628-.104-1.225.264-1.753.556q-.764.424-1.551.804c-1.064.513-2.172.921-3.244 1.413-.516.237-.308 1.038.18 1.158.251.061.454.053.686-.063l-.327.051c.201.024.367.042.509-.13l-.163.025.323.164c.1.054.222-.093.122-.167M178.406 473.017c.552.378 1.136.851 1.701 1.296.598.472 1.158.983 1.727 1.488.587.521 1.191 1.033 1.882 1.411.193.106.403.223.614.285.249.072.266.063.523.126.418.103.829.141 1.253.054.513-.105.576-.905.119-1.124-.335-.161-.666-.243-.981-.417-.11-.06-.277-.194-.457-.298a8 8 0 0 1-.427-.271c-.221-.15-.462-.336-.758-.576a29 29 0 0 1-.883-.755c-.585-.513-1.17-1.056-1.833-1.468-.706-.439-1.445-.68-2.268-.615-.477.037-.587.608-.212.864M150.855 398.802c.134-.325.334-.598.486-.91.146-.299.26-.642.342-.963.168-.659.26-1.31.277-1.99a11 11 0 0 0-.165-2.027c-.06-.368-.13-.686-.291-1.017-.152-.312-.216-.646-.55-.815a.4.4 0 0 0-.536.155c-.167.303-.064.563-.052.886.013.358.077.688.139 1.044.105.595.148 1.203.176 1.806.028.613.04 1.237.021 1.851-.02.628.082 1.289-.049 1.902-.025.113.152.197.202.078M339.319 437.993c.867.5 1.832.85 2.833.951.962.097 1.933.102 2.883.297.745.153 1.475.402 2.111.828.275.185.536.415.736.68.277.366.435.824.948.912.298.051.532-.059.698-.305.551-.814-.531-1.878-1.128-2.338-.729-.56-1.575-.933-2.464-1.16-.967-.247-1.974-.298-2.966-.349-1.137-.059-2.3.065-3.431-.08-.325-.04-.539.38-.22.564M289.477 436.459c.632-.097 1.317-.031 1.957-.09.589-.054 1.176-.191 1.758-.291 1.349-.232 2.711-.38 4.072-.517 1.298-.131 2.592-.181 3.896-.21 1.33-.03 2.703.14 4.019-.065.605-.094.797-.948.125-1.131-1.298-.353-2.727-.245-4.06-.204-1.377.042-2.762.178-4.129.345-1.31.16-2.591.426-3.88.704-.68.147-1.406.291-2.048.561-.588.248-1.135.623-1.715.867-.014.007-.014.034.005.031M343.473 446.158c.773.175 1.345.673 2.037 1.008.677.328 1.359.641 2.011 1.019q.92.533 1.733 1.219c.289.244.553.514.838.761.162.14.33.275.523.366.086.041.189.089.281.111.143.036.298-.041.428.006.251.091.428-.191.384-.404q-.062.126.004-.028a.35.35 0 0 0 .043-.178.9.9 0 0 0-.055-.386c-.082-.257-.237-.455-.412-.654-.26-.297-.583-.551-.893-.794a13.5 13.5 0 0 0-2.125-1.377c-.718-.372-1.494-.7-2.289-.86-.813-.164-1.659.025-2.484-.018-.121-.005-.139.183-.024.209M341.336 399.382c.178.216.257.452.479.633.083.068.144.129.209.213.103.135.24.225.366.335.391.344.785.691 1.171 1.042.764.694 1.488 1.448 2.064 2.234.338.461.876 1.37 1.579.935.724-.448.104-1.353-.248-1.811-.663-.863-1.405-1.679-2.265-2.349-.502-.391-1.019-.746-1.596-1.012-.15-.069-.299-.166-.459-.21-.131-.036-.249-.042-.378-.091-.3-.114-.551-.053-.863-.067-.084-.005-.101.096-.059.148M335.932 491.938c1.227.393 2.365.74 3.668.764 1.327.025 2.63-.197 3.946-.321 1.301-.123 2.583-.34 3.891-.407 1.399-.071 2.774.064 4.168.079.776.008.936-1.24.152-1.378-2.544-.446-5.299-.124-7.816.336-1.309.239-2.556.563-3.897.619-1.313.055-2.726.129-4.027-.034-.221-.027-.305.271-.085.342M297.574 493.44c3.422 1.512 7.036.693 10.598.254a57 57 0 0 1 5.606-.423c1.91-.045 3.836-.064 5.733-.306.25-.032.312-.378.05-.454-3.531-1.026-7.466-.669-11.057-.163-1.825.257-3.632.668-5.467.84-1.796.169-3.624.128-5.421.085-.087-.003-.123.131-.042.167M206.743 478.134c.742.269 1.45.636 2.198.903.741.265 1.49.474 2.268.599 1.529.245 3.083.383 4.631.419 1.527.035 3.06-.051 4.576-.231.617-.073 1.245-.184 1.868-.146.61.038 1.111.383 1.716.262.171-.034.264-.219.272-.376.065-1.409-2.054-1.394-3.012-1.295-1.547.159-3.074.338-4.632.353a35 35 0 0 1-4.859-.265c-.751-.097-1.507-.211-2.263-.264-.878-.062-1.826-.077-2.687-.262-.201-.043-.261.236-.076.303M234.706 435.219c.223.207.562.202.849.23.415.04.837.028 1.254.056.828.057 1.645.202 2.456.375.782.166 1.533.414 2.263.739q.589.262 1.151.579c.402.226.755.492 1.237.474.393-.015.761-.434.604-.836-.328-.845-1.464-1.246-2.25-1.565a13.6 13.6 0 0 0-2.663-.771 9.8 9.8 0 0 0-2.675-.112c-.443.042-.895.09-1.325.208-.314.086-.759.212-.917.528-.014.032-.01.071.016.095M238.627 456.729c1.726.453 3.569.448 5.326.762.574.103 1.172.24 1.682.532.491.282.619.757 1.035 1.097.209.171.546.211.739-.018.616-.728.164-1.62-.505-2.139-.62-.481-1.393-.758-2.168-.853-.995-.122-2.003-.052-3.001.003-1.037.057-2.126.148-3.112.487-.061.022-.061.112.004.129M236.074 402.679c-.966-1.031-1.96-2.015-3.177-2.751-1.325-.802-2.744-1.15-4.289-1.199-1.571-.05-3.098.199-4.643.451-1.591.26-3.132.47-4.534 1.32-.268.163-.213.617.106.683 1.443.298 2.804.079 4.235-.181 1.46-.265 2.929-.575 4.411-.692 2.925-.231 5.351 1.089 7.831 2.451.052.028.099-.041.06-.082M297.826 378c-.429.124-.846.154-1.254.364-.389.201-.79.401-1.15.65a8.2 8.2 0 0 0-1.929 1.877 10.4 10.4 0 0 0-1.362 2.47c-.301.776-.738 1.959-.034 2.632a.42.42 0 0 0 .498.052c.167-.095.27-.22.381-.373l-.22.231c.402-.312.483-.744.629-1.206.111-.351.2-.707.33-1.053a9.5 9.5 0 0 1 1.067-2.012c.424-.619.927-1.175 1.436-1.723.261-.281.52-.55.825-.782.327-.248.588-.586.926-.81.164-.108.052-.374-.143-.317M199.19 324.026c.11.199.146.321.371.422.153.069.325.117.489.156.314.074.627.137.934.24a6.6 6.6 0 0 1 1.63.833 6 6 0 0 1 1.247 1.194c.186.246.359.498.533.752.104.152.224.223.343.353.173.188.268.301.527.372.155.042.313-.04.393-.171.204-.335.127-.914-.036-1.26a4.6 4.6 0 0 0-.547-.897 7.7 7.7 0 0 0-1.714-1.602 6.9 6.9 0 0 0-1.99-.938 5.3 5.3 0 0 0-1.127-.215 2 2 0 0 0-.557.043c-.28.064-.367.216-.501.437-.055.087-.042.195.005.281M178.606 378.002c.417-.14.615-.622.866-.954.319-.422.597-.885.893-1.324.581-.861 1.274-1.669 2.092-2.314a7.6 7.6 0 0 1 2.796-1.382 7 7 0 0 1 1.476-.205c.514-.022.947-.225 1.424-.376.162-.051.25-.296.098-.414-.412-.32-.851-.629-1.405-.654-.582-.026-1.215.104-1.777.246-1.17.295-2.289.889-3.232 1.636a10.9 10.9 0 0 0-2.368 2.617 7.5 7.5 0 0 0-.818 1.635c-.144.418-.379 1.024-.164 1.444.02.039.078.059.119.045M234.492 245.767c.44-.295.823-.674 1.234-1.008.469-.382.975-.738 1.473-1.081a22 22 0 0 1 3.108-1.783 17 17 0 0 1 3.3-1.145c1.142-.269 2.437-.193 3.504-.684.63-.29.342-1.201-.213-1.366-1.152-.344-2.641.184-3.753.523a19 19 0 0 0-3.481 1.448 14.9 14.9 0 0 0-2.968 2.081c-.875.799-1.875 1.759-2.373 2.854-.047.102.062.233.169.161M313.272 242.806c.838-.141 1.638.068 2.425.34.759.262 1.459.564 2.128 1.018a5.8 5.8 0 0 1 1.523 1.562c.23.342.416.705.612 1.067.103.19.199.439.357.59.127.121.263.218.398.348.159.153.499.139.593-.091.085-.208.171-.415.219-.608.065-.262-.041-.635-.123-.889a4.5 4.5 0 0 0-.676-1.268 7.5 7.5 0 0 0-2.161-1.945c-.803-.489-1.753-.833-2.695-.898-.909-.063-1.835.215-2.676.523-.165.057-.089.279.076.251M228.525 323.093c-.107 2.463.088 4.858.666 7.259a30 30 0 0 0 1.078 3.523c.361.961.73 2.036 1.346 2.869.545.737 1.344 1.243 2.29 1.133.961-.112 1.695-.82 2.235-1.571.679-.945 1.133-2.052 1.648-3.09.586-1.181 1.129-2.398 1.784-3.542l-1.454-.154c.297.988.724 1.947 1.095 2.91.373.966.73 1.943 1.141 2.894.705 1.632 2.064 2.557 3.865 2.103 1.718-.433 2.696-1.862 3.867-3.056.451-.46 1.163-1.159 1.874-1.028.442.082.777.471 1.06.792.885 1.005 1.705 2.318 3.148 2.528.645.094 1.039-.736.43-1.096-1.243-.735-1.717-2.296-2.795-3.229-1.618-1.401-3.496-.721-4.89.643-.694.679-1.252 1.521-2.019 2.122-.61.478-1.701.99-2.39.384-.327-.287-.493-.738-.655-1.132-.253-.614-.501-1.232-.754-1.846-.499-1.211-.951-2.467-1.544-3.635-.256-.504-1.146-.501-1.37.034-.447 1.065-1 2.092-1.508 3.129-.451.921-.873 1.864-1.363 2.765-.313.576-.793 1.414-1.488 1.582-.771.186-1.213-.775-1.475-1.329-1.753-3.702-2.689-7.906-2.973-11.981-.037-.551-.826-.527-.849.019M256.139 302.84c-.496 1.104-.654 2.227-.523 3.435.142 1.303.448 2.564.739 3.839.24 1.054.406 2.133.369 3.217-.036 1.049-.365 2.083-.6 3.098-.076.33.294.618.59.431 1.988-1.257 1.685-4.129 1.286-6.118-.518-2.588-1.678-5.095-1.393-7.787.027-.247-.37-.333-.468-.115" style="fill: rgb(35, 35, 35);"></path></g></svg>