<svg width="11" height="12" viewBox="0 0 11 12" fill="none" xmlns="http://www.w3.org/2000/svg">
<mask id="mask0_15876_108591" style="mask-type:luminance" maskUnits="userSpaceOnUse" x="0" y="0" width="11" height="12">
<path d="M0 0H11V12H0V0Z" fill="white"/>
</mask>
<g mask="url(#mask0_15876_108591)">
<path d="M0.417969 3.63223V8.33672C0.417964 8.48427 0.458154 8.62922 0.534497 8.75698C0.61084 8.88474 0.72064 8.9908 0.852848 9.06449L5.06651 11.4172C5.19863 11.4908 5.34842 11.5295 5.50088 11.5295C5.65334 11.5295 5.80313 11.4908 5.93525 11.4172L10.1489 9.06449C10.2811 8.99081 10.3909 8.88475 10.4672 8.75699C10.5436 8.62923 10.5838 8.48428 10.5838 8.33672V3.63223C10.5838 3.48467 10.5436 3.33972 10.4672 3.21196C10.3909 3.08419 10.2811 2.97813 10.1489 2.90445L5.93525 0.551718C5.80313 0.478166 5.65334 0.439453 5.50088 0.439453C5.34842 0.439453 5.19864 0.478166 5.06651 0.551718L0.851835 2.90445C0.719755 2.9782 0.610108 3.0843 0.53394 3.21207C0.457771 3.33984 0.417771 3.48475 0.417969 3.63223Z" fill="#213147"/>
<path d="M6.42565 6.9173L5.82475 8.51073C5.80842 8.555 5.80842 8.60336 5.82475 8.64763L6.85851 11.3894L8.05423 10.7217L6.61916 6.9173C6.58661 6.82963 6.45826 6.82963 6.42565 6.9173ZM7.63056 4.23763C7.59795 4.14996 7.4696 4.14996 7.43706 4.23763L6.83609 5.83106C6.81982 5.87534 6.81982 5.92368 6.83609 5.96796L8.52989 10.4568L9.72562 9.78904L7.63056 4.23763Z" fill="#12AAFF"/>
<path d="M5.5 0.74351C5.52951 0.74351 5.55908 0.75147 5.58554 0.765184L10.1454 3.31096C10.1714 3.32546 10.1929 3.34627 10.2079 3.37132C10.2229 3.39637 10.2309 3.42479 10.231 3.45374V8.54424C10.231 8.60339 10.1984 8.65751 10.1454 8.68708L5.58554 11.2329C5.55954 11.2473 5.53 11.2548 5.5 11.2545C5.47043 11.2545 5.44092 11.2466 5.41445 11.2329L0.854561 8.68904C0.828644 8.67454 0.807106 8.65373 0.792087 8.62868C0.777068 8.60363 0.769092 8.57522 0.768953 8.54627V3.45471C0.768953 3.39563 0.801562 3.34145 0.854561 3.31194L5.41445 0.766225C5.44041 0.751529 5.46992 0.743653 5.5 0.74351ZM5.5 1.62765e-07C5.33803 1.62765e-07 5.17511 0.0404084 5.02941 0.122143L0.470528 2.66688C0.327466 2.74669 0.208661 2.86152 0.126064 2.99982C0.0434658 3.13812 -1.30302e-05 3.29501 6.52945e-09 3.45471V8.54529C-1.94528e-05 8.70499 0.0434567 8.86188 0.126055 9.00018C0.208653 9.13848 0.327461 9.25331 0.470528 9.33312L5.03048 11.8788C5.17359 11.9586 5.33582 12.0007 5.50101 12.001C5.66298 12.001 5.8259 11.9606 5.97154 11.8788L10.5315 9.33312C10.6746 9.25331 10.7934 9.13848 10.876 9.00018C10.9586 8.86188 11.002 8.70499 11.002 8.54529V3.45471C11.002 3.29501 10.9586 3.13812 10.876 2.99982C10.7934 2.86152 10.6746 2.74669 10.5315 2.66688L5.97053 0.122143C5.82756 0.042042 5.66523 -9.55718e-05 5.5 1.62765e-07Z" fill="#9DCCED"/>
<path d="M2.48242 10.4478L2.90204 9.33691L3.74641 10.0155L2.95706 10.7127L2.48242 10.4478Z" fill="#213147"/>
<path d="M5.11667 3.08502H3.96064C3.87408 3.08502 3.79664 3.13719 3.76714 3.21604L1.28906 9.78464L2.48479 10.4524L5.21342 3.21886C5.23887 3.1539 5.18898 3.08502 5.11667 3.08502ZM7.13941 3.08502H5.98338C5.89683 3.08502 5.81939 3.13719 5.78988 3.21604L2.96045 10.7163L4.15617 11.384L7.23616 3.21892C7.24181 3.20386 7.24363 3.18772 7.24146 3.17184C7.2393 3.15596 7.23322 3.14082 7.22373 3.12769C7.21425 3.11456 7.20163 3.10383 7.18696 3.0964C7.17228 3.08898 7.15597 3.08507 7.13941 3.08502Z" fill="white"/>
</g>
</svg>

