<svg xmlns="http://www.w3.org/2000/svg" fill="none" viewBox="0 0 20 20" class="w-3.5"><rect width="19.999" height="20" x="-0.001" fill="#213147" rx="10"></rect><mask id="arb_svg__a" width="14" height="14" x="3" y="3" maskUnits="userSpaceOnUse" style="mask-type: luminance;"><path fill="#fff" d="M3.887 3.333H16.11v13.334H3.887z"></path></mask><g mask="url(#arb_svg__a)"><path fill="#213147" d="M4.352 7.373V12.6a.9.9 0 0 0 .13.467.95.95 0 0 0 .353.342l4.682 2.614a.99.99 0 0 0 .965 0l4.682-2.614a.95.95 0 0 0 .354-.342.9.9 0 0 0 .129-.467V7.373a.9.9 0 0 0-.13-.467.95.95 0 0 0-.353-.342L10.482 3.95a.99.99 0 0 0-.965 0L4.834 6.564a.95.95 0 0 0-.353.342.9.9 0 0 0-.129.467"></path><path fill="#12AAFF" d="m11.026 11.017-.668 1.77a.22.22 0 0 0 0 .152l1.148 3.047 1.329-.742-1.594-4.227c-.037-.098-.18-.098-.216 0m1.338-2.978c-.036-.097-.179-.097-.215 0l-.667 1.77a.22.22 0 0 0 0 .153l1.881 4.987 1.329-.742z"></path><path fill="#9DCCED" d="M9.998 4.16q.05 0 .095.024l5.067 2.828q.043.025.069.067a.2.2 0 0 1 .026.092v5.656a.18.18 0 0 1-.096.159l-5.066 2.828a.2.2 0 0 1-.095.024.2.2 0 0 1-.095-.024l-5.066-2.826a.2.2 0 0 1-.07-.067.2.2 0 0 1-.025-.092V7.172c0-.066.036-.126.095-.159l5.066-2.828a.2.2 0 0 1 .095-.026m0-.827c-.18 0-.36.045-.523.136L4.41 6.297c-.159.088-.291.216-.383.37a1 1 0 0 0-.14.505v5.656c0 .178.048.352.14.506.092.153.224.28.383.37l5.066 2.828a1.08 1.08 0 0 0 1.046 0l5.066-2.828c.16-.09.291-.217.383-.37a1 1 0 0 0 .14-.506V7.172a1 1 0 0 0-.14-.506 1.03 1.03 0 0 0-.383-.37L10.521 3.47a1.1 1.1 0 0 0-.523-.136"></path><path fill="#213147" d="m6.649 14.935.466-1.235.938.755-.877.774z"></path><path fill="#fff" d="M9.574 6.763H8.289a.23.23 0 0 0-.215.146l-2.753 7.298 1.328.742 3.032-8.037c.028-.072-.027-.149-.107-.149m2.247 0h-1.284a.23.23 0 0 0-.216.146l-3.143 8.333 1.328.742 3.422-9.072a.11.11 0 0 0-.013-.102.11.11 0 0 0-.094-.047"></path></g>

</svg>