<svg xmlns="http://www.w3.org/2000/svg" fill="none" viewBox="0 0 20 21" class="w-4"><g clip-path="url(#migrate_svg__a)"><path fill="#fff" d="M12.5 17.206a4.25 4.25 0 1 0 0-8.5 4.25 4.25 0 0 0 0 8.5"></path><path stroke="#6C6C6C" stroke-linecap="round" stroke-linejoin="round" stroke-width="1.35" d="M12.5 17.206a4.25 4.25 0 1 0 0-8.5 4.25 4.25 0 0 0 0 8.5M5.25 14.956l-1.5-1.75-1.5 1.75"></path><path stroke="#6C6C6C" stroke-linecap="round" stroke-linejoin="round" stroke-width="1.35" d="M7.25 17.706h-1a2.5 2.5 0 0 1-2.5-2.5v-1.75M14.75 5.956l1.5 1.75 1.5-1.75"></path><path stroke="#6C6C6C" stroke-linecap="round" stroke-linejoin="round" stroke-width="1.35" d="M12.75 3.206h1a2.5 2.5 0 0 1 2.5 2.5v1.75M11.416 6.3a4.251 4.251 0 1 0-5.571 5.572"></path></g><defs><clipPath id="migrate_svg__a"><rect width="100%" height="100%" fill="#fff" transform="translate(0 .456)"></rect></clipPath></defs>

</svg>