<svg xmlns="http://www.w3.org/2000/svg" fill="none" viewBox="0 0 41 42" class="w-4"><rect width="40.637" height="40.637" x="0.127" y="0.376" fill="url(#Berachain_svg__a)" rx="20.319"></rect><path fill="#2C1A17" d="M27.498 25.293v-1.66c1.026-.35 1.77-1.441 1.77-2.73 0-1.29-.744-2.381-1.77-2.73v-1.661c.96-.328 1.682-1.31 1.747-2.512h-1.157v.502c0 .394-.24.743-.59.896v-.197c0-.35-.306-.633-.677-.633h-.066c-.371 0-.677.284-.677.633v.24c-.35-.174-.59-.502-.59-.895v-.502H24.33c.088 1.18.787 2.184 1.748 2.512v1.66c-1.027.35-1.77 1.442-1.77 2.73 0 1.29.743 2.381 1.77 2.73v1.661c-.961.328-1.682 1.31-1.748 2.512h1.158v-.502c0-.394.24-.743.59-.896v.24c0 .35.306.634.677.634h.066c.371 0 .677-.284.677-.634v-.24c.35.175.59.502.59.896v.502h1.157c-.065-1.245-.786-2.228-1.747-2.556m-2.01-3.67v-1.441c0-.393.24-.743.59-.896v.24c0 .35.306.634.677.634h.066c.371 0 .677-.284.677-.634v-.24c.35.175.59.503.59.896v1.442c0 .393-.24.742-.59.895v-.24c0-.35-.306-.634-.677-.634h-.066c-.371 0-.677.284-.677.634v.24a.98.98 0 0 1-.59-.895M34.664 21.776v-1.769c1.026-.35 1.769-1.442 1.769-2.73 0-1.29-.743-2.381-1.77-2.73V14h-1.398v.546c-1.026.35-1.769 1.442-1.769 2.73 0 1.29.743 2.382 1.77 2.731v1.77c-1.027.349-1.77 1.441-1.77 2.73s.743 2.38 1.77 2.73v.547h1.398v-.547c1.026-.35 1.769-1.441 1.769-2.73s-.743-2.381-1.77-2.73m-1.988-3.757v-1.441c0-.394.24-.743.59-.896v.24c0 .35.305.634.677.634h.065c.371 0 .677-.284.677-.634v-.24c.35.175.59.502.59.896v1.441c0 .394-.24.743-.59.896v-.219c0-.35-.306-.633-.677-.633h-.065c-.372 0-.678.284-.678.633v.24a1.04 1.04 0 0 1-.59-.917m2.577 7.209c0 .393-.24.742-.59.895v-.35c0-.349-.305-.633-.677-.633h-.065c-.372 0-.677.284-.677.634v.35c-.35-.175-.59-.503-.59-.896v-1.442c0-.393.24-.743.59-.896v.131c0 .35.305.634.677.634h.065c.372 0 .678-.284.678-.634v-.13c.349.174.59.502.59.895zM19.416 19.504c-.022-.065-.022-.13-.066-.196 0-.022 2.207-2.862.175-4.61-2.031-1.747-4.39.525-4.412.547a7 7 0 0 0-1.136-.219c-.765-.109-1.857 0-1.857 0a5 5 0 0 0-1.114.197c-.022-.022-2.38-2.294-4.412-.546s.153 4.587.174 4.609l-.065.197c-.219 1.223-1.704 1.594-1.704 3.713 0 2.162 1.55 3.866 4.74 3.866h1.31s.503.677 1.552.721c0 0 .24.022.786 0 1.114 0 1.638-.699 1.638-.72h1.311c3.19 0 4.74-1.704 4.74-3.867.066-2.097-1.442-2.49-1.66-3.692"></path><defs><linearGradient id="Berachain_svg__a" x1="20.445" x2="20.445" y1="0.376" y2="41.013" gradientUnits="userSpaceOnUse"><stop stop-color="#EEAA54"></stop><stop offset="1" stop-color="#FD7108"></stop></linearGradient></defs></svg>