<svg width="23" height="10" viewBox="0 0 23 10" fill="none" xmlns="http://www.w3.org/2000/svg">
<path d="M16.4623 8.15457V6.95584C17.2135 6.70347 17.7569 5.91483 17.7569 4.98423C17.7569 4.05363 17.2135 3.26498 16.4623 3.01262V1.81388C17.1655 1.57729 17.6929 0.867508 17.7409 0H16.8938V0.362776C16.8938 0.646688 16.718 0.899054 16.4623 1.00946V0.867508C16.4623 0.615142 16.2386 0.410095 15.9669 0.410095H15.9189C15.6472 0.410095 15.4235 0.615142 15.4235 0.867508V1.04101C15.1678 0.914827 14.9919 0.678233 14.9919 0.394322V0.0315457H14.1449C14.2088 0.883281 14.7202 1.60883 15.4235 1.84543V3.04416C14.6723 3.29653 14.1289 4.08517 14.1289 5.01577C14.1289 5.94637 14.6723 6.73502 15.4235 6.98738V8.18612C14.7202 8.42271 14.1928 9.13249 14.1449 10H14.9919V9.63722C14.9919 9.35331 15.1678 9.10095 15.4235 8.99054V9.16404C15.4235 9.4164 15.6472 9.62145 15.9189 9.62145H15.9669C16.2386 9.62145 16.4623 9.4164 16.4623 9.16404V8.99054C16.718 9.11672 16.8938 9.35331 16.8938 9.63722V10H17.7409C17.6929 9.10095 17.1655 8.39117 16.4623 8.15457ZM14.9919 5.50473V4.46372C14.9919 4.17981 15.1678 3.92744 15.4235 3.81703V3.99054C15.4235 4.2429 15.6472 4.44795 15.9189 4.44795H15.9669C16.2386 4.44795 16.4623 4.2429 16.4623 3.99054V3.81703C16.718 3.94322 16.8938 4.17981 16.8938 4.46372V5.50473C16.8938 5.78864 16.718 6.04101 16.4623 6.15142V5.97792C16.4623 5.72555 16.2386 5.5205 15.9669 5.5205H15.9189C15.6472 5.5205 15.4235 5.72555 15.4235 5.97792V6.15142C15.1678 6.04101 14.9919 5.78864 14.9919 5.50473Z" fill="#2C1A17"/>
<path d="M21.7051 5.61514V4.33754C22.4563 4.08517 22.9997 3.29653 22.9997 2.36593C22.9997 1.43533 22.4563 0.646688 21.7051 0.394322V0H20.6823V0.394322C19.9311 0.646688 19.3877 1.43533 19.3877 2.36593C19.3877 3.29653 19.9311 4.08517 20.6823 4.33754V5.61514C19.9311 5.86751 19.3877 6.65615 19.3877 7.58675C19.3877 8.51735 19.9311 9.30599 20.6823 9.55836V9.95268H21.7051V9.55836C22.4563 9.30599 22.9997 8.51735 22.9997 7.58675C22.9997 6.65615 22.4563 5.86751 21.7051 5.61514ZM20.2507 2.90221V1.8612C20.2507 1.57729 20.4265 1.32492 20.6823 1.21451V1.38801C20.6823 1.64038 20.906 1.84543 21.1777 1.84543H21.2257C21.4974 1.84543 21.7211 1.64038 21.7211 1.38801V1.21451C21.9768 1.34069 22.1526 1.57729 22.1526 1.8612V2.90221C22.1526 3.18612 21.9768 3.43849 21.7211 3.5489V3.39117C21.7211 3.1388 21.4974 2.93375 21.2257 2.93375H21.1777C20.906 2.93375 20.6823 3.1388 20.6823 3.39117V3.56467C20.4265 3.43849 20.2507 3.18612 20.2507 2.90221ZM22.1366 8.10726C22.1366 8.39117 21.9608 8.64353 21.7051 8.75394V8.50158C21.7051 8.24921 21.4814 8.04416 21.2097 8.04416H21.1617C20.89 8.04416 20.6663 8.24921 20.6663 8.50158V8.75394C20.4106 8.62776 20.2348 8.39117 20.2348 8.10726V7.06625C20.2348 6.78233 20.4106 6.52997 20.6663 6.41956V6.5142C20.6663 6.76656 20.89 6.97161 21.1617 6.97161H21.2097C21.4814 6.97161 21.7051 6.76656 21.7051 6.5142V6.41956C21.9608 6.54574 22.1366 6.78233 22.1366 7.06625V8.10726Z" fill="#2C1A17"/>
<path d="M10.5483 3.98208C10.5323 3.93476 10.5323 3.88744 10.5003 3.84012C10.5003 3.82435 12.1146 1.77388 10.6282 0.512047C9.14185 -0.749782 7.41577 0.890596 7.39978 0.906369C7.12809 0.827505 6.84041 0.780186 6.56871 0.748641C6.00933 0.669776 5.21022 0.748641 5.21022 0.748641C4.93852 0.764413 4.66682 0.811732 4.39512 0.890596C4.37914 0.874823 2.65305 -0.765555 1.1667 0.496275C-0.319645 1.7581 1.27858 3.80858 1.29456 3.82435C1.27858 3.87167 1.2626 3.91899 1.24662 3.96631C1.08679 4.84959 0 5.11773 0 6.64769C0 8.20921 1.13474 9.43949 3.46815 9.43949H4.42709C4.42709 9.43949 4.79468 9.92845 5.56183 9.96C5.56183 9.96 5.73763 9.97577 6.13719 9.96C6.95228 9.96 7.33586 9.45527 7.33586 9.43949H8.29479C10.6282 9.43949 11.7629 8.20921 11.7629 6.64769C11.8109 5.1335 10.7081 4.84959 10.5483 3.98208Z" fill="#2C1A17"/>
</svg>

