<svg xmlns="http://www.w3.org/2000/svg" fill="none" viewBox="0 0 21 23" class="flex-shrink-0 w-4 h-4 group-hover:text-new-accent"><path fill="currentColor" fill-rule="evenodd" d="M1.374 23.001H.007Q.008 16.627 0 10.248C-.002 7.092 1.136 4.452 3.518 2.38 5.034 1.063 6.813.317 8.802.068l.025-.009c.07-.02.143-.022.216-.023a1 1 0 0 0 .192-.018.3.3 0 0 1 .085-.001q.03.004.06.002.034-.003.066-.01A.4.4 0 0 1 9.5.001h.754c.082.002.167.003.246 0q.064-.002.127 0H11c.375 0 .647.086.957.185q.153.05.328.1C16.041 1.334 18.47 3.73 19.55 7.49c.17.596.267 1.21.286 1.83.006.187.013.335.275.374a.54.54 0 0 1 .46.516q.099 1.316 0 2.631c-.025.33-.257.512-.583.555q-.15.016-.303.012h-5.829c-.687 0-.911-.217-.911-.906q0-.344-.002-.688c0-.458-.002-.917.002-1.375.003-.456.127-.639.559-.763.168-.048.154-.139.14-.237l-.007-.044c-.13-1.186-.715-2.114-1.703-2.738-2.193-1.383-5.003-.224-5.62 2.288a4 4 0 0 0-.106.938v13.111H4.837V10.111a8 8 0 0 1 .085-1.245c.388-2.4 2.76-4.315 5.18-4.175 2.666.154 4.642 2.038 4.92 4.703.019.195.06.265.272.265q1.466-.017 2.932 0c.208.002.27-.047.254-.263-.128-1.654-.64-3.177-1.653-4.492-2.064-2.683-4.795-3.87-8.147-3.398-2.855.403-4.951 1.98-6.327 4.517-.707 1.304-.979 2.719-.979 4.193V23m17.86-11.655v-.037c.005-.255-.088-.282-.305-.28q-1.442.007-2.883.004H15.03c-.723 0-.723 0-.727.708v.025c0 .213.047.289.275.284.53-.01 1.062-.009 1.593-.007l.625.002h1.715c.711 0 .711-.001.723-.699m-4.088 4.839q-.004-.405.002-.811c.013-.46.301-.755.702-.746.385.01.668.308.673.744q.014 1.234 0 2.468c-.006.441-.29.723-.686.723s-.672-.274-.682-.722c-.011-.293-.01-.587-.008-.88a42 42 0 0 0 0-.776m3.88 2.34q0 .249.002.496c0 .33.002.661-.002.992-.005.297-.11.554-.398.692a.66.66 0 0 1-.705-.069c-.228-.16-.287-.4-.289-.652-.006-.97-.01-1.939 0-2.908.005-.49.287-.796.693-.797.405 0 .687.31.698.792.008.326.006.656.003.985z" clip-rule="evenodd"></path></svg>