<svg xmlns="http://www.w3.org/2000/svg" fill="none" viewBox="0 0 25 25" class="w-4"><circle cx="12.25" cy="12.25" r="11.484" fill="#181818"></circle><circle cx="12.25" cy="12.25" r="11.484" fill="#000" fill-opacity="0.2"></circle><circle cx="12.25" cy="12.25" r="11.484" stroke="#212121" stroke-width="1.531"></circle><path fill="#fff" d="M7.984 10.012 5.86 8.932a7 7 0 0 0-.42 1.016l2.266.733q.112-.346.277-.669M9.796 8.109l1.175 2.025q.259-.15.547-.227l-.609-2.262q.233-.063.47-.1l-.373-2.353c-.362.057-.721.144-1.068.257l.726 2.228q-.346.114-.673.28L8.923 5.871c-.325.167-.64.36-.935.576l1.404 1.924a5 5 0 0 1 .404-.262M16.11 9.785l-2.024 1.176q.15.26.228.546l2.261-.61q.063.234.101.471l2.352-.375a7 7 0 0 0-.258-1.068l-2.227.728a4.6 4.6 0 0 0-.28-.673l2.084-1.07a7 7 0 0 0-.576-.933L15.848 9.38q.141.195.263.404M15.271 5.86a7 7 0 0 0-1.016-.42l-.732 2.267q.345.112.67.276zM14.431 8.065l-1.189 2.064q.26.149.472.361l3.335-3.346a7 7 0 0 0-.835-.711l-1.376 1.896a5 5 0 0 0-.407-.264M8.069 9.778l2.063 1.19q.15-.259.362-.473L7.149 7.16c-.258.258-.497.54-.711.834l1.895 1.377q-.142.195-.264.407M12.821 7.503l.36-2.316a7 7 0 0 0-1.082-.083h-.005v4.724h.005q.3 0 .586.076l.61-2.302a5 5 0 0 0-.474-.1M9.905 11.514l-2.301-.612a5 5 0 0 0-.1.475l-2.315-.361a7 7 0 0 0-.084 1.085H9.83q0-.301.076-.587M16.219 14.193l2.122 1.08c.166-.326.307-.668.42-1.016l-2.266-.733q-.112.345-.276.669M14.413 16.097l-1.175-2.026q-.259.15-.547.228l.609 2.261a5 5 0 0 1-.47.101l.373 2.352q.544-.086 1.068-.257l-.727-2.228q.348-.113.673-.28l1.069 2.086c.325-.167.64-.36.935-.576l-1.405-1.924q-.194.142-.403.263M8.113 14.418l2.025-1.176a2.3 2.3 0 0 1-.228-.547l-2.262.61a5 5 0 0 1-.1-.47l-2.353.374q.088.545.258 1.069l2.228-.729q.114.347.28.673l-2.085 1.07q.251.49.576.934l1.923-1.405a5 5 0 0 1-.262-.403M8.941 18.344a7 7 0 0 0 1.017.42l.731-2.267a4.6 4.6 0 0 1-.668-.276zM9.794 16.138l1.188-2.064q-.258-.149-.472-.361l-3.334 3.346c.258.258.54.497.835.711l1.375-1.896q.196.142.408.264M16.136 14.427l-2.063-1.19a2.3 2.3 0 0 1-.362.472l3.344 3.336a7 7 0 0 0 .712-.835l-1.896-1.376q.143-.197.265-.407M11.525 14.3l-.61 2.302q.233.062.474.099l-.36 2.315c.356.056.72.084 1.082.084h.005v-4.724h-.005q-.301 0-.586-.076M14.38 12.102q0 .3-.075.586l2.301.613q.063-.235.1-.475l2.315.361c.055-.357.084-.722.084-1.085z"></path></svg>