<svg xmlns="http://www.w3.org/2000/svg" fill="none" viewBox="0 0 16 16" class="w-4"><g clip-path="url(#Movement_svg__a)"><rect width="16" height="16" fill="#000" rx="8"></rect><path fill="#FFDA34" d="M11.457 7.707a.7.7 0 0 1-.232-.036l-.01-.003-.027-.009a1 1 0 0 1-.073-.033l-.009-.005a.756.756 0 0 1 .072-1.376l.013-.005a.4.4 0 0 1 .088-.028l.025-.004a1 1 0 0 1 .152-.015c.309 0 .567-.095.745-.276a.9.9 0 0 0 .25-.663v-.95h-1.885v.992c0 .247-.14.583-.396.67-.163.054-.366-.027-.54-.007a.955.955 0 0 0-.841.844c-.013.11-.005.192 0 .252a.3.3 0 0 1-.017.155.7.7 0 0 1-.277.341.8.8 0 0 1-.43.14h-.029a.8.8 0 0 1-.43-.14.7.7 0 0 1-.278-.341.3.3 0 0 1-.016-.155c.005-.06.012-.142 0-.252a.96.96 0 0 0-.842-.844c-.173-.02-.376.06-.539.006-.256-.085-.396-.422-.396-.669v-.991H3.649v.95a.9.9 0 0 0 .25.664c.179.18.436.275.745.275a1 1 0 0 1 .153.016l.024.004q.032.003.089.028l.012.005a.756.756 0 0 1 .072 1.376l-.009.004a.4.4 0 0 1-.073.034l-.027.008-.01.003a.8.8 0 0 1-.23.037c-.6-.002-1 .365-1 .912 0 .427.195.648.358.76.2.134.44.172.67.194l.016.001c.061.008.112.02.171.041l.029.011.005.002a.67.67 0 0 1 .366.304.8.8 0 0 1 .089.299l.01.128.008.103v.823H7.24v-.968a.94.94 0 0 0-.327-.719l-.007-.005c-.203-.176-.467-.18-.66-.184h-.001l-.09-.002-.029-.005-.062-.014-.058-.018-.063-.025a.8.8 0 0 1-.182-.115l-.012-.01a.777.777 0 0 1 .294-1.332c.16-.048.458-.05.602-.003a.67.67 0 0 1 .463.597q.001.034-.001.074c-.003.08-.007.191.04.33a.96.96 0 0 0 .904.65.96.96 0 0 0 .904-.65c.047-.139.042-.25.04-.33q-.003-.04-.001-.074a.67.67 0 0 1 .462-.597c.144-.046.442-.045.603.002a.785.785 0 0 1 .558.746.76.76 0 0 1-.264.586l-.013.01a.8.8 0 0 1-.182.116l-.062.025-.059.018-.061.014-.029.004-.09.002h-.002c-.193.004-.456.009-.659.184L9.19 9.6l-.037.033-.02.018a.94.94 0 0 0-.27.667v.969h1.871v-.822q.005-.055.008-.103l.01-.128a.8.8 0 0 1 .09-.299.67.67 0 0 1 .365-.304l.005-.002.029-.01a.7.7 0 0 1 .172-.042l.016-.002c.23-.021.47-.059.67-.194.163-.111.358-.332.358-.76 0-.547-.402-.914-1-.914"></path></g><defs><clipPath id="Movement_svg__a"><rect width="16" height="16" fill="#fff" rx="8"></rect></clipPath></defs></svg>