<svg xmlns="http://www.w3.org/2000/svg" fill="none" viewBox="0 0 24 25" className="w-5"><path stroke="#616161" stroke-linecap="round" stroke-linejoin="round" stroke-width="1.5" d="M12 22.375c5.523 0 10-4.477 10-10s-4.477-10-10-10-10 4.477-10 10 4.477 10 10 10"></path><path stroke="#616161" stroke-linecap="round" stroke-linejoin="round" stroke-width="1.5" d="M8.002 3.375h1a28.42 28.42 0 0 0 0 18h-1M15 3.375a28.42 28.42 0 0 1 0 18"></path><path stroke="#616161" stroke-linecap="round" stroke-linejoin="round" stroke-width="1.5" d="M3 16.375v-1a28.42 28.42 0 0 0 18 0v1M3 9.375a28.42 28.42 0 0 1 18 0"></path></svg>