<svg xmlns="http://www.w3.org/2000/svg" width="100%" height="100%" viewBox="0 0 129 48" fill="none"><path fill="darkred" fill-rule="evenodd" d="M24.059 47.81c7.083 0 13.447-3.082 17.824-7.977a5.67 5.67 0 0 0-7.272-.128l-.414.334a9.57 9.57 0 0 1-13.149-1.075 5.108 5.108 0 0 0-7.136-.476L9.137 42.58a23.804 23.804 0 0 0 14.922 5.228Zm7.75-11.576c3.78-3.05 9.095-2.941 12.73.005a23.793 23.793 0 0 0 3.424-12.334c0-5.015-1.544-9.669-4.182-13.512a5.66 5.66 0 0 0-4.944 1.3l-.398.354a9.57 9.57 0 0 1-13.184-.468 5.108 5.108 0 0 0-7.15-.146l-5.557 5.227-3.057-3.249 5.557-5.227a9.57 9.57 0 0 1 13.394.275 5.108 5.108 0 0 0 7.038.249l.399-.353a10.087 10.087 0 0 1 4.166-2.224A23.816 23.816 0 0 0 24.059 0C11.924 0 1.9 9.042.359 20.756a9.793 9.793 0 0 1 11.238 1.99 5.328 5.328 0 0 0 7.092.476l3.107-2.428a10.341 10.341 0 0 1 13.16.353l6.048 5.27-2.93 3.363-6.049-5.27a5.88 5.88 0 0 0-7.483-.2l-3.106 2.427a9.789 9.789 0 0 1-13.03-.875A5.328 5.328 0 0 0 .948 25.7l-.672.631a23.803 23.803 0 0 0 5.638 13.138l5.095-4.367a9.57 9.57 0 0 1 13.367.893 5.108 5.108 0 0 0 7.02.574l.413-.334Z" clip-rule="evenodd"></path><path fill="#000" d="M128.552 3.335a3.352 3.352 0 0 1-3.335 3.334 3.352 3.352 0 0 1-3.335-3.334A3.317 3.317 0 0 1 125.217 0a3.317 3.317 0 0 1 3.335 3.335ZM127.799 39.209h-5.056v-26.3h5.056v26.3ZM65.182 31.571c0 5.002 3.926 8.283 10.11 8.283 6.24 0 10.542-3.173 10.542-8.175 0-3.927-2.204-5.97-6.669-7.046l-4.625-1.13c-2.582-.645-3.872-1.828-3.872-3.603 0-2.42 1.774-3.819 4.948-3.819 3.065 0 4.84 1.668 4.948 4.303h4.84c-.107-5.002-3.872-8.229-9.627-8.229-5.809 0-9.896 3.066-9.896 7.906 0 3.873 2.205 6.186 6.884 7.315l4.626 1.076c2.742.699 3.603 1.774 3.603 3.55 0 2.42-2.044 3.872-5.594 3.872-3.334 0-5.378-1.614-5.378-4.303h-4.84Z"></path><path fill="#000" fill-rule="evenodd" d="M103.865 39.854c6.508 0 10.918-3.173 12.209-8.82h-4.733c-.86 3.011-3.442 4.625-7.369 4.625-5.001 0-7.905-3.066-8.282-8.606L116.02 27v-1.883c0-7.799-4.894-12.962-12.369-12.962-7.638 0-12.855 5.701-12.855 13.93 0 8.175 5.324 13.769 13.069 13.769Zm-.214-23.45c4.464 0 7.314 2.904 7.314 7.26H95.798c.645-4.625 3.442-7.26 7.853-7.26Z" clip-rule="evenodd"></path></svg>