<svg fill="none" height="651" viewBox="0 0 400 651" width="400" xmlns="http://www.w3.org/2000/svg" xmlns:xlink="http://www.w3.org/1999/xlink"><filter id="a" color-interpolation-filters="sRGB" filterUnits="userSpaceOnUse" height="308" width="288" x="48" y="384"><feFlood flood-opacity="0" result="BackgroundImageFix"/><feColorMatrix in="SourceAlpha" result="hardAlpha" type="matrix" values="0 0 0 0 0 0 0 0 0 0 0 0 0 0 0 0 0 0 127 0"/><feOffset dy="2.76726"/><feGaussianBlur stdDeviation="1.1069"/><feColorMatrix type="matrix" values="0 0 0 0 0 0 0 0 0 0 0 0 0 0 0 0 0 0 0.0196802 0"/><feBlend in2="BackgroundImageFix" mode="normal" result="effect1_dropShadow_6961_9195"/><feColorMatrix in="SourceAlpha" result="hardAlpha" type="matrix" values="0 0 0 0 0 0 0 0 0 0 0 0 0 0 0 0 0 0 127 0"/><feOffset dy="6.6501"/><feGaussianBlur stdDeviation="2.66004"/><feColorMatrix type="matrix" values="0 0 0 0 0 0 0 0 0 0 0 0 0 0 0 0 0 0 0.0282725 0"/><feBlend in2="effect1_dropShadow_6961_9195" mode="normal" result="effect2_dropShadow_6961_9195"/><feColorMatrix in="SourceAlpha" result="hardAlpha" type="matrix" values="0 0 0 0 0 0 0 0 0 0 0 0 0 0 0 0 0 0 127 0"/><feOffset dy="12.5216"/><feGaussianBlur stdDeviation="5.00862"/><feColorMatrix type="matrix" values="0 0 0 0 0 0 0 0 0 0 0 0 0 0 0 0 0 0 0.035 0"/><feBlend in2="effect2_dropShadow_6961_9195" mode="normal" result="effect3_dropShadow_6961_9195"/><feColorMatrix in="SourceAlpha" result="hardAlpha" type="matrix" values="0 0 0 0 0 0 0 0 0 0 0 0 0 0 0 0 0 0 127 0"/><feOffset dy="22.3363"/><feGaussianBlur stdDeviation="8.93452"/><feColorMatrix type="matrix" values="0 0 0 0 0 0 0 0 0 0 0 0 0 0 0 0 0 0 0.0417275 0"/><feBlend in2="effect3_dropShadow_6961_9195" mode="normal" result="effect4_dropShadow_6961_9195"/><feColorMatrix in="SourceAlpha" result="hardAlpha" type="matrix" values="0 0 0 0 0 0 0 0 0 0 0 0 0 0 0 0 0 0 127 0"/><feOffset dy="41.7776"/><feGaussianBlur stdDeviation="16.711"/><feColorMatrix type="matrix" values="0 0 0 0 0 0 0 0 0 0 0 0 0 0 0 0 0 0 0.0503198 0"/><feBlend in2="effect4_dropShadow_6961_9195" mode="normal" result="effect5_dropShadow_6961_9195"/><feColorMatrix in="SourceAlpha" result="hardAlpha" type="matrix" values="0 0 0 0 0 0 0 0 0 0 0 0 0 0 0 0 0 0 127 0"/><feOffset dy="100"/><feGaussianBlur stdDeviation="40"/><feColorMatrix type="matrix" values="0 0 0 0 0 0 0 0 0 0 0 0 0 0 0 0 0 0 0.07 0"/><feBlend in2="effect5_dropShadow_6961_9195" mode="normal" result="effect6_dropShadow_6961_9195"/><feBlend in="SourceGraphic" in2="effect6_dropShadow_6961_9195" mode="normal" result="shape"/></filter><path d="m128 256h128v128h-128z" fill="#f9f9f9" transform="matrix(-1 0 0 -1 256 512)"/><g fill="#fdfdfd"><path d="m256 128h128v128h-128z" transform="matrix(-1 0 0 -1 512 256)"/><path d="m384 640h128v128h-128z" transform="matrix(-1 0 0 -1 768 1280)"/><path d="m256 384h128v128h-128z" transform="matrix(-1 0 0 -1 512 768)"/><path d="m128 512h128v128h-128z" transform="matrix(-1 0 0 -1 256 1024)"/></g><g filter="url(#a)"><path d="m256 512h128v128h-128z" fill="#fff" transform="matrix(-1 0 0 -1 512 1024)"/></g><path d="m128 255h128v128h-128z" fill="#fdfdfd" transform="matrix(-1 0 0 -1 256 510)"/><path d="m272 256h16v16h-16z" fill="#111" transform="matrix(-1 0 0 -1 544 512)"/><path d="m400 128h16v16h-16z" fill="#fdfdfd" transform="matrix(-1 0 0 -1 800 256)"/><path d="m256 656h16v16h-16z" fill="#75fb6e" transform="matrix(-1 0 0 -1 512 1312)"/></svg>