<svg width="1em" height="1em" viewBox="0 0 24 24" fill="none" xmlns="http://www.w3.org/2000/svg"><path fill-rule="evenodd" clip-rule="evenodd" d="M5 4C5.55228 4 6 4.44772 6 5V14C6 16.2087 7.79128 18 10 18H13C13.5523 18 14 18.4477 14 19C14 19.5523 13.5523 20 13 20H10C6.68672 20 4 17.3133 4 14V5C4 4.44772 4.44772 4 5 4Z" fill="#fff"></path><path fill-rule="evenodd" clip-rule="evenodd" d="M10 5C10 4.44772 10.4477 4 11 4H14C17.3133 4 20 6.68672 20 10V19C20 19.5523 19.5523 20 19 20C18.4477 20 18 19.5523 18 19V10C18 7.79128 16.2087 6 14 6H11C10.4477 6 10 5.55228 10 5Z" fill="#fff"></path><path fill-rule="evenodd" clip-rule="evenodd" d="M4.29289 4.29289C4.68342 3.90237 5.31658 3.90237 5.70711 4.29289L8.20711 6.79289C8.59763 7.18342 8.59763 7.81658 8.20711 8.20711C7.81658 8.59763 7.18342 8.59763 6.79289 8.20711L5 6.41421L3.20711 8.20711C2.81658 8.59763 2.18342 8.59763 1.79289 8.20711C1.40237 7.81658 1.40237 7.18342 1.79289 6.79289L4.29289 4.29289Z" fill="#fff"></path><path fill-rule="evenodd" clip-rule="evenodd" d="M15.2929 15.2929C15.6834 14.9024 16.3166 14.9024 16.7071 15.2929L19 17.5858L21.2929 15.2929C21.6834 14.9024 22.3166 14.9024 22.7071 15.2929C23.0976 15.6834 23.0976 16.3166 22.7071 16.7071L19.7071 19.7071C19.3166 20.0976 18.6834 20.0976 18.2929 19.7071L15.2929 16.7071C14.9024 16.3166 14.9024 15.6834 15.2929 15.2929Z" fill="#fff"></path></svg>