<svg fill="none" height="28" viewBox="0 0 28 28" width="28" xmlns="http://www.w3.org/2000/svg" class="_2AdHOa_image"><rect fill="#fff" height="28" rx="14" width="28"></rect><g fill="#000"><path d="m10.3933 7.86631v-.04681l.2218-.19131h3.4192v-1.62819h-3.4192l-.5047.47421v.6757l-.24018.19131h-.03663c.19331.17299.36841.35413.55971.52509z"></path><path d="m9.92109 7.32886h-.6757l-.45996.48642v.64923l.45996.48439h.6757l.48441-.48439v-.64923z"></path><path d="m12.1593 17.5557h-.6757l-.4599.4864v.6492l.4599.4844h.6757l.4844-.4844v-.6492z"></path><path d="m18.7256 19.6177h-.6777l-.4579.4844v.6492l.4579.4864h.6777l.4844-.4864v-.6492z"></path><path d="m9.30999 8.37036-.48438.05495-.14247.18114-.67163.07734-1.62614 2.06171.07734.6716-.19132.23.05088.4192.52306-.061.14654-.171.67162-.0773 1.60987-2.05967-.07734-.66348.16893-.19742z"></path><path d="m6.30254 16.4608.48642.055.14246.1811.6696.0773 1.62818 2.0617-.07937.6717.19131.232-.04885.4172-.52508-.0611-.14654-.1709-.66959-.0774-1.60987-2.0596.07734-.6635-.17096-.1974z"></path><path d="m10.5157 18.1138.35-.5638 1.9335.0021.3521.5617v.4966l-.3521.5719-1.9233-.0102-.348-.5678z"></path><path d="m14.7402 18.1138.3521-.5638 1.9314.0021.3521.5617v.4966l-.3521.5719-1.9233-.0102-.3459-.5678z"></path><path d="m6.65612 11.3022-.35006.3399-.00407.23-.48439.4722-.03867 3.8445.47218.4865-.01018.2991.29308.3013.37855-.3664.01221-.2239.48438-.4721.02443-3.8344-.46404-.4783.01425-.2605z"></path><path d="m17.6023 7.86631v-.04681l-.2218-.19131h-3.4192v-1.62819h3.4151l.5088.47421v.6757l.2402.19131h.0366c-.1934.17299-.3684.35413-.5597.52509z"></path><path d="m18.0744 7.32886h.6757l.4599.48642v.64923l-.4599.48439h-.6757l-.4844-.48439v-.64923z"></path><path d="m15.8352 17.5557h.6757l.46.4864v.6492l-.46.4844h-.6757l-.4844-.4844v-.6492z"></path><path d="m18.6848 8.37036.4865.05495.1424.18114.6696.07734 1.6282 2.06171-.0794.6716.1913.23-.0488.4192-.5231-.061-.1485-.171-.6717-.0773-1.6078-2.05967.0773-.66348-.1709-.19742z"></path><path d="m21.6931 16.4608-.4844.055-.1424.1811-.6717.0773-1.6261 2.0617.0773.6717-.1201.1099-.0203.5393.5047-.055.1649-.177.6716-.0774 1.6099-2.0596-.0774-.6635.169-.1974z"></path><path d="m21.3386 11.3022.3501.3399.0041.23.4864.4722.0366 3.8445-.4701.4865.0102.2991-.2931.3013-.3786-.3664-.0142-.2239-.4844-.4721-.0244-3.8344.464-.4783-.0142-.2605z"></path><path d="m9.90556 19.6177h-.6757l-.45996.4844v.6492l.45996.4864h.6757l.48434-.4864v-.6492z"></path><path d="m9.25422 25.6914h.67774l.45794.4864v.6493l-.45794.4843h-.67774l-.48438-.4843v-.6493z"></path><path d="m9.22927 25.4877-.4742-.4783.02034-3.0182.45997-.458-.00611-.2951.36431-.3622.31139.3622.02442.2809.47621.4783-.0346 3.006-.43957.4844v.4131h-.70419z"></path><path d="m8.79364 27.9926v5.7007l.47625.4579h.67569l.45992-.4579.0041-5.7129-.47012-.4681-.00814-.2015h-.67774v.1852z"></path><path d="m18.7116 25.6914h-.6757l-.4599.4864v.6493l.4599.4843h.6757l.4844-.4843v-.6493z"></path><path d="m18.7355 25.4877.4763-.4783-.0204-3.0182-.462-.458.0082-.2951-.3664-.3622-.3093.3622-.0244.2809-.4763.4783.0326 3.006.4416.4844-.002.4131h.7042z"></path><path d="m19.1735 27.9926v5.7007l-.4763.4579h-.6756l-.46-.4579-.0061-5.7129.4722-.4681.0081-.2015h.6757v.1852z"></path><path d="m12.967 23.4646h-.6757l-.4599.4864v.6493l.4599.4843h.6757l.4844-.4843v-.6493z"></path><path d="m12.2916 29.3359-.4742-.4803.0204-3.0182.4599-.4559-.0061-.2972.3643-.3623.3114.3623.0244.2809.4763.4803-.0346 3.004-.4396.4864v.4132h-.7042z"></path><path d="m15.6731 23.4646h-.6757l-.4599.4864v.6493l.4599.4843h.6757l.4844-.4843v-.6493z"></path><path d="m14.9989 29.3359-.4762-.4803.0204-3.0182.462-.4559-.0082-.2972.3664-.3623.3093.3623.0244.2809.4763.4803-.0326 3.004-.4416.4864.002.4132h-.7042z"></path></g></svg>