<svg fill="none" height="4" viewBox="0 0 8 4" width="8" xmlns="http://www.w3.org/2000/svg" class="_2AdHOa_arrowDown"><path d="m7.73599.755008c0-.368-.304-.6719999-.672-.6719999-.176 0-.352.0799999-.464.2079999l-1.232 1.248002c-.128.112-.208.288-.208.464 0 .32-.256.592-.56.592h-1.232c-.32 0-.576-.272-.576-.592 0-.176-.064-.352-.192-.464l-1.232-1.248002c-.112-.128-.288-.2080002-.463995-.2080002-.368 0-.672.3040002-.672.6720002 0 .192.079999.352002.191999.480002l1.231996 1.232v.016l1.232 1.248c.128.112.288.192.48.192h1.232c.176 0 .352-.08.464-.192l2.46401-2.496c.12799-.128.20799-.288002.20799-.480002z" fill="#000"></path></svg>