<svg fill="none" height="1em" viewBox="0 0 16 16" width="1em" xmlns="http://www.w3.org/2000/svg"><g stroke="currentColor" stroke-linecap="round" stroke-linejoin="round" stroke-width="1.5"><path d="m11.0633 8.74996c-.138.00066-.2493.11266-.2493.25066s.112.25.25.24934c.138 0 .25-.112.25-.25s-.112-.25-.2507-.25"></path><path d="m2 3.33337v9.00003c0 .7366.59667 1.3333 1.33333 1.3333h9.33337c.7366 0 1.3333-.5967 1.3333-1.3333v-6.66669c0-.73667-.5967-1.33334-1.3333-1.33334h-9.6667c-.552 0-1-.448-1-1 0-.552.448-1 1-1h8.3333"></path></g></svg>