<svg width="1em" height="1em" viewBox="0 0 32 32" fill="none" xmlns="http://www.w3.org/2000/svg" class="_405aoq_icon"><path d="M6.44013 21.0809V17.1724L5.91939 16.6169H5.18649L4.97434 16.3907V15.6089L5.18649 15.3827H5.91939L6.44013 14.8272V10.9187L6.65229 10.6924H7.38518L7.90593 10.1369V9.35523L7.38518 8.7998H6.65229L6.13154 9.35523V10.1369L5.91939 10.3632H5.18649L4.66575 10.9187V14.8272L4.45359 15.0535H3.72069L3.19995 15.6089V16.3907L3.72069 16.9461H4.45359L4.66575 17.1724V21.0809L5.18649 21.6364H5.91939L6.13154 21.8627V22.6444L6.65229 23.1998H7.38518L7.90593 22.6444V21.8627L7.38518 21.3072H6.65229L6.44013 21.0809Z" fill="currentColor"></path><path d="M17.0993 15.3827H17.8322L18.3529 14.8272V14.0455L18.5651 13.8192H19.298L19.8187 13.2638V10.9187L19.298 10.3632H18.5651L18.3529 10.1369V9.35523L17.8322 8.7998H14.1677L13.6469 9.35523V10.1369L13.4348 10.3632H12.7019L12.1812 10.9187V11.7004L12.7019 12.2558H13.4348L13.9555 11.7004V10.9187L14.1677 10.6924H17.8322L18.0443 10.9187V13.2638L17.8322 13.4901H17.0993L16.5785 14.0455V14.8272L16.3664 15.0535H15.6335L15.1127 15.6089V19.5175L15.6335 20.0729H16.3664L16.8871 19.5175V15.6089L17.0993 15.3827ZM15.1127 21.8627V22.6444L15.6335 23.1998H16.3664L16.8871 22.6444V21.8627L16.3664 21.3072H15.6335L15.1127 21.8627Z" fill="currentColor"></path><path d="M26.0805 21.6364H26.8134L27.3342 21.0809V17.1724L27.5463 16.9461H28.2792L28.8 16.3907V15.6089L28.2792 15.0535H27.5463L27.3342 14.8272V10.9187L26.8134 10.3632H26.0805L25.8684 10.1369V9.35523L25.3476 8.7998H24.6147L24.094 9.35523V10.1369L24.6147 10.6924H25.3476L25.5598 10.9187V14.8272L26.0805 15.3827H26.8134L27.0256 15.6089V16.3907L26.8134 16.6169H26.0805L25.5598 17.1724V21.0809L25.3476 21.3072H24.6147L24.094 21.8627V22.6444L24.6147 23.1998H25.3476L25.8684 22.6444V21.8627L26.0805 21.6364Z" fill="currentColor"></path></svg>