<svg width="40" height="40" viewBox="0 0 40 40" fill="none" xmlns="http://www.w3.org/2000/svg">
<rect width="40" height="40" rx="6" fill="black"/>
<path d="M32.9665 19.1186C32.4799 11.9548 26.2789 6.54427 19.1173 7.0309C15.5497 7.274 12.4167 8.93582 10.2302 11.4253L10.2237 11.421C10.2081 11.4409 10.1946 11.4608 10.1812 11.4808C8.00978 13.9858 6.78779 17.3142 7.03045 20.8827C7.05299 21.2233 7.09285 21.557 7.14182 21.888C7.14182 21.9041 7.14615 21.9171 7.14832 21.9327C7.18168 22.1506 7.21982 22.369 7.26185 22.5827C7.30169 22.7801 7.34619 22.9766 7.39532 23.172C8.89724 29.1589 14.5058 33.399 20.8818 32.9652C28.0435 32.4782 33.4562 26.2777 32.9691 19.1143L32.9665 19.1186ZM30.1369 19.3119C30.1971 20.1933 30.1412 21.0565 29.9835 21.8885C29.9835 21.8841 29.9791 21.8798 29.9791 21.875C29.0354 19.5723 27.1712 17.9083 25.5336 16.9892C25.8651 13.0871 24.5413 11.4409 23.042 11.174C22.7514 11.1194 22.4528 11.1248 22.1645 11.1898C21.8761 11.2548 21.6041 11.3781 21.3651 11.5521C21.1261 11.726 20.9253 11.947 20.7748 12.2015C20.6243 12.4559 20.5274 12.7384 20.4901 13.0317C20.4536 13.3145 20.4732 13.6018 20.5479 13.8771C20.6225 14.1523 20.7508 14.4102 20.9252 14.6358C21.0997 14.8615 21.3169 15.0505 21.5645 15.1921C21.8121 15.3337 22.0852 15.425 22.3682 15.4609C22.4726 15.4743 22.5749 15.4787 22.6749 15.4765C22.6822 15.6158 22.686 15.7552 22.6862 15.8947C21.3 15.5523 20.0052 15.483 18.824 15.59C18.3797 15.6191 17.9377 15.6749 17.5001 15.7569C17.6475 14.4395 18.1432 12.958 19.1021 11.8768C20.0295 10.829 21.4092 10.2306 22.9128 10.384C23.198 10.413 23.5026 10.4841 23.776 10.5755C23.7895 10.5799 23.8029 10.5842 23.8142 10.5864C27.2981 12.006 29.8634 15.314 30.1347 19.3119H30.1369ZM21.0755 21.2965C21.0755 21.2965 21.0755 21.2987 21.0734 21.3009C20.7447 21.7732 20.3722 22.2136 19.961 22.616C19.3381 21.9581 18.8108 21.2159 18.3945 20.4112C18.3746 20.3688 18.3525 20.3311 18.3321 20.2886V20.2843C18.0882 19.7628 17.893 19.2198 17.7493 18.6623C18.6723 18.4444 19.5779 18.3642 20.4437 18.4067L20.5815 18.4132H20.5859C21.1288 18.4578 21.6939 18.5579 22.2789 18.7182C22.0073 19.6313 21.6025 20.4994 21.0777 21.2944L21.0755 21.2965ZM16.6348 10.4109L16.6283 10.4195C15.1043 12.3864 14.5968 14.8313 14.6194 16.7089C11.073 18.3729 10.3121 20.3419 10.8282 21.7745C10.8412 21.8148 10.8572 21.8525 10.8728 21.8906C11.0951 22.4218 11.5193 22.8429 12.052 23.0615C12.5847 23.2801 13.1824 23.2782 13.7137 23.0563C14.2448 22.8339 14.6659 22.4098 14.8845 21.8771C15.1031 21.3444 15.1012 20.7467 14.8794 20.2154C14.839 20.121 14.7922 20.0295 14.7394 19.9415C14.8508 19.8679 14.9708 19.7951 15.0999 19.7192C15.4956 21.092 16.081 22.2512 16.7639 23.221C17.0109 23.588 17.2778 23.9416 17.569 24.2822C16.3544 24.8139 14.8239 25.1254 13.4065 24.836C12.0363 24.556 10.8282 23.6617 10.2076 22.2819C10.0887 22.0114 9.99926 21.7288 9.94069 21.4391C9.9041 21.1903 9.87664 20.9403 9.85836 20.6894C9.54203 16.0329 12.4302 11.8881 16.6348 10.4109ZM20.6881 30.1378C17.9231 30.3267 15.3378 29.3838 13.3844 27.7059C15.8496 28.0422 18.2212 27.2587 19.8366 26.3002C23.0511 28.5405 25.138 28.2155 26.1212 27.052C26.3138 26.8275 26.4586 26.5659 26.5464 26.2834C26.6343 26.0009 26.6635 25.7034 26.6323 25.4092C26.601 25.115 26.51 24.8303 26.3647 24.5726C26.2195 24.3148 26.0231 24.0895 25.7876 23.9104C25.5607 23.7374 25.302 23.6109 25.0262 23.538C24.7505 23.4651 24.463 23.4472 24.1804 23.4855C23.8977 23.5237 23.6254 23.6173 23.3788 23.7608C23.1324 23.9044 22.9166 24.0951 22.7438 24.322C22.6819 24.4044 22.626 24.4936 22.577 24.5825C22.4592 24.5222 22.3344 24.4555 22.2078 24.3823C23.1136 23.4478 23.8558 22.3678 24.4035 21.1873C24.5996 20.7878 24.7719 20.377 24.9196 19.9571C25.9878 20.7449 27.0243 21.9127 27.4827 23.2851C27.9256 24.6111 27.7562 26.1061 26.8709 27.3324C26.696 27.5703 26.4961 27.7888 26.2746 27.9841L26.2659 27.9928C24.6661 29.2529 22.7227 29.9998 20.6907 30.1356L20.6881 30.1378Z" fill="url(#paint0_linear_19788_57669)"/>
<path style="mix-blend-mode:overlay" opacity="0.9" d="M23.0421 11.1718C22.7982 11.1255 22.5481 11.1226 22.3032 11.1632C23.5473 11.8391 24.4525 13.7237 23.9767 17.4434C23.8192 18.6531 23.4637 19.8287 22.9246 20.923C22.46 21.9217 21.8553 22.8489 21.1289 23.6768C21.4733 23.9359 21.8337 24.1729 22.2079 24.3866C23.1137 23.4524 23.8561 22.3725 24.404 21.1921C24.9444 20.0983 25.2999 18.9225 25.4561 17.7125C26.0238 13.2851 24.6311 11.4565 23.0425 11.1736L23.0421 11.1718Z" fill="url(#paint1_radial_19788_57669)"/>
<g style="mix-blend-mode:overlay" opacity="0.8">
<path d="M23.9764 17.4408C24.4527 13.7229 23.547 11.8366 22.3034 11.1602C22.2544 11.1667 22.208 11.1779 22.1586 11.1892C23.3759 11.8899 24.252 13.7718 23.7827 17.4408C23.6252 18.6506 23.2698 19.8261 22.7306 20.9205C22.2828 21.8838 21.7041 22.7806 21.0107 23.5854C21.0506 23.6166 21.0887 23.6457 21.1286 23.6743C21.8544 22.8458 22.4589 21.9185 22.9239 20.92C23.4645 19.8262 23.8201 18.6509 23.9764 17.4408Z" fill="white"/>
</g>
<path style="mix-blend-mode:overlay" opacity="0.5" d="M19.2483 25.8747C19.1304 25.7858 19.0191 25.6922 18.906 25.5986C17.0704 26.3643 14.5272 26.8445 12 26.2573C12.4115 26.7844 12.8743 27.2695 13.3815 27.7055C15.8467 28.0417 18.2183 27.2583 19.8337 26.2998C19.6352 26.1611 19.4393 26.0186 19.2461 25.8725L19.2483 25.8747Z" fill="url(#paint2_radial_19788_57669)"/>
<path style="mix-blend-mode:overlay" opacity="0.6" d="M18.9077 25.599C18.8523 25.5522 18.7946 25.5058 18.7413 25.459C16.8923 26.1974 14.3361 26.6402 11.8154 26.0106C11.8778 26.0929 11.9402 26.1774 12.0022 26.2576C14.5276 26.8448 17.0721 26.3646 18.9077 25.599Z" fill="url(#paint3_linear_19788_57669)"/>
<path style="mix-blend-mode:overlay" opacity="0.9" d="M10.8302 21.7767C10.8432 21.8166 10.8592 21.8547 10.8748 21.8924C10.9571 22.0883 11.0637 22.2638 11.1929 22.4219C11.1573 21.0071 12.3364 19.2781 15.7935 17.8321C16.9199 17.3637 18.1157 17.084 19.333 17.0045C20.4305 16.9066 21.5363 16.9666 22.6167 17.1826C22.6726 16.7154 22.6947 16.2795 22.6904 15.8943C21.4285 15.5766 20.1221 15.4736 18.826 15.5896C17.6086 15.6694 16.4126 15.949 15.2861 16.4173C11.1686 18.1394 10.2807 20.2596 10.8306 21.7789L10.8302 21.7767Z" fill="url(#paint4_radial_19788_57669)"/>
<g style="mix-blend-mode:overlay" opacity="0.8">
<path d="M15.7929 17.8343C12.3358 19.2808 11.1562 21.0093 11.1922 22.4242C11.2234 22.4619 11.2568 22.4978 11.2901 22.5334C11.2875 21.1294 12.4801 19.4299 15.8908 18.0012C17.0171 17.5327 18.213 17.2531 19.4302 17.1735C20.4884 17.0799 21.5544 17.1324 22.5983 17.3295C22.6053 17.2807 22.6112 17.2317 22.6161 17.1826C21.5354 16.9679 20.4298 16.9081 19.3323 17.0049C18.115 17.0847 16.9193 17.3644 15.7929 17.8326V17.8343Z" fill="white"/>
</g>
<path style="mix-blend-mode:overlay" opacity="0.4" d="M25.4603 17.7098C25.443 17.8567 25.4183 17.9989 25.3936 18.1436C26.973 19.3495 28.6617 21.3138 29.4183 23.7942C29.6683 23.1735 29.8569 22.5299 29.9812 21.8724C29.04 19.5697 27.1758 17.9074 25.5383 16.9888C25.5184 17.2228 25.4937 17.4607 25.4625 17.7098H25.4603Z" fill="url(#paint5_radial_19788_57669)"/>
<path style="mix-blend-mode:overlay" opacity="0.5" d="M25.3936 18.1436C25.3802 18.2146 25.3689 18.2883 25.3555 18.3594C26.9198 19.5917 28.5816 21.5833 29.2957 24.0815C29.3378 23.9861 29.3781 23.8899 29.4158 23.7946C28.6596 21.3138 26.9731 19.3517 25.391 18.1436H25.3936Z" fill="url(#paint6_linear_19788_57669)"/>
<path style="mix-blend-mode:overlay" opacity="0.9" d="M26.121 27.0495C26.2818 26.8601 26.4096 26.645 26.4993 26.4133C25.2912 27.1517 23.206 26.994 20.223 24.7221C19.2532 23.9813 18.4128 23.0852 17.7356 22.0701C17.1021 21.1689 16.6008 20.1815 16.2472 19.1382C15.8156 19.3228 15.4264 19.523 15.0928 19.7188C15.4494 20.9704 16.0133 22.1533 16.7611 23.2184C17.4284 24.2151 18.2604 25.1164 19.2484 25.8704C22.7991 28.5757 25.0797 28.284 26.1184 27.049L26.121 27.0495Z" fill="url(#paint7_radial_19788_57669)"/>
<g style="mix-blend-mode:overlay" opacity="0.8">
<path d="M20.2246 24.7223C23.2055 26.9934 25.2924 27.1515 26.5001 26.4127C26.5178 26.3664 26.5334 26.3196 26.5469 26.2749C25.3323 26.9804 23.2631 26.7953 20.3221 24.5555C19.3524 23.8147 18.512 22.9187 17.8348 21.9035C17.2246 21.0342 16.7373 20.085 16.3866 19.0825C16.3398 19.1025 16.2956 19.1202 16.251 19.1402C16.6045 20.1836 17.1056 21.1711 17.739 22.0725C18.4064 23.0691 19.2383 23.9705 20.2263 24.7245L20.2246 24.7223Z" fill="white"/>
</g>
<path style="mix-blend-mode:overlay" opacity="0.3" d="M15.284 16.4132C15.4197 16.3573 15.5553 16.3062 15.6931 16.2551C15.947 14.2839 16.8033 11.839 18.5747 9.9458C17.9117 10.0411 17.2596 10.1971 16.6278 10.4173C15.1033 12.3842 14.5963 14.829 14.6189 16.707C14.8299 16.6074 15.0505 16.509 15.2819 16.4137L15.284 16.4132Z" fill="url(#paint8_radial_19788_57669)"/>
<path style="mix-blend-mode:overlay" opacity="0.4" d="M15.6934 16.2548C15.7627 16.2306 15.8294 16.2037 15.8983 16.1794C16.183 14.2078 17.0774 11.7742 18.8818 9.90527C18.7795 9.91654 18.6768 9.92997 18.5746 9.94341C16.8035 11.8388 15.9473 14.2815 15.6938 16.2527V16.2548H15.6934Z" fill="url(#paint9_linear_19788_57669)"/>
<path style="mix-blend-mode:multiply" opacity="0.4" d="M19.1172 7.03126C15.5487 7.27392 12.4166 8.93574 10.2296 11.4252L10.1807 11.4807C10.6053 11.9036 11.998 12.7356 12.5609 13.0827C13.6826 11.8743 15.0817 10.9572 16.6373 10.4108C16.7465 10.2682 16.8617 10.1283 16.9822 9.99263C18.4503 8.33515 20.4549 7.46069 22.7819 7.46069C23.0401 7.46069 23.5675 7.50315 23.5783 7.50315C22.1304 7.08663 20.6207 6.92677 19.1176 7.03082L19.1172 7.03126Z" fill="url(#paint10_linear_19788_57669)"/>
<path style="mix-blend-mode:multiply" opacity="0.4" d="M20.6883 30.1399C17.9232 30.3288 15.338 29.3859 13.3845 27.7085C13.2011 27.6845 13.0186 27.654 12.8373 27.617C10.668 27.1742 8.90609 25.875 7.74477 23.8618C7.6169 23.6393 7.50033 23.4105 7.39551 23.1763C8.89743 29.1631 14.506 33.4037 20.8798 32.9695C20.9089 32.3134 20.7152 30.7899 20.6861 30.1399H20.6883Z" fill="url(#paint11_linear_19788_57669)"/>
<path style="mix-blend-mode:multiply" opacity="0.4" d="M32.9666 19.1184C32.5662 19.0781 30.617 19.232 30.1369 19.3117C30.1967 20.1931 30.1413 21.0563 29.9831 21.8883C30.0498 22.0529 30.1144 22.2219 30.172 22.3931C30.8731 24.4934 30.6283 26.667 29.467 28.6824C29.3385 28.9045 29.1989 29.12 29.0488 29.3281C29.0488 29.3281 29.0553 29.3233 29.0575 29.319C31.6986 26.7494 33.2357 23.083 32.9666 19.1206V19.1184Z" fill="url(#paint12_linear_19788_57669)"/>
<path style="mix-blend-mode:multiply" opacity="0.5" d="M22.9157 10.3818C23.2004 10.4108 23.505 10.4819 23.7789 10.5733C23.7919 10.5776 23.8058 10.582 23.8166 10.5841C24.9326 11.0396 25.9592 11.6889 26.849 12.5021C26.849 12.5021 26.8534 12.5042 26.8555 12.5064C27.2828 12.0193 28.1035 11.4833 28.1035 11.4833C28.1035 11.4833 26.8469 10.1972 24.9225 9.79677C23.5765 9.5164 20.5398 9.24731 18.624 12.5064L18.6418 12.4891C18.7844 12.275 18.9334 12.0661 19.1046 11.8746C20.0323 10.8268 21.4116 10.2279 22.9157 10.3818Z" fill="url(#paint13_linear_19788_57669)"/>
<path style="mix-blend-mode:multiply" opacity="0.5" d="M26.8715 27.3341C26.6966 27.572 26.4967 27.7906 26.2752 27.9859C26.2665 27.9945 26.2553 28.0036 26.2462 28.0127C25.2937 28.7509 24.2182 29.3149 23.0694 29.6789C23.0673 29.6789 23.0651 29.6789 23.0625 29.6811C23.2718 30.2951 23.3251 31.274 23.3251 31.274C23.3251 31.274 25.0671 30.8294 26.3757 29.363C27.2901 28.3373 29.0429 25.8413 27.1783 22.5532C27.1783 22.5532 27.1809 22.5641 27.1852 22.5775C27.3009 22.8072 27.4053 23.0425 27.4855 23.2851C27.9284 24.6111 27.7589 26.1061 26.8736 27.332L26.8715 27.3341Z" fill="url(#paint14_linear_19788_57669)"/>
<path style="mix-blend-mode:multiply" opacity="0.5" d="M10.212 22.2867C10.093 22.016 10.0034 21.7333 9.94468 21.4434C9.94252 21.4304 9.93818 21.4166 9.93602 21.4031C9.77135 20.2041 9.82465 18.9895 10.0807 17.8195V17.8126C9.44419 17.6878 8.57016 17.2432 8.57016 17.2432C8.57016 17.2432 8.08484 18.9765 8.70146 20.8407C9.13306 22.1463 10.4166 24.9118 14.1961 24.9408C14.1961 24.9408 14.1852 24.9382 14.1718 24.9339C13.9161 24.9183 13.6605 24.8919 13.4091 24.8407C12.0385 24.5604 10.8304 23.666 10.2094 22.2867H10.212Z" fill="url(#paint15_linear_19788_57669)"/>
<path style="mix-blend-mode:multiply" opacity="0.6" d="M22.3682 15.4591C22.4726 15.4721 22.5749 15.4764 22.675 15.4742C22.675 15.4742 22.6061 14.124 22.4414 13.4298C22.2746 12.7377 22.0298 12.2771 21.7628 12.0171C21.5696 11.8304 20.962 11.5985 20.4906 13.0268C20.454 13.3097 20.4735 13.5969 20.5482 13.8722C20.6228 14.1475 20.751 14.4054 20.9254 14.6311C21.0998 14.8568 21.317 15.0459 21.5646 15.1875C21.8121 15.3291 22.0852 15.4205 22.3682 15.4565V15.4586V15.4591Z" fill="url(#paint16_linear_19788_57669)"/>
<path style="mix-blend-mode:multiply" opacity="0.5" d="M14.8822 20.2197C14.8416 20.1255 14.7947 20.0341 14.7418 19.9463C14.7418 19.9463 13.6047 20.6803 13.0886 21.1696C12.5725 21.6592 12.2965 22.1021 12.2055 22.4644C12.1409 22.7248 12.2432 23.3657 13.7161 23.0606C14.2472 22.8383 14.6683 22.4141 14.8869 21.8815C15.1055 21.3488 15.1036 20.7511 14.8817 20.2197H14.8822Z" fill="url(#paint17_linear_19788_57669)"/>
<path style="mix-blend-mode:multiply" opacity="0.6" d="M22.7469 24.3196C22.6845 24.402 22.629 24.4912 22.5801 24.5796C22.5801 24.5796 23.7839 25.1963 24.4668 25.3986C25.1497 25.6014 25.6701 25.6192 26.0285 25.5165C26.2868 25.4433 26.7894 25.0316 25.7902 23.9106C25.5634 23.7377 25.3047 23.6112 25.029 23.5384C24.7533 23.4655 24.4659 23.4477 24.1833 23.4859C23.9007 23.5241 23.6283 23.6177 23.3819 23.7612C23.1354 23.9047 22.9197 24.0953 22.7469 24.3222V24.3196Z" fill="url(#paint18_linear_19788_57669)"/>
<path style="mix-blend-mode:multiply" opacity="0.3" d="M22.2796 18.7202C22.0066 19.628 21.6235 20.4535 21.1542 21.1807C21.1295 21.2184 21.1053 21.2565 21.0784 21.2964C21.0784 21.2964 21.0784 21.2985 21.0762 21.3007C20.7475 21.773 20.3751 22.2134 19.9639 22.6158C20.262 22.9317 20.5822 23.2385 20.9363 23.5302C21.3383 23.8464 21.7636 24.1319 22.2085 24.3843C23.1144 23.45 23.8568 22.3701 24.4046 21.1898C24.6006 20.7901 24.7728 20.3791 24.9203 19.9591C24.4623 19.6233 23.9995 19.3542 23.5726 19.1717C23.1519 18.9914 22.7191 18.8406 22.2774 18.7202H22.28H22.2796Z" fill="url(#paint19_linear_19788_57669)"/>
<path style="mix-blend-mode:multiply" opacity="0.3" d="M13.3848 27.7082C15.8495 28.044 18.2211 27.261 19.8366 26.302C19.6381 26.1633 19.4421 26.0209 19.249 25.8747C18.6346 25.4048 18.0711 24.8717 17.5676 24.2844C16.3526 24.8157 14.8221 25.1272 13.4047 24.8378C12.0345 24.5579 10.8264 23.6635 10.2054 22.2842C10.0865 22.0134 9.99702 21.7307 9.93848 21.4409C10.2968 23.9547 11.5647 26.1482 13.3826 27.7077L13.3848 27.7082Z" fill="url(#paint20_linear_19788_57669)"/>
<path style="mix-blend-mode:multiply" opacity="0.3" d="M19.9636 22.6154C19.3409 21.9575 18.8138 21.2155 18.3976 20.411C18.3776 20.3686 18.3551 20.3309 18.3352 20.2884V20.2841C18.0912 19.7626 17.8961 19.2196 17.7523 18.6621C17.3294 18.7622 16.9048 18.887 16.4775 19.0473C16.0032 19.2369 15.5436 19.4614 15.1025 19.719C15.4986 21.0918 16.0836 22.2509 16.7665 23.2207C17.0135 23.5878 17.2809 23.9414 17.5725 24.282C18.0925 24.0549 18.5579 23.7858 18.9288 23.5076C19.2942 23.2332 19.6407 22.9343 19.9658 22.6132L19.9636 22.6154Z" fill="url(#paint21_linear_19788_57669)"/>
<path style="mix-blend-mode:multiply" opacity="0.3" d="M16.6288 10.4196C15.1047 12.3864 14.5973 14.8313 14.6199 16.7089C14.8395 16.6058 15.0612 16.5072 15.285 16.4134C15.9981 16.1155 16.7408 15.894 17.5006 15.7525C17.648 14.4352 18.1437 12.9537 19.1026 11.8725C20.03 10.8247 21.4097 10.2259 22.9138 10.3797C23.1985 10.4087 23.5031 10.4798 23.777 10.5712C23.79 10.5756 23.8034 10.5799 23.8147 10.5821C22.3871 9.99953 20.8449 9.75226 19.3067 9.85927C18.3725 9.92383 17.4781 10.1128 16.6327 10.4109C16.6305 10.4131 16.6283 10.4174 16.6262 10.4196H16.6288Z" fill="url(#paint22_linear_19788_57669)"/>
<path style="mix-blend-mode:multiply" opacity="0.3" d="M29.981 21.8707C29.0381 19.5679 27.1735 17.9035 25.5359 16.9849C25.516 17.2189 25.4917 17.4589 25.4579 17.7103C25.3586 18.4766 25.1789 19.2305 24.9219 19.9592C25.99 20.747 27.0266 21.9148 27.485 23.2876C27.9274 24.6136 27.7584 26.1086 26.8732 27.3345C26.6983 27.5724 26.4984 27.7909 26.2769 27.9862L26.2682 27.9949C28.177 26.4956 29.5269 24.3333 29.9901 21.8863C29.9901 21.8819 29.9858 21.8772 29.9858 21.8728L29.981 21.8707Z" fill="url(#paint23_linear_19788_57669)"/>
<path style="mix-blend-mode:multiply" opacity="0.3" d="M17.4937 17.3183C17.5481 17.7715 17.6336 18.2205 17.7494 18.662C18.6728 18.444 19.578 18.3639 20.4438 18.4063L20.5816 18.4128H20.586C21.1289 18.4575 21.694 18.5576 22.2794 18.7179C22.4038 18.3019 22.5086 17.8699 22.584 17.4205C22.6664 16.8602 22.6906 16.3415 22.6885 15.89C21.3027 15.5477 20.0079 15.4783 18.8266 15.5854C18.3824 15.6145 17.9403 15.6702 17.5028 15.7522C17.4404 16.3173 17.4378 16.8533 17.4959 17.3165L17.4937 17.3183Z" fill="url(#paint24_linear_19788_57669)"/>
<defs>
<linearGradient id="paint0_linear_19788_57669" x1="11.1284" y1="28.872" x2="27.7029" y2="12.2954" gradientUnits="userSpaceOnUse">
<stop stop-color="#E6007A"/>
<stop offset="0.21" stop-color="#703AC2"/>
<stop offset="0.46" stop-color="#0070EB"/>
<stop offset="0.77" stop-color="#0297FB"/>
<stop offset="1" stop-color="#0AE2FF"/>
</linearGradient>
<radialGradient id="paint1_radial_19788_57669" cx="0" cy="0" r="1" gradientUnits="userSpaceOnUse" gradientTransform="translate(23.705 17.3675) scale(4.94342)">
<stop stop-color="white"/>
<stop offset="1" stop-color="white" stop-opacity="0"/>
</radialGradient>
<radialGradient id="paint2_radial_19788_57669" cx="0" cy="0" r="1" gradientUnits="userSpaceOnUse" gradientTransform="translate(16.3987 26.5377) scale(2.8766 2.87661)">
<stop stop-color="white"/>
<stop offset="1" stop-color="white" stop-opacity="0"/>
</radialGradient>
<linearGradient id="paint3_linear_19788_57669" x1="12.0824" y1="26.0509" x2="14.8548" y2="26.0128" gradientUnits="userSpaceOnUse">
<stop stop-color="white" stop-opacity="0"/>
<stop offset="1" stop-color="white"/>
</linearGradient>
<radialGradient id="paint4_radial_19788_57669" cx="0" cy="0" r="1" gradientUnits="userSpaceOnUse" gradientTransform="translate(15.8677 18.1051) rotate(-120) scale(4.94342)">
<stop stop-color="white"/>
<stop offset="1" stop-color="white" stop-opacity="0"/>
</radialGradient>
<radialGradient id="paint5_radial_19788_57669" cx="0" cy="0" r="1" gradientUnits="userSpaceOnUse" gradientTransform="translate(27.463 19.8474) rotate(-120) scale(2.8766)">
<stop stop-color="white"/>
<stop offset="1" stop-color="white" stop-opacity="0"/>
</radialGradient>
<linearGradient id="paint6_linear_19788_57669" x1="29.1982" y1="23.8271" x2="27.7791" y2="21.4455" gradientUnits="userSpaceOnUse">
<stop stop-color="white" stop-opacity="0"/>
<stop offset="1" stop-color="white"/>
</linearGradient>
<radialGradient id="paint7_radial_19788_57669" cx="0" cy="0" r="1" gradientUnits="userSpaceOnUse" gradientTransform="translate(20.1907 24.2948) rotate(120) scale(4.94342)">
<stop stop-color="white"/>
<stop offset="1" stop-color="white" stop-opacity="0"/>
</radialGradient>
<radialGradient id="paint8_radial_19788_57669" cx="0" cy="0" r="1" gradientUnits="userSpaceOnUse" gradientTransform="translate(16.1357 13.6131) rotate(120) scale(2.8766)">
<stop stop-color="white"/>
<stop offset="1" stop-color="white" stop-opacity="0"/>
</radialGradient>
<linearGradient id="paint9_linear_19788_57669" x1="18.7145" y1="10.1172" x2="17.363" y2="12.5382" gradientUnits="userSpaceOnUse">
<stop stop-color="white" stop-opacity="0"/>
<stop offset="1" stop-color="white"/>
</linearGradient>
<linearGradient id="paint10_linear_19788_57669" x1="19.3178" y1="8.88677" x2="15.0816" y2="10.1192" gradientUnits="userSpaceOnUse">
<stop stop-color="#231F20"/>
<stop offset="1" stop-color="white"/>
</linearGradient>
<linearGradient id="paint11_linear_19788_57669" x1="11.3154" y1="25.0387" x2="14.8574" y2="28.7359" gradientUnits="userSpaceOnUse">
<stop stop-color="#231F20"/>
<stop offset="1" stop-color="white"/>
</linearGradient>
<linearGradient id="paint12_linear_19788_57669" x1="30.3237" y1="24.4822" x2="31.5561" y2="20.7356" gradientUnits="userSpaceOnUse">
<stop stop-color="#231F20"/>
<stop offset="1" stop-color="white"/>
</linearGradient>
<linearGradient id="paint13_linear_19788_57669" x1="21.247" y1="11.0313" x2="26.9249" y2="12.3309" gradientUnits="userSpaceOnUse">
<stop stop-color="#231F20"/>
<stop offset="1" stop-color="white"/>
</linearGradient>
<linearGradient id="paint14_linear_19788_57669" x1="27.1445" y1="25.564" x2="23.1773" y2="29.8323" gradientUnits="userSpaceOnUse">
<stop stop-color="#231F20"/>
<stop offset="1" stop-color="white"/>
</linearGradient>
<linearGradient id="paint15_linear_19788_57669" x1="11.6074" y1="23.4068" x2="9.89572" y2="17.839" gradientUnits="userSpaceOnUse">
<stop stop-color="#231F20"/>
<stop offset="1" stop-color="white"/>
</linearGradient>
<linearGradient id="paint16_linear_19788_57669" x1="22.4882" y1="13.1247" x2="20.6929" y2="14.9226" gradientUnits="userSpaceOnUse">
<stop stop-color="#231F20"/>
<stop offset="1" stop-color="white"/>
</linearGradient>
<linearGradient id="paint17_linear_19788_57669" x1="12.8017" y1="21.2792" x2="15.2553" y2="21.9383" gradientUnits="userSpaceOnUse">
<stop stop-color="#231F20"/>
<stop offset="1" stop-color="white"/>
</linearGradient>
<linearGradient id="paint18_linear_19788_57669" x1="24.7069" y1="25.5915" x2="24.0495" y2="23.1388" gradientUnits="userSpaceOnUse">
<stop stop-color="#231F20"/>
<stop offset="1" stop-color="white"/>
</linearGradient>
<linearGradient id="paint19_linear_19788_57669" x1="20.9718" y1="23.4097" x2="22.0508" y2="21.9217" gradientUnits="userSpaceOnUse">
<stop stop-color="#231F20"/>
<stop offset="1" stop-color="white"/>
</linearGradient>
<linearGradient id="paint20_linear_19788_57669" x1="17.2604" y1="22.7647" x2="15.1046" y2="23.7926" gradientUnits="userSpaceOnUse">
<stop stop-color="#231F20"/>
<stop offset="1" stop-color="white"/>
</linearGradient>
<linearGradient id="paint21_linear_19788_57669" x1="16.4775" y1="19.176" x2="17.1448" y2="20.5623" gradientUnits="userSpaceOnUse">
<stop stop-color="#231F20"/>
<stop offset="1" stop-color="white"/>
</linearGradient>
<linearGradient id="paint22_linear_19788_57669" x1="19.581" y1="14.8958" x2="19.1204" y2="13.3051" gradientUnits="userSpaceOnUse">
<stop stop-color="#231F20"/>
<stop offset="1" stop-color="white"/>
</linearGradient>
<linearGradient id="paint23_linear_19788_57669" x1="24.5596" y1="22.1818" x2="25.8943" y2="22.489" gradientUnits="userSpaceOnUse">
<stop stop-color="#231F20"/>
<stop offset="1" stop-color="white"/>
</linearGradient>
<linearGradient id="paint24_linear_19788_57669" x1="22.4662" y1="17.6723" x2="20.7731" y2="17.3651" gradientUnits="userSpaceOnUse">
<stop stop-color="#231F20"/>
<stop offset="1" stop-color="white"/>
</linearGradient>
</defs>
</svg>
