<svg width="40" height="40" viewBox="0 0 40 40" fill="none" xmlns="http://www.w3.org/2000/svg">
<rect width="40" height="40" rx="6" fill="#131920"/>
<path d="M20.0004 9.8336C20.4958 9.83203 20.9817 9.96915 21.4032 10.2294C21.8246 10.4897 22.1648 10.8628 22.3852 11.3064L29.8852 26.3064C30.0888 26.713 30.185 27.1648 30.1647 27.619C30.1444 28.0732 30.0083 28.5147 29.7693 28.9015C29.5303 29.2883 29.1964 29.6075 28.7993 29.8289C28.4022 30.0503 27.9551 30.1665 27.5004 30.1664H12.5004C12.0459 30.1663 11.5988 30.0501 11.2018 29.8286C10.8048 29.6072 10.471 29.2879 10.2322 28.9011C9.9933 28.5144 9.85728 28.0729 9.83702 27.6188C9.81677 27.1647 9.91295 26.7129 10.1164 26.3064L17.6156 11.3064C17.8361 10.8628 18.1763 10.4897 18.5977 10.2294C19.0192 9.96915 19.5051 9.83203 20.0004 9.8336ZM20.0004 8C19.1649 7.99992 18.3458 8.23247 17.6349 8.67162C16.9241 9.11076 16.3495 9.73916 15.9756 10.4864L8.47565 25.4864C8.13235 26.1725 7.97017 26.935 8.00451 27.7014C8.03885 28.4679 8.26857 29.2128 8.67185 29.8654C9.07514 30.5181 9.63858 31.0568 10.3087 31.4304C10.9788 31.804 11.7332 32.0001 12.5004 32H27.5004C28.2676 31.9999 29.022 31.8038 29.6919 31.4301C30.3619 31.0565 30.9253 30.5177 31.3284 29.8651C31.7316 29.2125 31.9613 28.4676 31.9956 27.7012C32.0299 26.9349 31.8677 26.1724 31.5244 25.4864L24.0252 10.4864C23.6514 9.73916 23.0768 9.11076 22.366 8.67162C21.6551 8.23247 20.836 7.99992 20.0004 8Z" fill="#78D64B"/>
</svg>
