<svg width="40" height="40" viewBox="0 0 40 40" fill="none" xmlns="http://www.w3.org/2000/svg">
    <rect width="40" height="40" rx="6" fill="black"/>
    <path fill-rule="evenodd" clip-rule="evenodd" d="M20 15.7237C17.6383 15.7237 15.7237 17.6383 15.7237 20C15.7237 22.3617 17.6383 24.2763 20 24.2763C22.3617 24.2763 24.2763 22.3617 24.2763 20C24.2763 17.6383 22.3617 15.7237 20 15.7237ZM7 20C7 12.8203 12.8203 7 20 7C27.1797 7 33 12.8203 33 20C33 27.1797 27.1797 33 20 33C12.8203 33 7 27.1797 7 20Z" fill="#B7F7B0"/>
    <path fill-rule="evenodd" clip-rule="evenodd" d="M19.9984 15.7232C17.6366 15.7232 15.722 17.6378 15.722 19.9995C15.722 22.3613 17.6366 24.2759 19.9984 24.2759C22.3601 24.2759 24.2747 22.3613 24.2747 19.9995C24.2747 17.6378 22.3601 15.7232 19.9984 15.7232ZM9.90625 19.9995C9.90625 14.4258 14.4246 9.90744 19.9984 9.90744C25.5721 9.90744 30.0905 14.4258 30.0905 19.9995C30.0905 25.5733 25.5721 30.0916 19.9984 30.0916C14.4246 30.0916 9.90625 25.5733 9.90625 19.9995Z" fill="#07DC10"/>
    <path fill-rule="evenodd" clip-rule="evenodd" d="M20.0016 15.7238C17.6398 15.7238 15.7253 17.6384 15.7253 20.0001C15.7253 22.3619 17.6398 24.2764 20.0016 24.2764C22.3633 24.2764 24.2779 22.3619 24.2779 20.0001C24.2779 17.6384 22.3633 15.7238 20.0016 15.7238ZM12.8174 20.0001C12.8174 16.0324 16.0339 12.8159 20.0016 12.8159C23.9693 12.8159 27.1858 16.0324 27.1858 20.0001C27.1858 23.9679 23.9693 27.1843 20.0016 27.1843C16.0339 27.1843 12.8174 23.9679 12.8174 20.0001Z" fill="#0C9B00"/>
    <path d="M24.2763 20C24.2763 17.6383 22.3617 15.7237 19.9999 15.7237C17.6382 15.7237 15.7236 17.6383 15.7236 20C15.7236 22.3618 17.6382 24.2763 19.9999 24.2763C22.3617 24.2763 24.2763 22.3618 24.2763 20Z" fill="#EAEAEA"/>
    </svg>
    