<svg viewBox="0 0 16 16" fill="none" xmlns="http://www.w3.org/2000/svg" size="24" class="css-j59yuo"><path fill-rule="evenodd" clip-rule="evenodd" d="M12.813 9.925V8.687a1.97 1.97 0 0 0-.688-1.512V5.25h.688V3.875h-1.376c-.412 0-.687.275-.687.688v2.062h-.894L8.62 2.981A.66.66 0 0 0 8 2.5H3.187v1.375h1.376v3.644C3.393 7.93 2.5 9.1 2.5 10.406A3.08 3.08 0 0 0 5.594 13.5c1.375 0 2.475-.894 2.887-2.063h.894c0 1.17.894 2.063 2.063 2.063 1.168 0 2.062-.894 2.062-2.063a1.97 1.97 0 0 0-.688-1.512Zm-6.875-6.05H7.52l.894 2.75H5.938v-2.75Zm-.345 8.25a1.702 1.702 0 0 1-1.719-1.72c0-.962.757-1.718 1.72-1.718.962 0 1.718.756 1.718 1.719 0 .962-.756 1.718-1.719 1.718Zm5.845 0c-.412 0-.687-.274-.687-.687 0-.412.275-.687.687-.687.413 0 .688.275.688.687 0 .413-.275.688-.688.688Z" fill="currentColor"></path></svg>