<svg viewBox="0 0 24 24" fill="#fff" xmlns="http://www.w3.org/2000/svg" size="24" class="css-j59yuo"><path d="M15.5 14a.5.5 0 1 1 0-1 .5.5 0 0 1 0 1Z" fill="#fff" stroke="#fff" stroke-width="2" stroke-linecap="round" stroke-linejoin="round"></path><path fill-rule="evenodd" clip-rule="evenodd" d="M15.227 2.703A3 3 0 0 1 19 5.6V6a3 3 0 0 1 3 3v9a3 3 0 0 1-3 3h-7v-2h7a1 1 0 0 0 1-1V9a1 1 0 0 0-1-1H5a1 1 0 0 0-1 1v2H2V8.535a3 3 0 0 1 2.227-2.9l11-2.932ZM17 5.6V6h-6.376l5.118-1.365A1 1 0 0 1 17 5.601Z" fill="#fff"></path><path d="M6 13v8M10 17H2" stroke="#fff" stroke-width="2"></path></svg>