<svg viewBox="0 0 14 14" fill="none" xmlns="http://www.w3.org/2000/svg" size="24" class="css-j59yuo"><g clip-path="url(#pool_svg__a)" fill="currentColor"><path d="M12.252 11.732h-.656a3.632 3.632 0 0 1-2.297-.806 3.662 3.662 0 0 1-4.594-.007c-.65.527-1.46.814-2.297.813h-.656V10.42h.656a2.313 2.313 0 0 0 1.795-.838l.501-.597.503.596a2.34 2.34 0 0 0 3.585.007l.507-.619.507.619c.441.532 1.098.838 1.79.832h.656v1.313ZM12.252 8.453h-.656a3.632 3.632 0 0 1-2.297-.807 3.663 3.663 0 0 1-4.594-.006c-.65.527-1.46.814-2.297.813h-.656V7.14h.656a2.313 2.313 0 0 0 1.795-.838l.501-.597.503.597a2.34 2.34 0 0 0 3.585.006l.507-.619.507.62c.441.532 1.098.838 1.79.831h.656v1.313ZM12.252 5.168h-.656a3.632 3.632 0 0 1-2.297-.806c-.65.525-1.461.81-2.297.806a3.646 3.646 0 0 1-2.297-.813c-.65.527-1.46.814-2.297.813h-.656V3.856h.656a2.313 2.313 0 0 0 1.795-.838l.502-.597.503.596c.442.534 1.1.842 1.794.839.691.006 1.349-.3 1.79-.832l.507-.62.507.62c.441.532 1.098.838 1.79.832h.656v1.312Z"></path></g><defs><clipPath id="pool_svg__a"><path fill="#fff" transform="translate(1.752 2.405)" d="M0 0h10.5v9.326H0z"></path></clipPath></defs></svg>