<svg viewBox="0 0 12 12" fill="#57D1C0" xmlns="http://www.w3.org/2000/svg" size="14" class="css-jb62o1"><path d="M3 10.5a.484.484 0 0 1-.356-.144A.484.484 0 0 1 2.5 10V8.975a2.132 2.132 0 0 1-.362-.556A1.614 1.614 0 0 1 2 7.749V3c0-.69.32-1.197.962-1.518C3.604 1.161 4.617 1 6 1c1.433 0 2.458.154 3.075.462.617.309.925.821.925 1.538v4.75c0 .242-.046.465-.137.669-.092.204-.213.39-.363.556V10c0 .142-.048.26-.144.356A.484.484 0 0 1 9 10.5h-.5a.484.484 0 0 1-.356-.144A.484.484 0 0 1 8 10v-.5H4v.5c0 .142-.048.26-.144.356a.484.484 0 0 1-.356.144H3ZM3 5h6V3.5H3V5Zm1.25 3a.723.723 0 0 0 .531-.219A.723.723 0 0 0 5 7.25a.723.723 0 0 0-.219-.531.723.723 0 0 0-.531-.22.723.723 0 0 0-.531.22.723.723 0 0 0-.219.53c0 .21.073.386.219.532A.723.723 0 0 0 4.25 8Zm3.5 0a.723.723 0 0 0 .531-.219.723.723 0 0 0 .219-.531.723.723 0 0 0-.219-.531.723.723 0 0 0-.531-.22.723.723 0 0 0-.531.22.723.723 0 0 0-.219.53c0 .21.073.386.219.532A.723.723 0 0 0 7.75 8Z" fill="#57D1C0"></path></svg>