<svg viewBox="0 0 40 40" fill="none" xmlns="http://www.w3.org/2000/svg">
    <rect width="40" height="40" rx="6" fill="url(#paint0_linear_5581_26305)"/>
    <path d="M28.7262 7.99847H22.9082C22.7082 7.99847 22.5442 8.16147 22.5442 8.36247V10.3015C22.5442 10.5015 22.7072 10.6655 22.9082 10.6655H25.3322C25.9342 10.6655 26.4232 11.1535 26.4232 11.7565V12.7265C26.4232 13.3285 25.9352 13.8175 25.3322 13.8175H17.0902C16.8902 13.8175 16.7262 13.9805 16.7262 14.1815V18.5455C16.7262 19.1475 16.2382 19.6365 15.6352 19.6365H11.2722C11.0722 19.6365 10.9082 19.7995 10.9082 20.0005V25.8185C10.9082 26.0185 11.0712 26.1825 11.2722 26.1825H15.6362C16.2382 26.1825 16.7272 26.6705 16.7272 27.2735V31.6375C16.7272 31.8375 16.8902 32.0015 17.0912 32.0015H22.9092C23.1092 32.0015 23.2732 31.8385 23.2732 31.6375V25.8195C23.2732 25.6195 23.1102 25.4555 22.9092 25.4555H18.5452C18.4019 25.4556 18.26 25.4275 18.1275 25.3727C17.9951 25.3179 17.8748 25.2376 17.7735 25.1362C17.6721 25.0349 17.5918 24.9146 17.537 24.7821C17.4822 24.6497 17.4541 24.5078 17.4542 24.3645V21.4555C17.4542 20.8535 17.9422 20.3645 18.5452 20.3645H28.7272C28.9272 20.3645 29.0912 20.2015 29.0912 20.0005V8.36247C29.0912 8.16247 28.9272 7.99847 28.7262 7.99847ZM24.8472 17.3315C24.8472 17.5243 24.7706 17.7092 24.6343 17.8455C24.4979 17.9819 24.313 18.0585 24.1202 18.0585H23.6352C23.5397 18.0585 23.4452 18.0397 23.357 18.0031C23.2688 17.9666 23.1886 17.913 23.1211 17.8455C23.0536 17.778 23.0001 17.6979 22.9635 17.6097C22.927 17.5215 22.9082 17.4269 22.9082 17.3315V16.8465C22.9082 16.4445 23.2342 16.1195 23.6352 16.1195H24.1202C24.5222 16.1195 24.8472 16.4455 24.8472 16.8465V17.3315Z" fill="white"/>
    <defs>
        <linearGradient id="paint0_linear_5581_26305" x1="37.0258" y1="-1.0432" x2="18.1633" y2="42.085" gradientUnits="userSpaceOnUse">
            <stop stop-color="#FF8000"/>
            <stop offset="1" stop-color="#FF0079"/>
        </linearGradient>
    </defs>
</svg>
