<svg viewBox="0 0 40 40" fill="none" xmlns="http://www.w3.org/2000/svg">
<path d="M0 6C0 2.68629 2.68629 0 6 0H34C37.3137 0 40 2.68629 40 6V34C40 37.3137 37.3137 40 34 40H6C2.68629 40 0 37.3137 0 34V6Z" fill="#1969FF"/>
<g clip-path="url(#clip0_3784_168557)">
<path d="M18.8965 6.26822C19.577 5.91059 20.6125 5.91059 21.2931 6.26822L28.2373 9.91744C28.6471 10.1328 28.8722 10.4538 28.9126 10.7851H28.9192V29.128C28.9102 29.4894 28.683 29.8483 28.2373 30.0826L21.2931 33.7318C20.6125 34.0895 19.577 34.0895 18.8965 33.7318L11.9523 30.0826C11.5085 29.8494 11.2955 29.4878 11.285 29.128C11.2839 29.0926 11.2838 29.063 11.2848 29.0385L11.2848 10.9029C11.2841 10.883 11.284 10.8632 11.2846 10.8435L11.285 10.7851L11.2881 10.7851C11.319 10.4501 11.5338 10.1374 11.9523 9.91744L18.8965 6.26822ZM27.826 21.0185L21.2931 24.4516C20.6125 24.8092 19.577 24.8092 18.8965 24.4516L12.3779 21.0262V29.0917L18.8965 32.4992C19.2646 32.6949 19.6467 32.8857 20.0202 32.91L20.0948 32.9124C20.4841 32.9137 20.862 32.717 21.2452 32.5309L27.826 29.0624V21.0185ZM10.1555 28.7292C10.1555 29.4318 10.2376 29.8938 10.4006 30.2193C10.5357 30.4891 10.7384 30.6951 11.1086 30.946L11.1297 30.9602C11.2109 31.0147 11.3004 31.0718 11.4093 31.1387L11.5378 31.2171L11.9322 31.454L11.3665 32.3845L10.925 32.1192L10.8508 32.0739C10.7232 31.9954 10.6174 31.9282 10.5187 31.8619C9.4638 31.1543 9.07038 30.383 9.06262 28.778L9.0625 28.7292H10.1555ZM19.5481 16.1021C19.4976 16.1193 19.4502 16.1393 19.407 16.162L12.4628 19.8112C12.4555 19.8151 12.4486 19.8189 12.4419 19.8226L12.4361 19.826L12.447 19.8322L12.4628 19.8407L19.407 23.49C19.4502 23.5127 19.4976 23.5327 19.5481 23.5499V16.1021ZM20.6415 16.1021V23.5499C20.692 23.5327 20.7394 23.5127 20.7826 23.49L27.7268 19.8407C27.7341 19.8369 27.7411 19.8331 27.7477 19.8294L27.7536 19.826L27.7426 19.8198L27.7268 19.8112L20.7826 16.162C20.7394 16.1393 20.692 16.1193 20.6415 16.1021ZM27.826 12.0863L21.5967 15.3599L27.826 18.6335V12.0863ZM12.3779 12.0939V18.6258L18.5928 15.3599L12.3779 12.0939ZM20.7826 7.22985C20.4215 7.04008 19.7681 7.04008 19.407 7.22985L12.4628 10.8791C12.4555 10.8829 12.4486 10.8867 12.4419 10.8904L12.4361 10.8938L12.447 10.9L12.4628 10.9086L19.407 14.5578C19.7681 14.7476 20.4215 14.7476 20.7826 14.5578L27.7268 10.9086C27.7341 10.9048 27.7411 10.901 27.7477 10.8972L27.7536 10.8938L27.7426 10.8876L27.7268 10.8791L20.7826 7.22985ZM28.8523 7.63002L29.2937 7.8953L29.3679 7.94063C29.4956 8.01902 29.6014 8.08637 29.7001 8.15257C30.755 8.86016 31.1484 9.63162 31.156 11.2365L31.1562 11.2854H30.0632C30.0632 10.5826 29.9811 10.1206 29.8181 9.7952C29.683 9.52548 29.4803 9.31936 29.1102 9.06854L29.0891 9.0543C29.0078 8.99981 28.9183 8.94273 28.8094 8.87564L28.681 8.79738L28.2866 8.56056L28.8523 7.63002Z" fill="white"/>
</g>
</svg>
