<svg width="40" height="40" viewBox="0 0 40 40" fill="none" xmlns="http://www.w3.org/2000/svg">
<rect width="40" height="40" rx="6" fill="#E62058"/>
<path d="M25.7718 18.0606L15.4113 18.0527C12.5869 18.0527 10.2377 20.2861 10.1641 23.1577C10.1618 23.2345 10.2252 23.2979 10.3019 23.2979L20.6624 23.3042V23.3057C23.4868 23.3057 25.836 21.0723 25.9096 18.2007C25.9119 18.124 25.8485 18.0606 25.7718 18.0606Z" fill="white"/>
<path d="M31.026 10.1953L15.4152 10.1875C12.5908 10.1875 10.2416 12.4209 10.168 15.2925C10.1657 15.3692 10.2291 15.4327 10.3058 15.4327L25.9166 15.4389V15.4405C28.7411 15.4405 31.0902 13.2071 31.1638 10.3355C31.1662 10.2588 31.1027 10.1953 31.026 10.1953Z" fill="white"/>
<path d="M12.7896 31.1342C14.2397 31.1342 15.4152 29.9587 15.4152 28.5085C15.4152 27.0584 14.2397 25.8828 12.7896 25.8828C11.3396 25.8828 10.1641 27.0584 10.1641 28.5085C10.1641 29.9587 11.3396 31.1342 12.7896 31.1342Z" fill="white"/>
</svg>
