<svg width="40" height="40" viewBox="0 0 40 40" fill="none" xmlns="http://www.w3.org/2000/svg">
<rect width="40" height="40" rx="6" fill="black"/>
<path d="M32.9989 13.8766H29.4416C29.2076 13.1219 28.7908 12.4088 28.1912 11.8078C27.6027 11.2194 26.8938 10.7929 26.1225 10.5547V7.00024H23.5954V10.4439C22.7037 10.6378 21.8881 11.0795 21.2304 11.7372L19.5466 13.421C19.0536 13.9139 19.0536 14.7143 19.5466 15.2086C20.0395 15.7016 20.8399 15.7016 21.3342 15.2086L23.018 13.5248C23.4556 13.0873 24.0468 12.8519 24.6797 12.8588C25.3263 12.8671 25.9383 13.1288 26.405 13.5955C27.3576 14.5481 27.3895 16.0685 26.4756 16.9824L22.9349 20.523C22.021 21.4369 20.5006 21.4051 19.548 20.4524C19.055 19.9594 18.2547 19.9594 17.7603 20.4524C17.2674 20.9453 17.2674 21.7457 17.7603 22.24C18.7421 23.2218 20.0285 23.7147 21.3065 23.7147C22.55 23.7147 23.7851 23.2481 24.7226 22.3106L28.2632 18.77C28.9348 18.0984 29.3627 17.2746 29.5538 16.405H33.0017V13.8766H32.9989Z" fill="white"/>
<path d="M18.666 24.7919L16.9823 26.4756C16.0684 27.3895 14.5493 27.3577 13.5953 26.405C12.6426 25.4523 12.6108 23.932 13.5247 23.0181L17.0653 19.4775C17.9792 18.5636 19.4996 18.5954 20.4523 19.5481C20.9452 20.041 21.7456 20.041 22.2399 19.5481C22.7329 19.0551 22.7329 18.2548 22.2399 17.7605C20.3014 15.8219 17.1789 15.7901 15.2791 17.6898L11.7384 21.2305C11.0668 21.902 10.639 22.7259 10.4479 23.5955H7V26.1225H10.5573C10.7913 26.8772 11.2081 27.5903 11.8077 28.1912C12.4072 28.7908 13.1203 29.2076 13.8764 29.4416V33.0002H16.4035V29.5524C17.2744 29.3627 18.0983 28.9334 18.7685 28.2619L20.4523 26.5781C20.9452 26.0851 20.9452 25.2848 20.4523 24.7905C19.9593 24.2975 19.159 24.2975 18.666 24.7919Z" fill="white"/>
</svg>
