<svg viewBox="0 0 40 40" fill="none" xmlns="http://www.w3.org/2000/svg">
<path d="M0 6C0 2.68629 2.68629 0 6 0H34C37.3137 0 40 2.68629 40 6V34C40 37.3137 37.3137 40 34 40H6C2.68629 40 0 37.3137 0 34V6Z" fill="#00193C"/>
<path d="M14.3891 21.8873C15.1725 21.8879 15.9337 21.6275 16.5527 21.1472L11.5891 16.1836C11.1843 16.7072 10.9343 17.3338 10.8676 17.9923C10.8009 18.6507 10.9201 19.3147 11.2117 19.9089C11.5032 20.503 11.9555 21.0036 12.5171 21.3537C13.0787 21.7039 13.7272 21.8896 14.3891 21.8899V21.8873Z" fill="white"/>
<path d="M29.1526 18.3453C29.1533 17.5619 28.8932 16.8006 28.4131 16.1816L23.4463 21.1453C23.9698 21.5503 24.5965 21.8005 25.255 21.8673C25.9136 21.9341 26.5777 21.815 27.1719 21.5234C27.7662 21.2318 28.2668 20.7794 28.6169 20.2177C28.967 19.6559 29.1526 19.0072 29.1526 18.3453Z" fill="white"/>
<path d="M31.6487 12.9453L29.4519 15.142C30.2532 16.1007 30.6667 17.3245 30.611 18.5727C30.5554 19.8208 30.0346 21.003 29.1511 21.8865C28.2677 22.77 27.0856 23.2909 25.8375 23.3466C24.5893 23.4024 23.3655 22.989 22.4068 22.1879L20 24.5939L17.5933 22.1879C16.6346 22.989 15.4107 23.4024 14.1626 23.3466C12.9144 23.2909 11.7323 22.77 10.8489 21.8865C9.96548 21.003 9.44469 19.8208 9.38903 18.5727C9.33336 17.3245 9.74685 16.1007 10.5481 15.142L9.41921 14.0131L8.35457 12.9453C7.06186 15.0714 6.37936 17.5124 6.38184 20.0007C6.38184 27.5219 12.4788 33.6189 20 33.6189C27.5212 33.6189 33.6182 27.5219 33.6182 20.0007C33.6216 17.5127 32.9402 15.0718 31.6487 12.9453Z" fill="white"/>
<path d="M29.8526 10.6017C28.5813 9.26815 27.0526 8.20655 25.359 7.48119C23.6654 6.75584 21.8421 6.38184 19.9997 6.38184C18.1573 6.38184 16.3341 6.75584 14.6405 7.48119C12.9469 8.20655 11.4182 9.26815 10.1469 10.6017C9.80914 10.9559 9.49051 11.3278 9.19238 11.716L19.9997 22.524L30.8077 11.716C30.5094 11.3278 30.1906 10.9558 29.8526 10.6017ZM19.9997 8.16378C23.1847 8.16378 26.1457 9.3926 28.3724 11.6313L19.9997 20.004L11.6271 11.6313C13.8537 9.3926 16.8179 8.16378 19.9997 8.16378Z" fill="white"/>
</svg>
