<svg width="40" height="40" viewBox="0 0 40 40" fill="none" xmlns="http://www.w3.org/2000/svg">
<g clip-path="url(#clip0_8756_97413)">
<rect width="40" height="40" rx="6" fill="black"/>
<rect width="40" height="40" fill="url(#paint0_linear_8756_97413)"/>
<path d="M34.7957 11.3205C34.5773 10.9434 34.091 10.8192 33.7182 11.0453L13.7116 23.1966C13.2016 22.2442 12.9127 21.156 12.9127 20.0002C12.9127 16.2479 15.9581 13.2059 19.7147 13.2059C21.328 13.2059 22.8088 13.7683 23.9748 14.7052L19.7186 17.6234L30.7799 11.2448C31.0181 11.1077 31.0998 10.8028 30.9617 10.5655C30.8164 10.3144 30.4884 10.24 30.2484 10.4043L27.5401 12.2613C25.5442 10.2473 22.7761 9 19.7147 9C13.6324 9 8.70161 13.9248 8.70161 20.0002C8.70161 21.9561 9.21327 23.7925 10.1093 25.3842L4.5 28.7908L10.2594 25.6418C12.1826 28.851 15.6971 31 19.7152 31C25.7974 31 30.7283 26.0752 30.7283 19.9998V18.6862C30.7283 17.6573 31.1462 16.3408 32.6279 15.5479C32.7547 15.48 32.8007 15.3209 32.7289 15.1958C32.6584 15.0741 32.5027 15.032 32.3811 15.1025L19.2478 22.6763C20.714 22.0537 21.8345 21.6754 23.32 21.3774C26.4144 20.7565 26.4931 22.23 25.2982 23.8923C24.4981 25.005 22.6905 26.7924 19.7169 26.7924C17.2919 26.7924 15.1644 25.5253 13.9597 23.6179L34.4956 12.3898C34.8787 12.1809 35.0137 11.6976 34.7957 11.3201V11.3205Z" fill="white"/>
</g>
<defs>
<linearGradient id="paint0_linear_8756_97413" x1="0" y1="40" x2="40" y2="0" gradientUnits="userSpaceOnUse">
<stop stop-color="#E67436"/>
<stop offset="0.618125"/>
</linearGradient>
<clipPath id="clip0_8756_97413">
<rect width="40" height="40" rx="6" fill="white"/>
</clipPath>
</defs>
</svg>
