<svg width="40" height="40" viewBox="0 0 40 40" fill="none" xmlns="http://www.w3.org/2000/svg">
<g clip-path="url(#clip0_6267_7025)">
<rect width="40" height="40" rx="6" fill="#24293F"/>
<path fill-rule="evenodd" clip-rule="evenodd" d="M27.4092 9.03462C27.4092 9.85974 26.7386 10.5287 25.9112 10.5287C25.084 10.5287 24.4133 9.85974 24.4133 9.03462C24.4133 8.20943 25.084 7.54053 25.9112 7.54053C26.7386 7.54053 27.4092 8.20943 27.4092 9.03462ZM29.0944 30.1388C29.0944 30.9641 28.4238 31.633 27.5965 31.633C26.7692 31.633 26.0985 30.9641 26.0985 30.1388C26.0985 29.3137 26.7692 28.6448 27.5965 28.6448C28.4238 28.6448 29.0944 29.3137 29.0944 30.1388ZM26.3395 14.2641C27.0338 14.2641 27.5967 13.7026 27.5967 13.0101C27.5967 12.3175 27.0338 11.7561 26.3395 11.7561C25.6452 11.7561 25.0823 12.3175 25.0823 13.0101C25.0823 13.7026 25.6452 14.2641 26.3395 14.2641ZM30.9405 13.4902C30.9405 14.1827 30.3776 14.7442 29.6833 14.7442C28.989 14.7442 28.4261 14.1827 28.4261 13.4902C28.4261 12.7976 28.989 12.2362 29.6833 12.2362C30.3776 12.2362 30.9405 12.7976 30.9405 13.4902ZM25.9113 17.4389C26.5023 17.4389 26.9813 16.9611 26.9813 16.3717C26.9813 15.7823 26.5023 15.3045 25.9113 15.3045C25.3205 15.3045 24.8414 15.7823 24.8414 16.3717C24.8414 16.9611 25.3205 17.4389 25.9113 17.4389ZM30.3252 16.8254C30.3252 17.4148 29.8461 17.8926 29.2552 17.8926C28.6642 17.8926 28.1853 17.4148 28.1853 16.8254C28.1853 16.2361 28.6642 15.7583 29.2552 15.7583C29.8461 15.7583 30.3252 16.2361 30.3252 16.8254ZM31.9301 18.933C32.521 18.933 33 18.4552 33 17.8658C33 17.2763 32.521 16.7986 31.9301 16.7986C31.3392 16.7986 30.8601 17.2763 30.8601 17.8658C30.8601 18.4552 31.3392 18.933 31.9301 18.933ZM29.2014 19.5201C29.2014 20.0357 28.7823 20.4538 28.2651 20.4538C27.7481 20.4538 27.3289 20.0357 27.3289 19.5201C27.3289 19.0042 27.7481 18.5862 28.2651 18.5862C28.7823 18.5862 29.2014 19.0042 29.2014 19.5201ZM24.9219 20.0001C25.4389 20.0001 25.858 19.582 25.858 19.0663C25.858 18.5506 25.4389 18.1324 24.9219 18.1324C24.4048 18.1324 23.9857 18.5506 23.9857 19.0663C23.9857 19.582 24.4048 20.0001 24.9219 20.0001ZM31.9031 20.5603C31.9031 21.0761 31.4839 21.4942 30.967 21.4942C30.4498 21.4942 30.0307 21.0761 30.0307 20.5603C30.0307 20.0447 30.4498 19.6266 30.967 19.6266C31.4839 19.6266 31.9031 20.0447 31.9031 20.5603ZM26.9279 22.4011C27.3712 22.4011 27.7304 22.0428 27.7304 21.6008C27.7304 21.1587 27.3712 20.8003 26.9279 20.8003C26.4847 20.8003 26.1255 21.1587 26.1255 21.6008C26.1255 22.0428 26.4847 22.4011 26.9279 22.4011ZM30.4322 22.6147C30.4322 23.0568 30.0729 23.4151 29.6297 23.4151C29.1866 23.4151 28.8272 23.0568 28.8272 22.6147C28.8272 22.1727 29.1866 21.8143 29.6297 21.8143C30.0729 21.8143 30.4322 22.1727 30.4322 22.6147ZM23.6108 21.9208C24.054 21.9208 24.4133 21.5625 24.4133 21.1205C24.4133 20.6784 24.054 20.3201 23.6108 20.3201C23.1676 20.3201 22.8083 20.6784 22.8083 21.1205C22.8083 21.5625 23.1676 21.9208 23.6108 21.9208ZM26.1254 23.0418C26.1254 23.4102 25.8261 23.7088 25.4567 23.7088C25.0873 23.7088 24.788 23.4102 24.788 23.0418C24.788 22.6734 25.0873 22.3748 25.4567 22.3748C25.8261 22.3748 26.1254 22.6734 26.1254 23.0418ZM26.6066 25.5496C26.9317 25.5496 27.1951 25.2868 27.1951 24.9626C27.1951 24.6384 26.9317 24.3756 26.6066 24.3756C26.2817 24.3756 26.0182 24.6384 26.0182 24.9626C26.0182 25.2868 26.2817 25.5496 26.6066 25.5496ZM25.6706 25.4431C25.6706 25.7084 25.455 25.9234 25.1891 25.9234C24.9232 25.9234 24.7076 25.7084 24.7076 25.4431C24.7076 25.1779 24.9232 24.9629 25.1891 24.9629C25.455 24.9629 25.6706 25.1779 25.6706 25.4431ZM23.9318 24.5358C24.2568 24.5358 24.5202 24.273 24.5202 23.9488C24.5202 23.6247 24.2568 23.3619 23.9318 23.3619C23.6068 23.3619 23.3433 23.6247 23.3433 23.9488C23.3433 24.273 23.6068 24.5358 23.9318 24.5358ZM22.7819 22.5882C22.7819 22.9566 22.4824 23.2552 22.1132 23.2552C21.7438 23.2552 21.4443 22.9566 21.4443 22.5882C21.4443 22.2197 21.7438 21.9212 22.1132 21.9212C22.4824 21.9212 22.7819 22.2197 22.7819 22.5882ZM22.0862 18.239C22.4556 18.239 22.755 17.9405 22.755 17.5721C22.755 17.2036 22.4556 16.9051 22.0862 16.9051C21.7169 16.9051 21.4175 17.2036 21.4175 17.5721C21.4175 17.9405 21.7169 18.239 22.0862 18.239ZM22.9689 15.3044C22.9689 15.6285 22.7054 15.8913 22.3804 15.8913C22.0554 15.8913 21.792 15.6285 21.792 15.3044C21.792 14.9802 22.0554 14.7174 22.3804 14.7174C22.7054 14.7174 22.9689 14.9802 22.9689 15.3044ZM23.0225 13.9704C23.2884 13.9704 23.504 13.7554 23.504 13.4902C23.504 13.2249 23.2884 13.0099 23.0225 13.0099C22.7566 13.0099 22.541 13.2249 22.541 13.4902C22.541 13.7554 22.7566 13.9704 23.0225 13.9704ZM22.4875 12.4764C22.4875 12.8006 22.224 13.0634 21.8991 13.0634C21.574 13.0634 21.3105 12.8006 21.3105 12.4764C21.3105 12.1523 21.574 11.8894 21.8991 11.8894C22.224 11.8894 22.4875 12.1523 22.4875 12.4764ZM28.1316 24.7224C28.5009 24.7224 28.8003 24.4238 28.8003 24.0553C28.8003 23.687 28.5009 23.3884 28.1316 23.3884C27.7622 23.3884 27.4628 23.687 27.4628 24.0553C27.4628 24.4238 27.7622 24.7224 28.1316 24.7224ZM21.043 11.6226C21.043 11.9909 20.7436 12.2895 20.3743 12.2895C20.005 12.2895 19.7055 11.9909 19.7055 11.6226C19.7055 11.2542 20.005 10.9556 20.3743 10.9556C20.7436 10.9556 21.043 11.2542 21.043 11.6226ZM20.8292 15.1177C21.1985 15.1177 21.4979 14.819 21.4979 14.4507C21.4979 14.0823 21.1985 13.7837 20.8292 13.7837C20.4598 13.7837 20.1605 14.0823 20.1605 14.4507C20.1605 14.819 20.4598 15.1177 20.8292 15.1177ZM20.883 17.0118C20.883 17.4539 20.5237 17.8123 20.0805 17.8123C19.6373 17.8123 19.278 17.4539 19.278 17.0118C19.278 16.5698 19.6373 16.2115 20.0805 16.2115C20.5237 16.2115 20.883 16.5698 20.883 17.0118ZM17.646 17.8121C18.1631 17.8121 18.5823 17.394 18.5823 16.8783C18.5823 16.3625 18.1631 15.9444 17.646 15.9444C17.1289 15.9444 16.7098 16.3625 16.7098 16.8783C16.7098 17.394 17.1289 17.8121 17.646 17.8121ZM15.8808 17.3856C15.8808 17.9751 15.4017 18.4529 14.8108 18.4529C14.2199 18.4529 13.7409 17.9751 13.7409 17.3856C13.7409 16.7963 14.2199 16.3185 14.8108 16.3185C15.4017 16.3185 15.8808 16.7963 15.8808 17.3856ZM11.7078 19.9738C12.4022 19.9738 12.9651 19.4123 12.9651 18.7198C12.9651 18.0271 12.4022 17.4658 11.7078 17.4658C11.0135 17.4658 10.4507 18.0271 10.4507 18.7198C10.4507 19.4123 11.0135 19.9738 11.7078 19.9738ZM9.99583 21.0406C9.99583 21.8658 9.32521 22.5347 8.49789 22.5347C7.67063 22.5347 7 21.8658 7 21.0406C7 20.2155 7.67063 19.5466 8.49789 19.5466C9.32521 19.5466 9.99583 20.2155 9.99583 21.0406ZM10.4508 16.8519C11.1451 16.8519 11.708 16.2904 11.708 15.5979C11.708 14.9053 11.1451 14.3439 10.4508 14.3439C9.75642 14.3439 9.1936 14.9053 9.1936 15.5979C9.1936 16.2904 9.75642 16.8519 10.4508 16.8519ZM14.6231 14.2638C14.6231 14.8532 14.144 15.331 13.5531 15.331C12.9622 15.331 12.4832 14.8532 12.4832 14.2638C12.4832 13.6744 12.9622 13.1966 13.5531 13.1966C14.144 13.1966 14.6231 13.6744 14.6231 14.2638ZM13.0986 12.5029C13.6896 12.5029 14.1686 12.0251 14.1686 11.4357C14.1686 10.8463 13.6896 10.3685 13.0986 10.3685C12.5077 10.3685 12.0287 10.8463 12.0287 11.4357C12.0287 12.0251 12.5077 12.5029 13.0986 12.5029ZM16.8702 10.9288C16.8702 11.4445 16.4511 11.8626 15.934 11.8626C15.4169 11.8626 14.9978 11.4445 14.9978 10.9288C14.9978 10.4131 15.4169 9.99497 15.934 9.99497C16.4511 9.99497 16.8702 10.4131 16.8702 10.9288ZM18.368 11.8627C18.8112 11.8627 19.1705 11.5043 19.1705 11.0623C19.1705 10.6203 18.8112 10.2619 18.368 10.2619C17.9249 10.2619 17.5656 10.6203 17.5656 11.0623C17.5656 11.5043 17.9249 11.8627 18.368 11.8627ZM19.6253 13.89C19.6253 14.3321 19.266 14.6904 18.8228 14.6904C18.3796 14.6904 18.0203 14.3321 18.0203 13.89C18.0203 13.448 18.3796 13.0896 18.8228 13.0896C19.266 13.0896 19.6253 13.448 19.6253 13.89ZM16.3888 14.7174C16.9059 14.7174 17.325 14.2993 17.325 13.7836C17.325 13.2679 16.9059 12.8498 16.3888 12.8498C15.8717 12.8498 15.4526 13.2679 15.4526 13.7836C15.4526 14.2993 15.8717 14.7174 16.3888 14.7174ZM14.2221 21.3341C14.2221 21.5993 14.0065 21.8143 13.7406 21.8143C13.4747 21.8143 13.2591 21.5993 13.2591 21.3341C13.2591 21.0688 13.4747 20.8539 13.7406 20.8539C14.0065 20.8539 14.2221 21.0688 14.2221 21.3341ZM15.6667 21.5742C15.9917 21.5742 16.2552 21.3115 16.2552 20.9873C16.2552 20.6631 15.9917 20.4003 15.6667 20.4003C15.3417 20.4003 15.0782 20.6631 15.0782 20.9873C15.0782 21.3115 15.3417 21.5742 15.6667 21.5742ZM18.4484 20.1071C18.4484 20.4755 18.1489 20.7741 17.7796 20.7741C17.4103 20.7741 17.1109 20.4755 17.1109 20.1071C17.1109 19.7387 17.4103 19.4401 17.7796 19.4401C18.1489 19.4401 18.4484 19.7387 18.4484 20.1071ZM18.2878 22.9081C18.731 22.9081 19.0903 22.5498 19.0903 22.1078C19.0903 21.6657 18.731 21.3073 18.2878 21.3073C17.8445 21.3073 17.4853 21.6657 17.4853 22.1078C17.4853 22.5498 17.8445 22.9081 18.2878 22.9081ZM16.3889 22.748C16.3889 23.1163 16.0895 23.415 15.7202 23.415C15.3508 23.415 15.0514 23.1163 15.0514 22.748C15.0514 22.3796 15.3508 22.081 15.7202 22.081C16.0895 22.081 16.3889 22.3796 16.3889 22.748ZM13.4463 23.3883C13.7713 23.3883 14.0348 23.1255 14.0348 22.8013C14.0348 22.4771 13.7713 22.2143 13.4463 22.2143C13.1213 22.2143 12.8578 22.4771 12.8578 22.8013C12.8578 23.1255 13.1213 23.3883 13.4463 23.3883ZM14.1415 24.5623C14.1415 24.9308 13.8422 25.2293 13.4728 25.2293C13.1035 25.2293 12.8041 24.9308 12.8041 24.5623C12.8041 24.194 13.1035 23.8954 13.4728 23.8954C13.8422 23.8954 14.1415 24.194 14.1415 24.5623ZM16.2015 25.5763C16.6447 25.5763 17.0041 25.2179 17.0041 24.7758C17.0041 24.3338 16.6447 23.9754 16.2015 23.9754C15.7584 23.9754 15.3991 24.3338 15.3991 24.7758C15.3991 25.2179 15.7584 25.5763 16.2015 25.5763ZM20.3211 24.2957C20.3211 24.8114 19.9018 25.2295 19.3848 25.2295C18.8678 25.2295 18.4486 24.8114 18.4486 24.2957C18.4486 23.7799 18.8678 23.3619 19.3848 23.3619C19.9018 23.3619 20.3211 23.7799 20.3211 24.2957ZM21.2571 27.5504C21.848 27.5504 22.327 27.0726 22.327 26.4832C22.327 25.8937 21.848 25.4159 21.2571 25.4159C20.6661 25.4159 20.1871 25.8937 20.1871 26.4832C20.1871 27.0726 20.6661 27.5504 21.2571 27.5504ZM18.2612 26.937C18.2612 27.4528 17.842 27.8709 17.3249 27.8709C16.8079 27.8709 16.3887 27.4528 16.3887 26.937C16.3887 26.4214 16.8079 26.0033 17.3249 26.0033C17.842 26.0033 18.2612 26.4214 18.2612 26.937ZM15.1046 29.6849C15.6217 29.6849 16.0408 29.2668 16.0408 28.7511C16.0408 28.2353 15.6217 27.8173 15.1046 27.8173C14.5876 27.8173 14.1684 28.2353 14.1684 28.7511C14.1684 29.2668 14.5876 29.6849 15.1046 29.6849ZM18.0203 30.9657C18.0203 31.5552 17.5412 32.033 16.9503 32.033C16.3594 32.033 15.8803 31.5552 15.8803 30.9657C15.8803 30.3764 16.3594 29.8986 16.9503 29.8986C17.5412 29.8986 18.0203 30.3764 18.0203 30.9657ZM21.8724 32.4598C22.5668 32.4598 23.1297 31.8984 23.1297 31.2059C23.1297 30.5133 22.5668 29.9519 21.8724 29.9519C21.1781 29.9519 20.6152 30.5133 20.6152 31.2059C20.6152 31.8984 21.1781 32.4598 21.8724 32.4598ZM20.2405 29.1513C20.2405 29.7407 19.7614 30.2185 19.1705 30.2185C18.5796 30.2185 18.1006 29.7407 18.1006 29.1513C18.1006 28.5619 18.5796 28.0841 19.1705 28.0841C19.7614 28.0841 20.2405 28.5619 20.2405 29.1513ZM23.9321 29.7919C24.6264 29.7919 25.1892 29.2306 25.1892 28.5379C25.1892 27.8455 24.6264 27.284 23.9321 27.284C23.2377 27.284 22.6748 27.8455 22.6748 28.5379C22.6748 29.2306 23.2377 29.7919 23.9321 29.7919ZM14.7837 26.5902C14.7837 27.0323 14.4244 27.3906 13.9812 27.3906C13.5381 27.3906 13.1788 27.0323 13.1788 26.5902C13.1788 26.1482 13.5381 25.7898 13.9812 25.7898C14.4244 25.7898 14.7837 26.1482 14.7837 26.5902Z" fill="white"/>
</g>
<defs>
<clipPath id="clip0_6267_7025">
<rect width="40" height="40" rx="6" fill="white"/>
</clipPath>
</defs>
</svg>
