<svg width="40" height="40" viewBox="0 0 40 40" fill="none" xmlns="http://www.w3.org/2000/svg">
<rect width="40" height="40" rx="6" fill="black"/>
<g clip-path="url(#clip0_8677_62248)">
<mask id="mask0_8677_62248" style="mask-type:luminance" maskUnits="userSpaceOnUse" x="10" y="7" width="19" height="26">
<path d="M28.8103 7H10.322V32.9009H28.8103V7Z" fill="white"/>
</mask>
<g mask="url(#mask0_8677_62248)">
<path d="M19.8076 13.4744C19.8076 12.4449 20.6789 11.6063 21.7484 11.6063H25.2209V7.0611H23.4846H21.7484C18.0693 7.0611 15.086 9.93288 15.086 13.4744C15.086 14.3985 15.2904 15.277 15.6558 16.0699C12.7985 17.2325 10.9011 19.7029 10.4593 22.829C9.94317 26.2613 11.3719 29.9638 14.4831 31.7524C17.26 33.4358 21.6017 33.3245 23.9471 30.9893V32.5395H28.7803V15.3425H21.7504C20.681 15.3425 19.8076 14.5039 19.8076 13.4744ZM24.0545 19.8897V24.2063C24.0545 26.5912 22.0457 28.5229 19.5703 28.5229C17.0948 28.5229 15.086 26.5892 15.086 24.2063C15.086 21.8234 17.0948 19.8897 19.5703 19.8897H24.0545Z" fill="#BFF009"/>
</g>
</g>
<defs>
<clipPath id="clip0_8677_62248">
<rect width="19" height="26" fill="white" transform="translate(10 7)"/>
</clipPath>
</defs>
</svg>
