<svg viewBox="0 0 40 40" fill="none" xmlns="http://www.w3.org/2000/svg">
    <rect width="40" height="40" rx="6" fill="#151522" />
    <path fill-rule="evenodd" clip-rule="evenodd"
        d="M13.0443 29.3225C10.2076 27.203 8.36712 23.8153 8.36712 20C8.36712 13.5777 13.5777 8.36712 20 8.36712C25.3025 8.36712 31.0924 11.5359 32.4913 16.3897C30.9263 10.9671 25.9278 7 20 7C12.8217 7 7 12.8217 7 20C7 27.1783 12.8217 33 20 33C27.1783 33 33 27.1783 33 20V19.3147H32.2864C32.2653 19.3147 32.2334 19.3147 32.191 19.3147C32.1062 19.3147 31.9862 19.3112 31.8307 19.3041C31.5234 19.2935 31.0995 19.2722 30.6225 19.2299C29.6475 19.1451 28.5347 18.9791 27.7788 18.6753C26.56 18.1878 25.8712 17.5449 25.087 16.7888L25.041 16.7465C24.2533 15.9905 23.3701 15.1391 21.8334 14.4185C20.3215 13.7084 18.6505 13.8215 17.4247 14.0758C16.803 14.203 16.266 14.3726 15.888 14.5103C15.6972 14.5774 15.5454 14.641 15.4394 14.6834C14.8212 14.9448 14.2207 15.2522 13.6166 15.5383C13.6166 15.5383 14.8071 15.8633 15.3935 16.047C15.4147 16.0541 15.4465 16.0647 15.4924 16.0788C15.5807 16.1071 15.7079 16.153 15.8597 16.2166C16.1707 16.3438 16.5769 16.531 16.9796 16.7924C17.6155 17.1987 18.1418 17.7144 18.3574 18.3432C17.0114 18.5199 15.7467 19.1133 14.8 19.6679C14.2277 20.0035 13.7508 20.3426 13.4152 20.5935C13.2492 20.7207 13.1149 20.8266 13.0231 20.9008C12.9454 20.9644 11.7302 22.0347 11.7302 22.0347C11.7302 22.0347 13.2986 22.2008 14.0723 22.3562C14.588 22.4587 15.2804 22.6283 16.0082 22.8791C16.7359 23.1334 17.4707 23.4655 18.0818 23.8929C18.6929 24.3204 19.1416 24.8114 19.3606 25.3766C20.0035 27.0228 19.3712 28.6231 18.103 29.5239C16.8489 30.4141 14.9448 30.6261 13.0408 29.3191L13.0443 29.3225ZM17.4812 31.3574C17.9934 31.1913 18.4704 30.9475 18.9013 30.6438C20.6253 29.4179 21.5332 27.1712 20.6394 24.8821C20.2862 23.9812 19.615 23.2959 18.8696 22.7731C18.1207 22.2503 17.2622 21.8687 16.4638 21.5897C15.941 21.4059 15.4324 21.2647 14.9908 21.1587C15.1497 21.0562 15.3158 20.9503 15.4959 20.8443C16.5487 20.2261 17.8769 19.6574 19.1487 19.6574C21.0668 19.6574 22.4941 20.2472 23.8576 20.8761C23.9813 20.9326 24.1049 20.9926 24.2321 21.0492C25.4508 21.6215 26.7296 22.222 28.2168 22.222C29.7041 22.222 30.7816 21.8158 31.5551 21.3918C30.8663 27.1571 25.9595 31.6293 20.0071 31.6293C19.1416 31.6293 18.2972 31.534 17.4883 31.3574H17.4812ZM30.0715 20.5546C29.5592 20.7278 28.9375 20.8549 28.2133 20.8549C27.0475 20.8549 26.0443 20.3886 24.7725 19.7951C24.6595 19.7421 24.5465 19.6891 24.4299 19.6362C23.1546 19.0462 21.6816 18.4209 19.7633 18.3079C19.5054 17.0397 18.5446 16.1707 17.7179 15.6408C17.6261 15.5807 17.5342 15.5242 17.4424 15.4712C17.5237 15.4535 17.6084 15.4324 17.6967 15.4147C18.806 15.185 20.1272 15.1285 21.247 15.6584C22.5753 16.2837 23.3278 17.0043 24.1084 17.7533L24.1367 17.778C24.9386 18.5481 25.79 19.3571 27.2701 19.9505C28.0932 20.2791 29.16 20.4557 30.0715 20.5546Z"
        fill="url(#paint0_linear_19788_57660)" />
    <defs>
        <linearGradient id="paint0_linear_19788_57660" x1="6.76685" y1="20.2403" x2="33.2332"
            y2="19.7563" gradientUnits="userSpaceOnUse">
            <stop stop-color="#29CCB9" />
            <stop offset="0.49" stop-color="#0091FF" />
            <stop offset="1" stop-color="#FF66B7" />
        </linearGradient>
    </defs>
</svg>