<svg width="32" height="32" viewBox="0 0 32 32" fill="none" xmlns="http://www.w3.org/2000/svg">
<rect width="32" height="32" rx="4" fill="#00DACC"/>
<g clip-path="url(#clip0_16709_116662)">
<path d="M28.5969 15.7414C28.5481 13.588 27.8916 11.4868 26.6963 9.65829C25.5011 7.82978 23.8112 6.34133 21.8039 5.34913C19.7966 4.35692 17.5459 3.89753 15.2879 4.01915C13.03 4.14077 10.848 4.83891 8.97099 6.04034C7.09395 7.24176 5.591 8.90218 4.61985 10.8474C3.6487 12.7926 3.24514 14.9509 3.4515 17.0958C3.65786 19.2407 4.46654 21.2932 5.7927 23.0379C7.11887 24.7826 8.91362 26.1553 10.9887 27.0118C11.6016 26.1344 12.0707 25.1733 12.3799 24.1615C12.6325 23.5493 12.9069 22.9472 13.1912 22.3648C13.8773 22.5605 14.6062 22.5751 15.3003 22.4071C15.9944 22.2391 16.6276 21.8947 17.1322 21.4108L17.1745 21.3705C16.5547 21.151 15.8867 21.0845 15.2326 21.1771C14.5785 21.2698 13.9597 21.5187 13.4339 21.9005C13.7817 21.2078 14.1612 20.5357 14.5507 19.8833C15.2242 20.1102 15.9498 20.1581 16.6497 20.022C17.3496 19.8859 17.9973 19.5708 18.5235 19.1106L18.5658 19.0703C17.967 18.8291 17.3147 18.733 16.6674 18.7909C16.0201 18.8487 15.398 19.0585 14.8568 19.4016C15.2463 18.7894 15.647 18.1873 16.0688 17.625C16.7657 17.7993 17.4995 17.7886 18.1905 17.594C18.8815 17.3994 19.5034 17.0283 19.9887 16.521L20.0204 16.4807C19.4448 16.302 18.8333 16.2543 18.2349 16.3414C17.6364 16.4286 17.0678 16.6482 16.5746 16.9826C16.6064 16.9424 16.6487 16.8925 16.6798 16.8523C16.9325 16.5412 17.1962 16.2301 17.4589 15.929C18.2609 15.679 18.9761 15.2255 19.5276 14.6171C20.0791 14.0088 20.4459 13.2687 20.5886 12.4766L20.5991 12.4162H20.5886C19.7535 12.623 18.9959 13.0486 18.4017 13.6445C17.8075 14.2405 17.4006 14.983 17.2269 15.788C16.9742 16.079 16.721 16.371 16.4789 16.671C16.6833 16.1622 16.7667 15.6165 16.723 15.0733C16.6793 14.5302 16.5097 14.0029 16.2263 13.5297L16.1946 13.57C15.7647 14.1292 15.5056 14.7909 15.4461 15.4817C15.3866 16.1725 15.5289 16.8655 15.8573 17.484C15.4567 18.0262 15.0671 18.5779 14.6982 19.1599C14.817 18.5749 14.7862 17.9712 14.6082 17.4C14.4303 16.8288 14.1105 16.3068 13.6759 15.8781L13.6548 15.9285C13.386 16.5664 13.3067 17.2624 13.4257 17.9404C13.5446 18.6184 13.8572 19.252 14.3292 19.772C13.9603 20.3842 13.6125 21.0165 13.2753 21.6689C13.3777 21.0596 13.326 20.4357 13.1244 19.8493C12.9228 19.2628 12.5771 18.7307 12.1161 18.297L12.095 18.3474C11.8545 19.016 11.8099 19.7345 11.9659 20.4255C12.1219 21.1164 12.4726 21.7539 12.9803 22.2694C12.7577 22.7209 12.5485 23.1704 12.3481 23.6442C12.293 23.596 12.2286 23.5586 12.1584 23.5339C11.7989 23.4345 11.455 23.2894 11.1361 23.1025C10.8725 22.9535 10.5926 22.8323 10.3014 22.7411C9.16339 22.3897 9.33201 21.8682 8.74325 20.814C8.55166 20.597 8.34807 20.3898 8.13334 20.1934C7.93412 20.0703 7.77099 19.9011 7.65921 19.7015C7.52939 19.4524 7.44723 19.1832 7.41659 18.9065C7.4131 18.7535 7.35937 18.6054 7.26296 18.483C7.16654 18.3605 7.03228 18.2699 6.87902 18.2239C5.20345 17.6722 5.95192 15.6047 6.0148 15.3333C5.98905 14.9824 5.90723 14.6373 5.77217 14.3099C5.75806 14.2673 5.74746 14.2237 5.74045 14.1795C5.69575 13.9653 5.70389 13.7441 5.76425 13.5334C5.82461 13.3227 5.93552 13.1282 6.08826 12.9653C6.28859 12.7745 6.9842 12.4634 7.13166 12.2826C7.27913 12.1019 7.38431 11.901 7.53233 11.7309C8.00051 11.2861 8.5414 10.9167 9.13389 10.637C9.61859 10.3863 9.70318 9.74394 9.89239 9.54307C10.2085 9.20175 10.6932 9.20175 11.0515 8.90071C11.2307 8.75019 11.4967 8.66963 11.6637 8.50958C12.5054 7.77543 13.5661 7.30901 14.6987 7.17504C15.4841 7.11405 16.2747 7.182 17.036 7.37591C17.1462 7.39354 17.2552 7.41707 17.3626 7.4464C19.1011 7.50682 21.1879 7.84761 21.9464 8.55038C22.3219 8.89402 22.6009 9.32189 22.7577 9.79482C22.881 10.161 23.0508 10.5115 23.2636 10.8384L23.7271 11.5608C24.0225 12.0163 24.1171 12.5645 23.9904 13.0861C23.9049 13.3398 23.8976 13.6114 23.9692 13.8689C24.2137 14.2204 24.5002 14.5438 24.8229 14.8324C24.9511 14.9533 25.0923 15.0609 25.2441 15.1536C25.6008 15.3563 25.9456 15.5775 26.277 15.8161C26.2878 15.9128 26.271 16.0106 26.2283 16.0989C26.1856 16.1873 26.1186 16.263 26.0343 16.318C25.7394 16.5687 25.1701 16.9604 25.1701 16.9604C25.1907 17.0713 25.226 17.1792 25.2753 17.2816C25.3593 17.422 25.5491 17.643 25.4862 17.8333C25.4233 18.0236 25.0121 18.1847 25.1278 18.3951C25.2436 18.6161 25.5385 18.676 25.4545 18.8769C25.3704 19.0677 24.9592 19.4069 25.0015 19.5494C25.0438 19.692 25.381 21.0334 24.6008 21.2656C23.6353 21.4474 22.6554 21.5515 21.6715 21.5767C21.5128 21.5854 21.359 21.6323 21.2245 21.713C21.09 21.7938 20.9792 21.9057 20.9024 22.0383C20.7531 22.3035 20.6566 22.5929 20.6181 22.8916C20.3334 23.9598 19.9563 25.0038 19.4906 26.0127C19.4906 26.0127 19.4589 26.0732 19.4166 26.1633C19.3144 26.3616 19.2502 26.5757 19.2269 26.7956C19.2932 26.957 19.3935 27.1039 19.5218 27.227C19.5893 27.3006 19.6778 27.354 19.7766 27.3808C19.8754 27.4075 19.9802 27.4063 20.0783 27.3775C22.6038 26.5392 24.787 24.9631 26.3166 22.8736C27.8463 20.7842 28.6443 18.2882 28.5969 15.7414Z" fill="white"/>
</g>
<defs>
<clipPath id="clip0_16709_116662">
<rect x="4" y="4" width="24" height="24" rx="12" fill="white"/>
</clipPath>
</defs>
</svg>
