<svg viewBox="0 0 40 40" fill="none" xmlns="http://www.w3.org/2000/svg">
<path d="M0 6C0 2.68629 2.68629 0 6 0H34C37.3137 0 40 2.68629 40 6V34C40 37.3137 37.3137 40 34 40H6C2.68629 40 0 37.3137 0 34V6Z" fill="#0E122F"/>
<path d="M19.6111 6C16.8855 6 14.2714 7.08276 12.3441 9.0101C10.4167 10.9374 9.33398 13.5515 9.33398 16.2771C9.33417 16.9264 9.3951 17.5742 9.51598 18.2122L10.8437 17.3041C13.1779 15.7031 16.9636 15.7031 19.2978 17.3041L20.691 18.2583L21.4478 18.7775C23.5515 20.2187 26.9596 20.2187 29.0615 18.7775L29.6809 18.3533C29.9869 16.8596 29.957 15.3165 29.5932 13.8357C29.2294 12.355 28.5409 10.9737 27.5776 9.79177C26.6142 8.60989 25.4001 7.657 24.0231 7.00212C22.6462 6.34724 21.1408 6.00676 19.616 6.0053L19.6111 6Z" fill="#F2B705"/>
<path d="M25.3865 22.4516C23.9183 22.4767 22.4758 22.0646 21.2425 21.2676L19.0959 19.7965C17.9276 19.0802 16.584 18.7011 15.2136 18.7011C13.8432 18.7011 12.4995 19.0802 11.3312 19.7965L9.94333 20.7466C9.87801 20.7913 9.80453 20.8227 9.72707 20.8391C9.64961 20.8554 9.5697 20.8563 9.49189 20.8417C9.41408 20.8272 9.3399 20.7974 9.27359 20.7542C9.20728 20.711 9.15013 20.6551 9.10541 20.5898C9.06069 20.5245 9.02927 20.451 9.01295 20.3735C8.99663 20.2961 8.99573 20.2161 9.01029 20.1383C9.02486 20.0605 9.0546 19.9864 9.09783 19.92C9.14106 19.8537 9.19694 19.7966 9.26225 19.7518L10.6498 18.8017C12.0193 17.949 13.6003 17.4971 15.2136 17.4971C16.8269 17.4971 18.4079 17.949 19.7774 18.8017L21.9239 20.2729C22.9661 20.9106 24.1642 21.2481 25.3861 21.2481C26.6079 21.2481 27.8061 20.9106 28.8483 20.2729L29.6633 19.7155C29.7286 19.6708 29.8021 19.6394 29.8795 19.6231C29.957 19.6067 30.0369 19.6059 30.1147 19.6204C30.1925 19.635 30.2667 19.6647 30.333 19.7079C30.3993 19.7512 30.4565 19.8071 30.5012 19.8724C30.5459 19.9377 30.5773 20.0112 30.5937 20.0886C30.61 20.1661 30.6109 20.246 30.5963 20.3238C30.5817 20.4016 30.552 20.4758 30.5088 20.5421C30.4655 20.6084 30.4097 20.6656 30.3444 20.7103L29.5297 21.268C28.2966 22.0649 26.8544 22.4769 25.3865 22.4516Z" fill="#53CBC8"/>
<path d="M15.1695 26.7672V20.961C15.165 20.8388 15.1702 20.7164 15.1851 20.5951C15.2031 20.4353 15.2794 20.2877 15.3994 20.1807C15.5194 20.0736 15.6747 20.0145 15.8355 20.0146C15.9913 20.0189 16.1401 20.0804 16.2533 20.1875C16.3666 20.2946 16.4363 20.4397 16.4492 20.5951C16.4739 20.7966 16.481 21 16.4704 21.2028V32.7811C16.4735 32.8712 16.4588 32.9611 16.4269 33.0454C16.395 33.1297 16.3468 33.2069 16.2848 33.2725C16.2229 33.338 16.1486 33.3906 16.0662 33.4272C15.9838 33.4638 15.895 33.4837 15.8048 33.4857C15.7145 33.4807 15.6262 33.4573 15.5452 33.417C15.4642 33.3767 15.3922 33.3204 15.3337 33.2514C15.2752 33.1823 15.2314 33.1021 15.2049 33.0156C15.1785 32.9291 15.1699 32.8381 15.1798 32.7482V28.8888L15.1695 26.7672Z" fill="#53CBC8"/>
<path d="M13.948 23.8438V26.7293C13.948 27.2212 13.6831 27.55 13.3112 27.5383C13.2144 27.5284 13.1204 27.4993 13.0349 27.453C12.9493 27.4066 12.8737 27.3437 12.8125 27.268C12.7513 27.1923 12.7057 27.1052 12.6783 27.0118C12.6509 26.9183 12.6422 26.8204 12.6528 26.7237V20.9545C12.6528 20.449 12.9472 20.1081 13.3301 20.1278C13.713 20.1474 13.942 20.4532 13.9439 20.9579C13.9499 21.9202 13.948 22.882 13.948 23.8438Z" fill="#53CBC8"/>
<path d="M17.6971 23.8407V21.8123C17.6971 21.3419 17.9465 21.0381 18.3184 21.0381C18.4122 21.0425 18.5042 21.0658 18.5888 21.1066C18.6734 21.1474 18.7488 21.2048 18.8107 21.2755C18.8725 21.3461 18.9194 21.4286 18.9486 21.5178C18.9778 21.6071 18.9887 21.7013 18.9806 21.7948C18.9947 23.1757 18.9947 24.5558 18.9806 25.9351C18.9928 26.0287 18.9848 26.1238 18.9573 26.214C18.9298 26.3043 18.8833 26.3877 18.821 26.4585C18.7587 26.5294 18.6819 26.5862 18.5959 26.6251C18.5099 26.6639 18.4166 26.684 18.3222 26.6839C17.9412 26.6801 17.6975 26.3914 17.6934 25.9097V23.8389L17.6971 23.8407Z" fill="#53CBC8"/>
<path d="M10.137 24.2636V22.2351C10.137 21.7651 10.3867 21.4609 10.7583 21.4609C10.8521 21.4653 10.944 21.4886 11.0286 21.5294C11.1132 21.5702 11.1887 21.6276 11.2505 21.6983C11.3123 21.769 11.3593 21.8514 11.3885 21.9407C11.4177 22.0299 11.4285 22.1241 11.4204 22.2177C11.433 23.5985 11.433 24.9786 11.4204 26.3579C11.4324 26.4515 11.4243 26.5465 11.3967 26.6367C11.3691 26.7269 11.3227 26.8102 11.2604 26.881C11.1981 26.9518 11.1214 27.0086 11.0355 27.0475C10.9496 27.0864 10.8564 27.1066 10.7621 27.1067C10.3837 27.1029 10.137 26.8142 10.1328 26.3326V24.2617L10.137 24.2636Z" fill="#53CBC8"/>
<path d="M20.8471 22.5352C21.0161 22.5353 21.178 22.6024 21.2975 22.7219C21.4169 22.8414 21.484 23.0034 21.484 23.1724V24.2753C21.484 24.4442 21.4169 24.6062 21.2974 24.7256C21.178 24.845 21.016 24.9121 20.8471 24.9121C20.6782 24.9121 20.5162 24.8451 20.3967 24.7256C20.2772 24.6062 20.2101 24.4442 20.21 24.2753V23.1724C20.21 23.0034 20.2771 22.8413 20.3966 22.7218C20.5161 22.6023 20.6782 22.5352 20.8471 22.5352Z" fill="#53CBC8"/>
<path d="M23.3702 23.502C23.5391 23.5021 23.7011 23.5692 23.8205 23.6887C23.9399 23.8082 24.007 23.9702 24.007 24.1392V30.3264C24.007 30.4953 23.9399 30.6573 23.8205 30.7767C23.7011 30.8961 23.5391 30.9632 23.3702 30.9632C23.2866 30.9632 23.2037 30.9468 23.1265 30.9148C23.0492 30.8828 22.9789 30.8359 22.9198 30.7768C22.8607 30.7176 22.8138 30.6474 22.7818 30.5701C22.7498 30.4928 22.7333 30.41 22.7334 30.3264V24.1392C22.7333 24.0555 22.7498 23.9726 22.7818 23.8953C22.8138 23.818 22.8606 23.7478 22.9198 23.6886C22.9789 23.6294 23.0491 23.5825 23.1264 23.5505C23.2037 23.5184 23.2866 23.502 23.3702 23.502Z" fill="#53CBC8"/>
<path d="M25.878 23.7422C26.047 23.7422 26.209 23.8093 26.3284 23.9287C26.4479 24.0481 26.5151 24.2101 26.5152 24.379V29.6385C26.5152 29.7221 26.4986 29.8049 26.4666 29.8821C26.4346 29.9594 26.3876 30.0295 26.3284 30.0886C26.2693 30.1477 26.199 30.1946 26.1218 30.2266C26.0445 30.2585 25.9617 30.2749 25.878 30.2749C25.7944 30.2749 25.7116 30.2585 25.6344 30.2266C25.5571 30.1946 25.4869 30.1477 25.4278 30.0886C25.3686 30.0295 25.3217 29.9593 25.2897 29.8821C25.2577 29.8049 25.2412 29.7221 25.2412 29.6385V24.379C25.2412 24.2101 25.3083 24.0481 25.4277 23.9287C25.5472 23.8093 25.7091 23.7422 25.878 23.7422Z" fill="#53CBC8"/>
<path d="M28.4181 23.1416C28.587 23.1416 28.7489 23.2087 28.8684 23.3281C28.9878 23.4475 29.0549 23.6095 29.0549 23.7784V26.0464C29.0549 26.2153 28.9878 26.3773 28.8684 26.4967C28.7489 26.6161 28.587 26.6832 28.4181 26.6832C28.2492 26.6832 28.0872 26.6161 27.9678 26.4967C27.8483 26.3773 27.7813 26.2153 27.7812 26.0464V23.7784C27.7813 23.6095 27.8483 23.4475 27.9678 23.3281C28.0872 23.2087 28.2492 23.1416 28.4181 23.1416Z" fill="#53CBC8"/>
</svg>
