<svg viewBox="0 0 40 40" fill="none" xmlns="http://www.w3.org/2000/svg">
  <rect width="40" height="40" rx="6" fill="#0E1027"/>
  <path d="M22.8598 7.04163C20.3716 7.0426 17.9856 8.03187 16.2267 9.79184C14.4678 11.5518 13.4799 13.9384 13.4805 16.4266C13.4805 16.4332 13.4805 16.4395 13.4805 16.4462V16.4615C13.4872 16.5794 13.5388 16.6902 13.6247 16.7712C13.7105 16.8522 13.8242 16.8972 13.9423 16.897H31.7772C31.8952 16.8972 32.0089 16.8522 32.0947 16.7712C32.1806 16.6902 32.2322 16.5794 32.2388 16.4615L32.2396 16.4462C32.2396 16.4395 32.2396 16.4332 32.2396 16.4266C32.2401 13.9383 31.2522 11.5517 29.4932 9.79168C27.7342 8.03169 25.3481 7.04248 22.8598 7.04163Z" fill="#53CBC8"/>
  <path d="M7.27244 26.905C7.27234 27.0179 7.23879 27.1282 7.17602 27.222C7.11325 27.3158 7.02409 27.3889 6.91979 27.432C6.8155 27.4752 6.70076 27.4864 6.59007 27.4644C6.47938 27.4423 6.37772 27.3879 6.29793 27.3081C6.21815 27.2283 6.16381 27.1266 6.14181 27.0159C6.11981 26.9052 6.13112 26.7904 6.17431 26.6862C6.2175 26.5819 6.29064 26.4928 6.38447 26.43C6.47831 26.3673 6.58862 26.3338 6.70149 26.3338C6.77649 26.3338 6.85077 26.3486 6.92006 26.3773C6.98935 26.406 7.0523 26.4481 7.10532 26.5011C7.15834 26.5542 7.20038 26.6172 7.22906 26.6865C7.25773 26.7558 7.27248 26.83 7.27244 26.905Z" fill="#E1147B"/>
  <path d="M31.1579 23.7451H12.0211C11.9237 23.7453 11.828 23.7706 11.7434 23.8188C11.6588 23.8669 11.5881 23.9362 11.5383 24.0199C11.4885 24.1035 11.4612 24.1986 11.4591 24.296C11.457 24.3933 11.4803 24.4895 11.5265 24.5752C11.5296 24.5812 11.5328 24.5871 11.536 24.593C11.5842 24.6821 11.6556 24.7566 11.7427 24.8084C11.8298 24.8603 11.9293 24.8876 12.0307 24.8875H31.1487C31.2501 24.8876 31.3496 24.8603 31.4367 24.8084C31.5238 24.7566 31.5952 24.6821 31.6434 24.593L31.6529 24.5752C31.6991 24.4895 31.7223 24.3932 31.7202 24.2959C31.7181 24.1985 31.6908 24.1034 31.6409 24.0197C31.591 23.9361 31.5203 23.8668 31.4356 23.8187C31.351 23.7706 31.2553 23.7452 31.1579 23.7451Z" fill="#E1147B"/>
  <path d="M33.7011 18.5676H12.021C11.9445 18.5678 11.8688 18.5835 11.7986 18.6139C11.7283 18.6443 11.665 18.6887 11.6125 18.7444C11.56 18.8001 11.5194 18.8659 11.4932 18.9378C11.4669 19.0096 11.4556 19.0861 11.4599 19.1625C11.4599 19.1685 11.4599 19.1745 11.4608 19.1804C11.4689 19.3237 11.5315 19.4585 11.636 19.557C11.7404 19.6555 11.8785 19.7102 12.0221 19.7099H33.7011C33.8446 19.7102 33.9828 19.6554 34.0872 19.557C34.1916 19.4585 34.2543 19.3237 34.2624 19.1804C34.2624 19.1745 34.2624 19.1685 34.2633 19.1625C34.2676 19.086 34.2562 19.0095 34.2299 18.9375C34.2036 18.8655 34.1629 18.7997 34.1103 18.744C34.0577 18.6883 33.9942 18.644 33.9239 18.6136C33.8535 18.5833 33.7777 18.5676 33.7011 18.5676Z" fill="#E1147B"/>
  <path d="M25.5381 31.5117H15.7674C15.6406 31.5117 15.5176 31.5546 15.4182 31.6333C15.3189 31.712 15.249 31.822 15.22 31.9454C15.191 32.0688 15.2045 32.1983 15.2583 32.3131C15.3122 32.4279 15.4032 32.5211 15.5166 32.5776L15.5525 32.5955C15.6303 32.6342 15.7161 32.6542 15.803 32.654H25.502C25.5889 32.6542 25.6748 32.6342 25.7527 32.5955L25.7883 32.5776C25.9017 32.5211 25.9928 32.4279 26.0466 32.3132C26.1004 32.1985 26.114 32.069 26.085 31.9456C26.056 31.8222 25.9863 31.7123 25.887 31.6335C25.7877 31.5548 25.6648 31.5118 25.5381 31.5117Z" fill="#E1147B"/>
  <path d="M31.5059 28.9225H21.7355C21.6088 28.9227 21.4859 28.9657 21.3867 29.0444C21.2875 29.1232 21.2177 29.2331 21.1888 29.3564C21.1598 29.4797 21.1732 29.6092 21.227 29.7239C21.2807 29.8386 21.3716 29.9318 21.4849 29.9884L21.5206 30.0064C21.5985 30.0449 21.6843 30.0649 21.7713 30.0647H31.4696C31.5566 30.0649 31.6424 30.045 31.7203 30.0064L31.756 29.9884C31.8692 29.9318 31.9601 29.8386 32.0139 29.724C32.0676 29.6093 32.0811 29.4799 32.0522 29.3566C32.0233 29.2333 31.9536 29.1234 31.8545 29.0446C31.7553 28.9659 31.6325 28.9228 31.5059 28.9225Z" fill="#E1147B"/>
  <path d="M18.1842 27.2961L18.1677 27.2784C18.0933 27.1982 18.0438 27.0979 18.0255 26.99C18.0072 26.8821 18.0207 26.7712 18.0645 26.6709C18.1083 26.5706 18.1804 26.4853 18.272 26.4253C18.3635 26.3654 18.4706 26.3335 18.5801 26.3335H34.4378C34.5472 26.3335 34.6543 26.3654 34.7459 26.4253C34.8375 26.4853 34.9096 26.5706 34.9533 26.6709C34.9971 26.7712 35.0107 26.8821 34.9923 26.99C34.974 27.0979 34.9246 27.1982 34.8502 27.2784L34.8336 27.2961C34.7808 27.3526 34.717 27.3977 34.6461 27.4286C34.5752 27.4596 34.4988 27.4756 34.4214 27.4758H18.5964C18.5191 27.4756 18.4426 27.4596 18.3717 27.4286C18.3008 27.3977 18.237 27.3526 18.1842 27.2961Z" fill="#E1147B"/>
  <path d="M8.74057 26.3338H16.3131C16.4398 26.334 16.5626 26.377 16.6619 26.4557C16.7611 26.5345 16.8308 26.6444 16.8598 26.7677C16.8888 26.891 16.8753 27.0205 16.8216 27.1352C16.7678 27.2499 16.677 27.3431 16.5637 27.3998L16.528 27.4177C16.4501 27.4563 16.3643 27.4764 16.2774 27.4761H8.77714C8.69016 27.4764 8.60432 27.4564 8.52642 27.4177L8.49076 27.3998C8.37752 27.3431 8.28668 27.25 8.23293 27.1354C8.17917 27.0208 8.16564 26.8913 8.19453 26.7681C8.22342 26.6448 8.29303 26.5349 8.39211 26.4561C8.4912 26.3773 8.61397 26.3342 8.74057 26.3338Z" fill="#E1147B"/>
  <path d="M10.5517 19.1387C10.5517 19.2515 10.5181 19.3618 10.4554 19.4557C10.3926 19.5495 10.3035 19.6226 10.1992 19.6658C10.0949 19.7089 9.98015 19.7202 9.86946 19.6981C9.75876 19.6761 9.65708 19.6217 9.57728 19.5419C9.49748 19.4621 9.44314 19.3604 9.42112 19.2497C9.39911 19.139 9.4104 19.0242 9.45359 18.92C9.49677 18.8157 9.56991 18.7265 9.66375 18.6638C9.75758 18.6011 9.86792 18.5676 9.98079 18.5676C10.0558 18.5676 10.13 18.5823 10.1993 18.611C10.2686 18.6397 10.3315 18.6818 10.3846 18.7348C10.4376 18.7879 10.4796 18.8508 10.5083 18.9201C10.537 18.9894 10.5517 19.0637 10.5517 19.1387Z" fill="#E1147B"/>
  <path d="M24.0099 21.8817C24.0114 21.8759 24.013 21.8698 24.0147 21.864C24.037 21.7807 24.0398 21.6934 24.023 21.6088C24.0061 21.5242 23.97 21.4446 23.9175 21.3762C23.865 21.3079 23.7975 21.2525 23.7201 21.2144C23.6427 21.1762 23.5577 21.1564 23.4714 21.1565H7.61125C7.525 21.1564 7.4399 21.1762 7.36252 21.2143C7.28515 21.2524 7.21758 21.3078 7.16505 21.3762C7.11253 21.4446 7.07646 21.5242 7.05963 21.6088C7.0428 21.6933 7.04567 21.7807 7.06801 21.864C7.06954 21.8698 7.07122 21.8759 7.07291 21.8817C7.10507 22.0012 7.17566 22.1068 7.27379 22.1821C7.37191 22.2575 7.49211 22.2984 7.61583 22.2987H23.4668C23.5906 22.2984 23.7108 22.2574 23.8089 22.1821C23.9071 22.1067 23.9777 22.0012 24.0099 21.8817Z" fill="#E1147B"/>
  <path d="M6.14157 21.7276C6.14151 21.8405 6.10799 21.9508 6.04523 22.0446C5.98248 22.1384 5.89331 22.2115 5.789 22.2547C5.6847 22.2979 5.56995 22.3091 5.45924 22.2871C5.34854 22.265 5.24686 22.2106 5.16707 22.1308C5.08727 22.0509 5.03295 21.9492 5.01095 21.8385C4.98895 21.7278 5.00027 21.6131 5.04348 21.5088C5.08669 21.4045 5.15984 21.3154 5.2537 21.2527C5.34756 21.19 5.45791 21.1565 5.57078 21.1565C5.72219 21.1566 5.86737 21.2168 5.97441 21.3239C6.08144 21.431 6.14157 21.5762 6.14157 21.7276Z" fill="#E1147B"/>
  <path d="M10.5517 24.3162C10.5517 24.4291 10.5181 24.5394 10.4554 24.6332C10.3926 24.727 10.3035 24.8002 10.1992 24.8433C10.0949 24.8865 9.98015 24.8977 9.86946 24.8757C9.75876 24.8536 9.65708 24.7993 9.57728 24.7195C9.49748 24.6396 9.44314 24.5379 9.42112 24.4272C9.39911 24.3165 9.4104 24.2018 9.45359 24.0975C9.49677 23.9932 9.56991 23.9041 9.66375 23.8414C9.75758 23.7786 9.86792 23.7451 9.98079 23.7451C10.1322 23.7452 10.2774 23.8053 10.3845 23.9124C10.4916 24.0195 10.5517 24.1648 10.5517 24.3162Z" fill="#E1147B"/>
  <path d="M20.2685 29.4938C20.2685 29.6067 20.2349 29.717 20.1722 29.8108C20.1094 29.9047 20.0203 29.9778 19.916 30.0209C19.8117 30.0641 19.697 30.0754 19.5863 30.0533C19.4756 30.0313 19.3739 29.9769 19.2941 29.8971C19.2143 29.8172 19.1599 29.7156 19.1379 29.6049C19.1159 29.4941 19.1272 29.3794 19.1704 29.2751C19.2136 29.1708 19.2867 29.0817 19.3806 29.019C19.4744 28.9563 19.5847 28.9228 19.6976 28.9227C19.7726 28.9227 19.8468 28.9375 19.9161 28.9662C19.9854 28.9949 20.0483 29.037 20.1014 29.09C20.1544 29.143 20.1964 29.206 20.2251 29.2753C20.2538 29.3446 20.2685 29.4188 20.2685 29.4938Z" fill="#E1147B"/>
  <path d="M14.2978 32.0828C14.2978 32.1956 14.2642 32.306 14.2015 32.3998C14.1387 32.4936 14.0496 32.5667 13.9453 32.6099C13.841 32.653 13.7262 32.6643 13.6155 32.6422C13.5048 32.6202 13.4031 32.5658 13.3233 32.4859C13.2435 32.4061 13.1892 32.3044 13.1672 32.1937C13.1452 32.083 13.1565 31.9682 13.1997 31.8639C13.2429 31.7597 13.3161 31.6705 13.41 31.6078C13.5038 31.5451 13.6142 31.5117 13.727 31.5117C13.802 31.5117 13.8763 31.5265 13.9455 31.5552C14.0148 31.5839 14.0777 31.626 14.1307 31.679C14.1837 31.732 14.2258 31.795 14.2544 31.8643C14.2831 31.9335 14.2978 32.0078 14.2978 32.0828Z" fill="#E1147B"/>
</svg>
