<svg width="40" height="40" viewBox="0 0 40 40" fill="none" xmlns="http://www.w3.org/2000/svg">
<rect width="40" height="40" rx="6" fill="#B16EFF"/>
<path d="M8 15.513V12.1583C8 11.1393 9.02335 10.3132 10.2857 10.3132H14.4416C15.7039 10.3132 16.7273 11.1393 16.7273 12.1583V14.8674C16.7273 15.3345 16.9571 15.7825 17.3663 16.1128C18.2184 16.8006 19.5998 16.8006 20.4519 16.1128L26.9669 10.8536C27.3956 10.5076 27.9769 10.3132 28.5832 10.3132H29.7143C30.9767 10.3132 32 11.1393 32 12.1583V13.0714C32 13.5608 31.7592 14.0301 31.3305 14.3761L24.8155 19.6352C23.9634 20.323 23.9634 21.4381 24.8155 22.1259C25.2246 22.4563 25.7797 22.6418 26.3583 22.6418H29.7143C30.9767 22.6418 32 23.4679 32 24.4869V27.8416C32 28.8606 30.9767 29.6867 29.7143 29.6867H25.5584C24.2961 29.6867 23.2727 28.8606 23.2727 27.8416V25.1326C23.2727 24.6655 23.0428 24.2175 22.6337 23.8872C21.7816 23.1994 20.4002 23.1994 19.5481 23.8872L13.0331 29.1463C12.6045 29.4923 12.0231 29.6867 11.4169 29.6867H10.2857C9.02335 29.6867 8 28.8606 8 27.8416V26.9285C8 26.4392 8.24082 25.9698 8.66947 25.6238L15.1845 20.3647C16.0366 19.6769 16.0366 18.5618 15.1845 17.874C14.7753 17.5437 14.2204 17.3581 13.6417 17.3581H10.2857C9.02335 17.3581 8 16.5321 8 15.513Z" fill="white"/>
</svg>
