<svg viewBox="0 0 40 40" fill="none" xmlns="http://www.w3.org/2000/svg">
    <g clip-path="url(#clip0_18977_12111)">
        <rect width="40" height="40" rx="6" fill="#FFF0DD" />
        <g clip-path="url(#clip1_18977_12111)">
            <path
                d="M10.841 17.2559C9.90701 16.3699 9.24843 15.2323 9.24843 13.8673V13.7236C9.32028 11.4006 11.2361 9.53268 13.5471 9.46084H28.3231C28.7063 9.47281 29.0176 9.74821 29.0176 10.1434V22.6443C29.3649 22.7041 29.5205 22.752 29.8438 22.8718C30.0953 22.9676 30.4665 23.1711 30.4665 23.1711V10.1434C30.4425 8.95793 29.5085 8 28.3231 8H13.5471C10.362 8.0479 7.7876 10.6582 7.7876 13.8553C7.7876 15.7113 8.63776 17.3038 10.0267 18.4174C10.1225 18.4893 10.2064 18.5851 10.4578 18.5851C10.8889 18.5851 11.2002 18.2378 11.1763 17.8666C11.1643 17.5553 11.0326 17.4475 10.841 17.2559Z"
                fill="black" />
            <path
                d="M27.9379 23.4744H16.347C15.5687 23.4864 14.9461 24.109 14.9461 24.8873V26.5517C14.97 27.3181 15.6286 27.9766 16.3949 27.9766H17.2571V26.5517H16.3949V24.9233C16.3949 24.9233 16.6105 24.9233 16.8619 24.9233C18.3227 24.9233 19.4004 26.2883 19.4004 27.7372C19.4004 29.0184 18.2269 30.6708 16.2632 30.5391C14.515 30.4194 13.581 28.8747 13.581 27.7372V13.6078C13.581 12.9731 13.0661 12.4463 12.4195 12.4463H11.27V13.8832H12.1322V27.7252C12.0843 30.5391 14.1318 31.964 16.2752 31.964L27.9499 31.9999C30.3088 31.9999 32.2127 30.0841 32.2127 27.7372C32.2127 25.3903 30.2968 23.4744 27.9379 23.4744ZM30.7518 27.833C30.7039 29.3417 29.4586 30.5511 27.9379 30.5511L19.8195 30.5151C20.4661 29.7608 20.8612 28.7909 20.8612 27.7372C20.8612 26.0728 19.8674 24.9233 19.8674 24.9233H27.9499C29.5065 24.9233 30.7638 26.1805 30.7638 27.7372L30.7518 27.833Z"
                fill="black" />
            <path
                d="M24.8334 14.1556H16.0923V12.7188H24.8334C25.2285 12.7188 25.5518 13.042 25.5518 13.4372C25.5518 13.8323 25.2285 14.1556 24.8334 14.1556Z"
                fill="black" />
            <path
                d="M24.8334 20.954H16.0923V19.5171H24.8334C25.2285 19.5171 25.5518 19.8404 25.5518 20.2355C25.5518 20.6307 25.2285 20.954 24.8334 20.954Z"
                fill="black" />
            <path
                d="M26.366 17.5555H16.0923V16.1187H26.366C26.7612 16.1187 27.0845 16.442 27.0845 16.8371C27.0845 17.2322 26.7732 17.5555 26.366 17.5555Z"
                fill="black" />
        </g>
    </g>
    <defs>
        <clipPath id="clip0_18977_12111">
            <rect width="40" height="40" rx="6" fill="white" />
        </clipPath>
        <clipPath id="clip1_18977_12111">
            <rect x="4" y="4" width="32" height="32" rx="16" fill="white" />
        </clipPath>
    </defs>
</svg>