<svg width="40" height="40" viewBox="0 0 40 40" fill="none" xmlns="http://www.w3.org/2000/svg">
<rect width="40" height="40" rx="6" fill="#001019"/>
<g clip-path="url(#clip0_6267_6937)">
<path fill-rule="evenodd" clip-rule="evenodd" d="M19.9924 32.939C23.8355 32.939 27.2882 31.2676 29.6632 28.6118C28.5584 27.6516 26.8935 27.5932 25.7174 28.5424L25.4927 28.7236C23.3393 30.4612 20.2014 30.2046 18.3589 28.1402C17.354 27.0142 15.6329 26.8993 14.4872 27.8816L11.8966 30.1026C14.1154 31.8776 16.93 32.939 19.9924 32.939ZM24.1975 26.6588C26.2486 25.0037 29.1316 25.063 31.1044 26.6616C32.2836 24.7078 32.962 22.4179 32.962 19.9695C32.962 17.2489 32.1244 14.7241 30.6928 12.6386C29.77 12.4421 28.7698 12.6716 28.0104 13.3445L27.7944 13.536C25.7234 15.3712 22.5771 15.2596 20.6413 13.2825C19.5855 12.2041 17.8609 12.1687 16.7618 13.2028L13.7471 16.039L12.0886 14.2762L15.1033 11.44C17.1624 9.50288 20.3928 9.56922 22.3706 11.5892C23.404 12.6447 25.0836 12.7043 26.1892 11.7246L26.4053 11.5331C27.0764 10.9384 27.8528 10.5375 28.6658 10.3266C26.368 8.25858 23.3272 7 19.9924 7C13.4086 7 7.9706 11.9058 7.13441 18.2613C9.13419 17.3017 11.6009 17.671 13.2314 19.3407C14.2608 20.3948 15.9182 20.5061 17.0792 19.599L18.7648 18.2822C20.8831 16.6272 23.8778 16.7073 25.9046 18.4732L29.1862 21.3323L27.5964 23.1571L24.3147 20.298C23.1622 19.2939 21.4594 19.2483 20.2548 20.1894L18.5693 21.5062C16.4361 23.1727 13.391 22.9683 11.4998 21.0316C10.4001 19.9055 8.60148 19.8662 7.45362 20.9433L7.08887 21.2855C7.36184 23.9944 8.46839 26.4572 10.1481 28.4136L12.9119 26.0442C15.0582 24.2041 18.2821 24.4195 20.1646 26.5286C21.1482 27.6306 22.8232 27.7676 23.9729 26.8401L24.1975 26.6588Z" fill="url(#paint0_linear_6267_6937)"/>
</g>
<defs>
<linearGradient id="paint0_linear_6267_6937" x1="20.0037" y1="32.8296" x2="20.0037" y2="7" gradientUnits="userSpaceOnUse">
<stop stop-color="#B52A2A"/>
<stop offset="1" stop-color="#780000"/>
</linearGradient>
<clipPath id="clip0_6267_6937">
<rect width="26" height="26" fill="white" transform="translate(7 7)"/>
</clipPath>
</defs>
</svg>
