<svg viewBox="0 0 40 40" fill="none" xmlns="http://www.w3.org/2000/svg">
<g id="solana">
<rect width="40" height="40" rx="6" fill="black"/>
<path id="Vector" d="M31.8764 26.0312L27.9145 30.1705C27.8284 30.2604 27.7241 30.3321 27.6083 30.3811C27.4925 30.4301 27.3676 30.4554 27.2414 30.4553H8.45995C8.37033 30.4553 8.28267 30.4298 8.20773 30.3819C8.13279 30.3341 8.07384 30.2659 8.03812 30.1858C8.0024 30.1058 7.99147 30.0173 8.00666 29.9312C8.02186 29.8452 8.06253 29.7653 8.12366 29.7015L12.0886 25.5622C12.1745 25.4725 12.2783 25.4009 12.3938 25.352C12.5092 25.303 12.6337 25.2776 12.7596 25.2774H31.54C31.6296 25.2774 31.7173 25.3029 31.7923 25.3508C31.8672 25.3986 31.9261 25.4668 31.962 25.5469C31.9976 25.6269 32.0085 25.7154 31.9933 25.8015C31.9781 25.8875 31.9375 25.9673 31.8764 26.0312ZM27.9145 17.6957C27.8284 17.6058 27.7241 17.5341 27.6083 17.4851C27.4925 17.4361 27.3676 17.4108 27.2414 17.4109H8.45995C8.37033 17.4109 8.28267 17.4364 8.20773 17.4843C8.13279 17.5322 8.07384 17.6003 8.03812 17.6804C8.0024 17.7605 7.99147 17.8489 8.00666 17.935C8.02186 18.021 8.06253 18.1009 8.12366 18.1647L12.0886 22.3041C12.1745 22.3937 12.2783 22.4653 12.3938 22.5143C12.5092 22.5632 12.6337 22.5886 12.7596 22.5888H31.54C31.6296 22.5888 31.7173 22.5633 31.7923 22.5154C31.8672 22.4676 31.9261 22.3994 31.962 22.3194C31.9976 22.2393 32.0085 22.1508 31.9933 22.0647C31.9781 21.9787 31.9375 21.8989 31.8764 21.835L27.9145 17.6957ZM8.45995 14.7224H27.2414C27.3676 14.7224 27.4925 14.6972 27.6083 14.6482C27.7241 14.5992 27.8284 14.5275 27.9145 14.4376L31.8764 10.2982C31.9375 10.2344 31.9781 10.1546 31.9933 10.0685C32.0085 9.98247 31.9976 9.89399 31.962 9.81392C31.9261 9.73385 31.8672 9.66569 31.7923 9.61782C31.7173 9.56994 31.6296 9.54444 31.54 9.54443H12.7596C12.6337 9.54464 12.5092 9.57003 12.3938 9.61901C12.2783 9.668 12.1745 9.73954 12.0886 9.82922L8.12469 13.9686C8.06361 14.0323 8.02296 14.1121 8.00773 14.198C7.9925 14.284 8.00334 14.3724 8.03894 14.4524C8.07453 14.5325 8.13333 14.6006 8.20811 14.6486C8.2829 14.6965 8.37042 14.7222 8.45995 14.7224Z" fill="url(#paint0_linear_5903_166933)"/>
</g>
<defs>
<linearGradient id="paint0_linear_5903_166933" x1="10.0259" y1="30.9537" x2="29.1469" y2="8.82771" gradientUnits="userSpaceOnUse">
<stop offset="0.08" stop-color="#9945FF"/>
<stop offset="0.3" stop-color="#8752F3"/>
<stop offset="0.5" stop-color="#5497D5"/>
<stop offset="0.6" stop-color="#43B4CA"/>
<stop offset="0.72" stop-color="#28E0B9"/>
<stop offset="0.97" stop-color="#19FB9B"/>
</linearGradient>
</defs>
</svg>
