<svg width="40" height="40" viewBox="0 0 40 40" fill="none" xmlns="http://www.w3.org/2000/svg">
<rect width="40" height="40" rx="6" fill="#0D111C"/>
<path d="M32.4536 26.7984L27.9984 20.7454C27.5145 20.0876 26.7978 19.6936 26.0345 19.6067C25.8608 19.5865 25.7057 19.4857 25.6188 19.3337C25.5303 19.1817 25.521 18.9971 25.5908 18.8357C25.8965 18.1314 25.9151 17.3139 25.5862 16.5662L22.572 9.68158C22.1253 8.6593 21.1154 8 20 8C18.8846 8 17.8748 8.66085 17.428 9.68158L14.4138 16.5662C14.0865 17.3139 14.1036 18.1314 14.4092 18.8357C14.479 18.9971 14.4681 19.1817 14.3813 19.3337C14.2928 19.4857 14.1393 19.5865 13.9655 19.6067C13.2023 19.6936 12.4856 20.0876 12.0016 20.7454L7.54631 26.7984C6.88547 27.6967 6.81876 28.9004 7.37567 29.8669C7.93414 30.8319 9.01072 31.3762 10.1183 31.2538L17.5878 30.4223C18.3991 30.3323 19.0987 29.9089 19.5548 29.2914C19.6587 29.1503 19.8247 29.0663 20 29.0663C20.1753 29.0663 20.3398 29.1503 20.4452 29.2914C20.9013 29.9089 21.6009 30.3323 22.4123 30.4223L29.8816 31.2538C30.9893 31.3779 32.0659 30.8333 32.6243 29.8669C33.1813 28.9004 33.1145 27.6967 32.4536 26.7984ZM16.3623 17.4303L19.3811 10.5379C19.4896 10.2913 19.7332 10.1315 20.0016 10.1315C20.2699 10.1315 20.5135 10.2913 20.6221 10.5379L23.6409 17.4303C23.7355 17.6474 23.7153 17.8988 23.585 18.0973C23.4547 18.2959 23.2344 18.4153 22.9956 18.4153H17.006C16.7687 18.4153 16.5469 18.2959 16.4165 18.0973C16.2862 17.8988 16.2676 17.6474 16.3623 17.4303ZM17.912 27.9232C17.8049 28.1356 17.5971 28.2784 17.3613 28.3047L9.8841 29.1362C9.61727 29.1657 9.35665 29.0354 9.22171 28.8028C9.08674 28.57 9.10381 28.28 9.26358 28.0627L13.7235 22.0034C13.8647 21.8126 14.0912 21.704 14.3285 21.718C14.5659 21.7304 14.78 21.8623 14.8994 22.0686L14.904 22.0763L17.8903 27.2483L17.8949 27.256C18.0144 27.4623 18.0206 27.7137 17.9135 27.9246L17.912 27.9232ZM20.6143 25.5838C20.4871 25.8025 20.2544 25.939 20 25.939C19.7472 25.939 19.5129 25.8041 19.3857 25.5854L17.0914 21.6125C16.9642 21.3938 16.9642 21.1223 17.0914 20.9036C17.2186 20.6849 17.4513 20.5483 17.7057 20.5483H22.2928C22.5457 20.5483 22.7799 20.6818 22.9071 20.902C23.0343 21.1223 23.0343 21.3922 22.9071 21.611L20.6143 25.5838ZM30.78 28.8028C30.6449 29.0354 30.3859 29.1674 30.1175 29.1378L22.6403 28.3063C22.4045 28.28 22.1966 28.1373 22.0896 27.9246C21.9826 27.7122 21.9888 27.4609 22.1082 27.256L22.1129 27.2483L25.0991 22.0763L25.1037 22.0686C25.2232 21.8623 25.4373 21.7304 25.6746 21.718C25.912 21.7056 26.1384 21.8126 26.2795 22.0034L30.7396 28.0627C30.8993 28.28 30.9134 28.57 30.78 28.8028Z" fill="#E91898"/>
</svg>
