<svg width="22" height="22" viewBox="0 0 22 22" fill="none" xmlns="http://www.w3.org/2000/svg">
<g id="Group 1321323677">
<path id="Path 4354" d="M10.7809 19.5268C8.40045 19.5268 6.21047 18.289 4.97266 16.1942L6.59134 15.2421C7.5435 16.6703 9.06697 17.6225 10.7809 17.6225V19.5268Z" fill="#C7C7C7"/>
<path id="Path 4353" d="M16.6851 9.05269C15.8282 7.62444 14.3047 6.67228 12.5908 6.67228V4.76794C14.9712 4.76794 17.1612 6.00576 18.399 8.10052L16.6851 9.05269Z" fill="#C7C7C7"/>
<path id="Vector" d="M3.20956 8.02855H1.315C1.07054 8.02855 0.889736 7.92019 0.772599 7.70345C0.655462 7.48671 0.668194 7.27753 0.810796 7.07591L5.37915 0.573776C5.48101 0.432644 5.61342 0.334356 5.7764 0.278911C5.93937 0.223467 6.10744 0.225987 6.2806 0.286472C6.45375 0.346957 6.58108 0.452806 6.66256 0.604018C6.74405 0.755231 6.77461 0.916524 6.75424 1.0879L6.26532 5.0043H8.63353C8.89836 5.0043 9.08425 5.12023 9.1912 5.35209C9.29815 5.58395 9.26505 5.80069 9.09189 6.00231L4.06517 11.9601C3.95313 12.0911 3.81562 12.1768 3.65265 12.2171C3.48967 12.2575 3.33179 12.2423 3.17901 12.1718C3.02622 12.1012 2.90653 11.9928 2.81995 11.8467C2.73337 11.7005 2.70027 11.5417 2.72064 11.3704L3.20956 8.02855Z" fill="#3E92E0"/>
<path id="Vector_2" d="M14.4513 21.9927C14.3092 21.9927 14.1901 21.9447 14.094 21.8485C13.9978 21.7524 13.9498 21.6333 13.9498 21.4912V20.4631C13.7993 20.2959 13.6781 20.1099 13.5862 19.9051C13.4942 19.7003 13.4482 19.4767 13.4482 19.2343V14.4698C13.4482 13.7761 13.7701 13.2683 14.4137 12.9465C15.0573 12.6247 16.0729 12.4637 17.4604 12.4637C18.8981 12.4637 19.9263 12.6184 20.5448 12.9277C21.1634 13.2369 21.4726 13.751 21.4726 14.4698V19.2343C21.4726 19.4767 21.4267 19.7003 21.3347 19.9051C21.2428 20.1099 21.1216 20.2959 20.9711 20.4631V21.4912C20.9711 21.6333 20.9231 21.7524 20.8269 21.8485C20.7308 21.9447 20.6117 21.9927 20.4696 21.9927H19.9681C19.826 21.9927 19.7069 21.9447 19.6107 21.8485C19.5146 21.7524 19.4665 21.6333 19.4665 21.4912V20.9897H15.4543V21.4912C15.4543 21.6333 15.4063 21.7524 15.3102 21.8485C15.214 21.9447 15.0949 21.9927 14.9528 21.9927H14.4513ZM14.4513 16.4759H20.4696V14.9714H14.4513V16.4759ZM15.7051 19.4851C15.9141 19.4851 16.0917 19.412 16.238 19.2657C16.3843 19.1194 16.4574 18.9418 16.4574 18.7328C16.4574 18.5238 16.3843 18.3462 16.238 18.1999C16.0917 18.0537 15.9141 17.9805 15.7051 17.9805C15.4961 17.9805 15.3185 18.0537 15.1722 18.1999C15.026 18.3462 14.9528 18.5238 14.9528 18.7328C14.9528 18.9418 15.026 19.1194 15.1722 19.2657C15.3185 19.412 15.4961 19.4851 15.7051 19.4851ZM19.2158 19.4851C19.4247 19.4851 19.6024 19.412 19.7486 19.2657C19.8949 19.1194 19.9681 18.9418 19.9681 18.7328C19.9681 18.5238 19.8949 18.3462 19.7486 18.1999C19.6024 18.0537 19.4247 17.9805 19.2158 17.9805C19.0068 17.9805 18.8292 18.0537 18.6829 18.1999C18.5366 18.3462 18.4635 18.5238 18.4635 18.7328C18.4635 18.9418 18.5366 19.1194 18.6829 19.2657C18.8292 19.412 19.0068 19.4851 19.2158 19.4851Z" fill="#50BEAF"/>
</g>
</svg>
