<svg width="40" height="40" viewBox="0 0 40 40" fill="none" xmlns="http://www.w3.org/2000/svg">
<rect width="40" height="40" rx="6" fill="black"/>
<g clip-path="url(#clip0_6313_59542)">
<mask id="mask0_6313_59542" style="mask-type:alpha" maskUnits="userSpaceOnUse" x="29" y="9" width="5" height="8">
<path d="M29.328 9.7168H33.2266V16.6075H29.328V9.7168Z" fill="black"/>
</mask>
<g mask="url(#mask0_6313_59542)">
<path d="M32.7632 9.7168H26.7914C26.5377 9.7168 26.332 9.92247 26.332 10.1762V16.1481C26.332 16.4018 26.5377 16.6075 26.7914 16.6075H32.7632C33.0168 16.6075 33.2225 16.4018 33.2225 16.1481V10.1762C33.2225 9.92247 33.0168 9.7168 32.7632 9.7168Z" fill="white" fill-opacity="0.5"/>
</g>
<mask id="mask1_6313_59542" style="mask-type:alpha" maskUnits="userSpaceOnUse" x="29" y="23" width="5" height="8">
<path d="M29.328 23.5029H33.2266V30.3936H29.328V23.5029Z" fill="black"/>
</mask>
<g mask="url(#mask1_6313_59542)">
<path d="M32.7651 23.5039H26.7934C26.5396 23.5039 26.334 23.7096 26.334 23.9633V29.9352C26.334 30.1889 26.5396 30.3946 26.7934 30.3946H32.7651C33.0188 30.3946 33.2245 30.1889 33.2245 29.9352V23.9633C33.2245 23.7096 33.0188 23.5039 32.7651 23.5039Z" fill="white" fill-opacity="0.5"/>
</g>
<path d="M19.9924 16.627H14.049C13.7965 16.627 13.5918 16.8302 13.5918 17.0808V22.982C13.5918 23.2327 13.7965 23.4359 14.049 23.4359H19.9924C20.2449 23.4359 20.4496 23.2327 20.4496 22.982V17.0808C20.4496 16.8302 20.2449 16.627 19.9924 16.627Z" fill="white"/>
<path d="M13.1127 9.71875H7.14101C6.88731 9.71875 6.68164 9.92442 6.68164 10.1781V16.15C6.68164 16.4037 6.88731 16.6094 7.14101 16.6094H13.1127C13.3665 16.6094 13.5721 16.4037 13.5721 16.15V10.1781C13.5721 9.92442 13.3665 9.71875 13.1127 9.71875Z" fill="white"/>
<path d="M26.892 9.71875H20.9203C20.6666 9.71875 20.4609 9.92442 20.4609 10.1781V16.15C20.4609 16.4037 20.6666 16.6094 20.9203 16.6094H26.892C27.1458 16.6094 27.3514 16.4037 27.3514 16.15V10.1781C27.3514 9.92442 27.1458 9.71875 26.892 9.71875Z" fill="white"/>
<path d="M13.1128 23.4946H7.14101C6.88731 23.4946 6.68164 23.7003 6.68164 23.954V29.9259C6.68164 30.1796 6.88731 30.3853 7.14101 30.3853H13.1128C13.3665 30.3853 13.5721 30.1796 13.5721 29.9259V23.954C13.5721 23.7003 13.3665 23.4946 13.1128 23.4946Z" fill="white"/>
<path d="M26.892 23.4946H20.9203C20.6666 23.4946 20.4609 23.7003 20.4609 23.954V29.9259C20.4609 30.1796 20.6666 30.3853 20.9203 30.3853H26.892C27.1458 30.3853 27.3514 30.1796 27.3514 29.9259V23.954C27.3514 23.7003 27.1458 23.4946 26.892 23.4946Z" fill="white"/>
</g>
<defs>
<clipPath id="clip0_6313_59542">
<rect width="27" height="21.0938" fill="white" transform="translate(6.5 9.45312)"/>
</clipPath>
</defs>
</svg>
