<svg width="40" height="40" viewBox="0 0 40 40" fill="none" xmlns="http://www.w3.org/2000/svg">
<rect width="40" height="40" rx="6" fill="#252525"/>
<path fill-rule="evenodd" clip-rule="evenodd" d="M7.03857 20.0005C7.03857 12.8204 12.8419 7 19.9997 7C27.1588 7 32.962 12.8204 32.9615 19.9999C32.9615 22.5431 32.2331 24.9153 30.975 26.9185C30.628 27.4704 30.2415 27.9944 29.8181 28.4868L20.0169 18.6568L11.5887 27.1092L10.1972 28.5047C9.7725 28.0135 9.38476 27.4903 9.03784 26.939C7.77132 24.9319 7.03857 22.5519 7.03857 20.0005ZM29.4891 25.0662L29.6076 24.8283L29.6083 24.829C30.3519 23.3413 30.7447 21.6713 30.7447 20.0005C30.7447 14.0587 25.9247 9.22453 20.0003 9.22453C14.0759 9.22453 9.25658 14.0587 9.25658 20.0005C9.25658 21.6801 9.65324 23.3573 10.4038 24.8507L10.5231 25.0873L20.0169 15.5656L29.4891 25.0662ZM20.0002 33C23.2271 33 26.1791 31.8174 28.4481 29.8602V29.8596L20.0174 21.404L11.5708 29.8749C13.8366 31.8239 16.7733 33 20.0002 33Z" fill="url(#paint0_linear_9372_207979)"/>
<defs>
<linearGradient id="paint0_linear_9372_207979" x1="20" y1="7" x2="20.0385" y2="33" gradientUnits="userSpaceOnUse">
<stop stop-color="#169E00"/>
<stop offset="0.49" stop-color="#00C537"/>
<stop offset="1" stop-color="#00B1C9"/>
</linearGradient>
</defs>
</svg>
