<svg width="40" height="40" viewBox="0 0 40 40" fill="none" xmlns="http://www.w3.org/2000/svg">
<rect width="40" height="40" rx="6" fill="black"/>
<path d="M32.9691 19.1176C32.4819 11.9549 26.2804 6.54327 19.1176 7.03048C15.5494 7.27318 12.4164 8.93453 10.2301 11.4258L10.224 11.4214C10.2093 11.4417 10.1956 11.4619 10.1809 11.4822C8.00922 13.9856 6.7878 17.3143 7.03047 20.882C7.05359 21.2219 7.09361 21.5565 7.14196 21.8881C7.14198 21.8882 7.14198 21.8883 7.14199 21.8884C7.14417 21.9033 7.14639 21.9183 7.1485 21.9333C7.18119 22.1521 7.21914 22.3689 7.26245 22.5837C7.26247 22.5838 7.26249 22.584 7.26252 22.5841C7.26331 22.588 7.26406 22.5919 7.26483 22.5958C7.30425 22.7904 7.34805 22.9832 7.39597 23.1743L7.39606 23.1747C7.3961 23.1748 7.39614 23.1749 7.39617 23.1751C8.8975 29.1623 14.5071 33.4027 20.882 32.9691C28.0447 32.4819 33.4563 26.2804 32.9691 19.1176ZM30.1395 19.3101C30.1995 20.192 30.144 21.0553 29.9869 21.886C29.985 21.8813 29.9835 21.8763 29.9816 21.8716C29.0391 19.5679 27.1749 17.9047 25.5354 16.986C25.8672 13.0826 24.543 11.4381 23.0443 11.1706C23.0035 11.1627 22.9624 11.156 22.9208 11.1509C21.7313 10.9983 20.6435 11.8391 20.4911 13.0286C20.3385 14.2181 21.1794 15.3059 22.3688 15.4585C22.4725 15.4716 22.5752 15.4753 22.6769 15.4737C22.6835 15.6055 22.6875 15.7454 22.6887 15.8918C21.3029 15.5484 20.0075 15.4812 18.8264 15.5874C18.3847 15.6168 17.9427 15.6725 17.5031 15.7545C17.6506 14.4365 18.1451 12.9567 19.1046 11.8738C20.0322 10.8269 21.4113 10.2269 22.9157 10.3809C23.2009 10.4101 23.5052 10.4801 23.7792 10.5721C23.7918 10.5763 23.8052 10.5799 23.8177 10.5842C23.8178 10.584 23.8181 10.5837 23.8183 10.5834C27.3029 12.003 29.8673 15.3101 30.1395 19.3101ZM21.0787 21.2957C21.0778 21.2971 21.0768 21.2985 21.0759 21.2999C20.7657 21.7473 20.3968 22.1884 19.9637 22.6151C19.3146 21.9243 18.7931 21.1806 18.3974 20.4111C18.3771 20.3698 18.3554 20.3305 18.3357 20.2887C18.3349 20.2871 18.3342 20.2856 18.3334 20.2841C18.101 19.7916 17.9034 19.2513 17.7504 18.6627C18.6742 18.4454 19.58 18.3655 20.4452 18.4076C20.4911 18.4106 20.5359 18.4115 20.5821 18.4153C20.5837 18.4154 20.5854 18.4156 20.5871 18.4156C21.129 18.4605 21.6948 18.5593 22.28 18.7207C22.0064 19.629 21.6227 20.4532 21.1539 21.1811C21.1283 21.2192 21.1052 21.2576 21.0787 21.2957ZM16.6367 10.4111C16.6343 10.4142 16.6315 10.4172 16.6291 10.4203C15.1061 12.3873 14.5976 14.8319 14.6211 16.7107C11.075 18.375 10.313 20.344 10.8306 21.7757C10.8442 21.8149 10.8589 21.8538 10.8753 21.8925C11.3379 22.9989 12.61 23.5206 13.7163 23.0578C14.8227 22.5951 15.3444 21.3231 14.8818 20.2167C14.8413 20.1203 14.7932 20.0296 14.741 19.9423C14.853 19.8699 14.9734 19.7956 15.1012 19.7204C15.4967 21.0926 16.0818 22.2532 16.7644 23.223C17.0103 23.5902 17.2789 23.9444 17.5692 24.2833C16.3538 24.8149 14.8247 25.1268 13.4067 24.8372C12.0363 24.5573 10.8272 23.663 10.2083 22.2831C10.091 22.0216 9.99952 21.723 9.94219 21.4398C9.90692 21.1924 9.87737 20.9428 9.86014 20.6895C9.54338 16.0328 12.4324 11.8873 16.6367 10.4111ZM20.6895 30.1395C17.9242 30.3275 15.3394 29.3844 13.3858 27.7078C15.8508 28.0433 18.2221 27.2614 19.8374 26.3015C23.0532 28.5422 25.1402 28.2178 26.1215 27.0534C26.1487 27.0221 26.175 26.9898 26.2003 26.9564C26.9272 26.0024 26.7429 24.64 25.7891 23.9133C24.8351 23.1865 23.4726 23.3707 22.7458 24.3245C22.6825 24.4078 22.6281 24.4948 22.5786 24.5836C22.4606 24.5232 22.3368 24.4566 22.2089 24.3839C23.2003 23.355 23.9068 22.2659 24.4056 21.1892C24.601 20.792 24.7738 20.3814 24.9225 19.9596C25.9911 20.7464 27.0266 21.9152 27.4851 23.2887C27.9278 24.6154 27.7579 26.1098 26.8724 27.3356C26.7045 27.5681 26.4917 27.7966 26.275 27.9879C26.2719 27.9907 26.2688 27.9935 26.2657 27.9964C24.7164 29.2141 22.7995 29.996 20.6895 30.1395Z" fill="url(#paint0_linear_19878_6353)"/>
<path style="mix-blend-mode:overlay" opacity="0.9" d="M23.0446 11.1705C23.0039 11.1627 22.9628 11.156 22.9212 11.1508C22.7107 11.1238 22.5038 11.1294 22.3043 11.161C23.5479 11.8376 24.4546 13.7226 23.9779 17.4409C23.82 18.6724 23.4538 19.8443 22.925 20.9197C22.4965 21.8443 21.9135 22.7778 21.1299 23.6749C21.5062 23.9572 21.8732 24.1934 22.2092 24.3839C23.2006 23.3549 23.9071 22.2659 24.406 21.1892C24.9348 20.1139 25.301 18.9419 25.4589 17.7104C26.0265 13.2831 24.633 11.4541 23.0446 11.1705Z" fill="url(#paint1_radial_19878_6353)"/>
<g style="mix-blend-mode:overlay" opacity="0.8">
<path d="M23.9781 17.441C24.4548 13.7227 23.5481 11.8377 22.3045 11.1611C22.256 11.1688 22.2083 11.1792 22.1607 11.1901C23.3782 11.89 24.2543 13.7732 23.784 17.441C23.6262 18.6725 23.2599 19.8444 22.7312 20.9198C22.3168 21.8138 21.7565 22.7159 21.0117 23.5856C21.0513 23.6162 21.0907 23.6454 21.1301 23.675C21.9137 22.7779 22.4968 21.8444 22.9252 20.9198C23.4541 19.8444 23.8202 18.6725 23.9781 17.441Z" fill="white"/>
</g>
<path style="mix-blend-mode:overlay" opacity="0.5" d="M19.2502 25.8744C19.1334 25.7853 19.0209 25.6921 18.9084 25.5989C17.0732 26.3646 14.5291 26.8447 12.0029 26.2584C12.4166 26.7858 12.8783 27.2727 13.3853 27.7078C15.8504 28.0433 18.2217 27.2613 19.837 26.3016C19.6452 26.1679 19.4501 26.0266 19.2502 25.8744Z" fill="url(#paint2_radial_19878_6353)"/>
<path style="mix-blend-mode:overlay" opacity="0.6" d="M18.9086 25.5988C18.8525 25.5523 18.7959 25.5061 18.7408 25.4585C16.8916 26.1975 14.3359 26.6392 11.8154 26.0111C11.8768 26.0945 11.9393 26.177 12.0031 26.2583C14.5293 26.8446 17.0734 26.3645 18.9086 25.5988Z" fill="url(#paint3_linear_19878_6353)"/>
<path style="mix-blend-mode:overlay" opacity="0.9" d="M10.8311 21.7779C10.8447 21.817 10.8594 21.8559 10.8757 21.8946C10.9576 22.0904 11.0659 22.2667 11.193 22.4237C11.1571 21.0084 12.3363 19.2807 15.7947 17.8344C16.9402 17.3554 18.1383 17.0866 19.3339 17.0069C20.349 16.9156 21.4489 16.9537 22.6176 17.1838C22.6738 16.7168 22.6949 16.2809 22.6919 15.8946C21.3051 15.5506 20.0087 15.4833 18.8268 15.5895C17.6311 15.6692 16.4331 15.9381 15.2876 16.4171C11.1697 18.1392 10.2825 20.2604 10.8311 21.7779Z" fill="url(#paint4_radial_19878_6353)"/>
<g style="mix-blend-mode:overlay" opacity="0.8">
<path d="M15.7949 17.8345C12.3364 19.2808 11.1573 21.0085 11.1932 22.4237C11.2241 22.462 11.2569 22.4981 11.2901 22.5338C11.2875 21.1295 12.4804 19.4292 15.8919 18.0025C17.0374 17.5235 18.2354 17.2547 19.4311 17.1749C20.4126 17.0867 21.4739 17.1209 22.5994 17.3311C22.6062 17.2815 22.6118 17.2328 22.6177 17.1839C21.449 16.9538 20.3491 16.9156 19.3341 17.0069C18.1384 17.0866 16.9403 17.3555 15.7949 17.8345Z" fill="white"/>
</g>
<path style="mix-blend-mode:overlay" opacity="0.4" d="M25.4621 17.7113C25.4435 17.857 25.419 18.001 25.3945 18.145C26.9752 19.3515 28.6631 21.3148 29.4185 23.7956C29.6682 23.1737 29.8591 22.5304 29.9824 21.8737C29.0405 19.5712 27.1776 17.9086 25.5387 16.9895C25.519 17.2224 25.4941 17.4621 25.4621 17.7113Z" fill="url(#paint5_radial_19878_6353)"/>
<path style="mix-blend-mode:overlay" opacity="0.5" d="M25.3941 18.145C25.3818 18.217 25.3701 18.2891 25.3564 18.3606C26.921 19.5924 28.5814 21.5849 29.2976 24.0818C29.3391 23.9869 29.3794 23.8915 29.418 23.7956C28.6626 21.3147 26.9748 19.3515 25.3941 18.145Z" fill="url(#paint6_linear_19878_6353)"/>
<path style="mix-blend-mode:overlay" opacity="0.9" d="M26.1231 27.0505C26.1503 27.0192 26.1766 26.9869 26.2019 26.9535C26.3305 26.7847 26.4292 26.6027 26.5015 26.4142C25.2938 27.1529 23.208 26.9955 20.2262 24.7236C19.2386 23.9711 18.4068 23.068 17.7399 22.0723C17.1534 21.2389 16.6364 20.2673 16.2514 19.1401C15.8187 19.3249 15.4306 19.5246 15.0977 19.7204C15.4932 21.0934 16.0831 22.2497 16.766 23.2202C17.4329 24.2159 18.2647 25.1189 19.2523 25.8714C22.8027 28.5766 25.0833 28.2844 26.1231 27.0505Z" fill="url(#paint7_radial_19878_6353)"/>
<g style="mix-blend-mode:overlay" opacity="0.8">
<path d="M20.2267 24.7236C23.2086 26.9955 25.2944 27.1528 26.5021 26.4141C26.5197 26.3682 26.5346 26.3217 26.5489 26.2751C25.334 26.9795 23.2651 26.7966 20.3238 24.5554C19.3362 23.803 18.5044 22.8999 17.8375 21.9042C17.2704 21.0984 16.7694 20.1621 16.3886 19.0823C16.3423 19.1013 16.2973 19.1208 16.252 19.1401C16.637 20.2673 17.154 21.2389 17.7405 22.0723C18.4074 23.068 19.2392 23.9711 20.2267 24.7236Z" fill="white"/>
</g>
<path style="mix-blend-mode:overlay" opacity="0.3" d="M15.2862 16.4132C15.4217 16.3565 15.5587 16.3057 15.6956 16.255C15.9502 14.2827 16.8064 11.8394 18.5772 9.94482C17.9138 10.0394 17.2612 10.1958 16.6308 10.4173C15.1078 12.3844 14.5993 14.8289 14.6228 16.7077C14.8344 16.6085 15.0545 16.5101 15.2862 16.4132Z" fill="url(#paint8_radial_19878_6353)"/>
<path style="mix-blend-mode:overlay" opacity="0.4" d="M15.6953 16.255C15.7638 16.2296 15.8321 16.2037 15.9008 16.1798C16.1854 14.2089 17.0807 11.7747 18.885 9.90601C18.782 9.91749 18.6793 9.93031 18.5769 9.9449C16.8061 11.8395 15.9499 14.2828 15.6953 16.255Z" fill="url(#paint9_linear_19878_6353)"/>
<path style="mix-blend-mode:multiply" opacity="0.4" d="M19.1175 7.03046C15.5493 7.27316 12.4163 8.9345 10.23 11.4258C10.2135 11.4446 10.1971 11.4635 10.1807 11.4824L10.1808 11.4822C10.6064 11.9044 11.9975 12.7369 12.5613 13.0841C13.6683 11.8936 15.06 10.9646 16.6366 10.4111C16.7467 10.2692 16.8608 10.1292 16.9817 9.99276C18.4502 8.33577 20.4554 7.45995 22.7813 7.45995C23.0402 7.45995 23.5674 7.50116 23.5788 7.502C22.1687 7.0969 20.666 6.92513 19.1175 7.03046Z" fill="url(#paint10_linear_19878_6353)"/>
<path style="mix-blend-mode:multiply" opacity="0.4" d="M20.6898 30.1394C17.9245 30.3275 15.3396 29.3843 13.3861 27.7078C13.2042 27.6831 13.022 27.6533 12.8394 27.6161C10.6702 27.1728 8.90908 25.8741 7.74613 23.8598C7.61669 23.6356 7.50087 23.4072 7.39648 23.1752C8.89785 29.1624 14.5075 33.4027 20.8823 32.9691C20.9105 32.3126 20.717 30.7894 20.6898 30.1394Z" fill="url(#paint11_linear_19878_6353)"/>
<path style="mix-blend-mode:multiply" opacity="0.4" d="M32.9689 19.1176C32.5695 19.0767 30.6188 19.2307 30.1392 19.3101C30.1992 20.1919 30.1437 21.0554 29.9867 21.886C30.054 22.0513 30.1178 22.219 30.1752 22.3909C30.876 24.491 30.6318 26.6655 29.4689 28.6798C29.3418 28.8999 29.2047 29.1106 29.059 29.3134C29.0562 29.3173 29.053 29.3218 29.0508 29.325C29.0506 29.3251 29.0568 29.3199 29.0601 29.3167C31.7004 26.7479 33.2384 23.081 32.9689 19.1176Z" fill="url(#paint12_linear_19878_6353)"/>
<path style="mix-blend-mode:multiply" opacity="0.5" d="M22.9157 10.3809C23.201 10.4101 23.5052 10.4801 23.7792 10.5721C23.7918 10.5764 23.8052 10.5799 23.8177 10.5843C23.8178 10.584 23.8181 10.5837 23.8183 10.5834C24.9397 11.0403 25.9649 11.6935 26.8501 12.5015C26.852 12.5031 26.8538 12.5044 26.8558 12.506C27.2823 12.0183 28.1037 11.4824 28.1037 11.4824C28.1037 11.4824 26.846 10.1959 24.9225 9.79668C23.5759 9.51718 20.5386 9.24626 18.623 12.506C18.623 12.506 18.6307 12.4988 18.6419 12.4884C18.7836 12.2743 18.9343 12.0661 19.1047 11.8738C20.0322 10.827 21.4113 10.2269 22.9157 10.3809Z" fill="url(#paint13_linear_19878_6353)"/>
<path style="mix-blend-mode:multiply" opacity="0.5" d="M26.8718 27.3345C26.7039 27.567 26.4912 27.7955 26.2745 27.9868C26.2645 27.9955 26.2548 28.0053 26.2448 28.014C26.2449 28.0143 26.2451 28.0146 26.2452 28.0149C25.2889 28.7577 24.2105 29.319 23.0682 29.6815C23.0659 29.6823 23.0638 29.6833 23.0615 29.6842C23.2706 30.2974 23.324 31.2767 23.324 31.2767C23.324 31.2767 25.0669 30.8308 26.3744 29.3645C27.2897 28.3381 29.043 25.8433 27.1778 22.5544C27.1778 22.5544 27.1803 22.5647 27.1836 22.5796C27.2982 22.8093 27.4032 23.0439 27.4845 23.2876C27.9272 24.6144 27.7574 26.1087 26.8718 27.3345Z" fill="url(#paint14_linear_19878_6353)"/>
<path style="mix-blend-mode:multiply" opacity="0.5" d="M10.2132 22.2869C10.0959 22.0254 10.0044 21.7268 9.94709 21.4435C9.94445 21.4305 9.94086 21.4172 9.93838 21.4042C9.93809 21.4042 9.93767 21.4041 9.93737 21.4041C9.7723 20.2045 9.82537 18.99 10.0826 17.8194C10.083 17.817 10.0832 17.8147 10.0836 17.8123C9.44796 17.6867 8.57321 17.2433 8.57321 17.2433C8.57321 17.2433 8.08792 18.9758 8.70392 20.8412C9.13516 22.1471 10.4192 24.9129 14.1999 24.942C14.1999 24.942 14.1899 24.9389 14.1753 24.9344C13.919 24.9188 13.6634 24.8924 13.4117 24.841C12.0413 24.5611 10.8321 23.6668 10.2132 22.2869Z" fill="url(#paint15_linear_19878_6353)"/>
<path style="mix-blend-mode:multiply" opacity="0.6" d="M22.3692 15.4586C22.4729 15.4717 22.5756 15.4753 22.6773 15.4737C22.6773 15.4737 22.6093 14.123 22.4434 13.43C22.2776 12.737 22.033 12.2781 21.7643 12.0183C21.5717 11.8322 20.964 11.6005 20.4915 13.0286C20.3389 14.2181 21.1797 15.3059 22.3692 15.4586Z" fill="url(#paint16_linear_19878_6353)"/>
<path style="mix-blend-mode:multiply" opacity="0.5" d="M14.8825 20.2189C14.8419 20.1225 14.7938 20.0318 14.7416 19.9446C14.7416 19.9446 13.6058 20.6787 13.0885 21.1688C12.5713 21.659 12.2962 22.1003 12.2056 22.4629C12.1407 22.7227 12.2438 23.3648 13.7169 23.06C14.8233 22.5974 15.345 21.3253 14.8825 20.2189Z" fill="url(#paint17_linear_19878_6353)"/>
<path style="mix-blend-mode:multiply" opacity="0.6" d="M22.7473 24.321C22.684 24.4044 22.6295 24.4914 22.5801 24.5802C22.5801 24.5802 23.7838 25.1968 24.4669 25.3996C25.1499 25.6025 25.6697 25.6201 26.029 25.5173C26.2864 25.4437 26.791 25.0332 25.7905 23.9099C24.8366 23.1831 23.4741 23.3673 22.7473 24.321Z" fill="url(#paint18_linear_19878_6353)"/>
<path style="mix-blend-mode:multiply" opacity="0.3" d="M22.2802 18.7207C22.0066 19.629 21.6229 20.4532 21.1541 21.1811C21.1285 21.2192 21.1054 21.2576 21.0789 21.2957C21.078 21.2971 21.077 21.2985 21.0761 21.2999C20.7659 21.7473 20.3969 22.1884 19.9639 22.6151C20.2615 22.9317 20.5833 23.2382 20.9367 23.5291C21.3806 23.8794 21.8157 24.1609 22.2091 24.3839C23.2004 23.3549 23.9069 22.2659 24.4058 21.1892C24.6012 20.7919 24.774 20.3813 24.9227 19.9596C24.4652 19.6229 24.0019 19.355 23.5751 19.1729C23.1335 18.9848 22.7019 18.837 22.2802 18.7207Z" fill="url(#paint19_linear_19878_6353)"/>
<path style="mix-blend-mode:multiply" opacity="0.3" d="M13.386 27.7078C15.851 28.0433 18.2223 27.2613 19.8376 26.3016C19.6458 26.1679 19.4507 26.0266 19.2509 25.8744C18.6274 25.3993 18.0663 24.8639 17.5694 24.2834C16.354 24.815 14.8249 25.1268 13.4069 24.8372C12.0365 24.5573 10.8274 23.663 10.2085 22.2832C10.0912 22.0216 9.99971 21.723 9.94238 21.4398C10.3005 23.9528 11.5686 26.1482 13.386 27.7078Z" fill="url(#paint20_linear_19878_6353)"/>
<path style="mix-blend-mode:multiply" opacity="0.3" d="M19.9641 22.6151C19.3149 21.9243 18.7934 21.1806 18.3977 20.411C18.3774 20.3698 18.3558 20.3305 18.336 20.2887C18.3352 20.2871 18.3345 20.2856 18.3338 20.2841C18.1014 19.7916 17.9037 19.2513 17.7508 18.6627C17.3287 18.762 16.9032 18.8873 16.4756 19.0475C15.9516 19.2563 15.4909 19.4918 15.1016 19.7204C15.4971 21.0926 16.0822 22.2531 16.7648 23.2231C17.0106 23.5902 17.2793 23.9444 17.5695 24.2833C18.0906 24.0555 18.5549 23.7878 18.9265 23.5088C19.3095 23.221 19.6529 22.9216 19.9641 22.6151Z" fill="url(#paint21_linear_19878_6353)"/>
<path style="mix-blend-mode:multiply" opacity="0.3" d="M16.6289 10.4204C15.1059 12.3874 14.5974 14.8319 14.6209 16.7107C14.8333 16.611 15.0543 16.5123 15.287 16.415C16.0093 16.1129 16.7526 15.8948 17.5029 15.7546C17.6503 14.4366 18.1449 12.9568 19.1044 11.8738C20.032 10.827 21.4111 10.227 22.9155 10.3809C23.2007 10.4101 23.505 10.4801 23.779 10.5722C23.7916 10.5764 23.805 10.58 23.8175 10.5843C23.8176 10.584 23.8179 10.5837 23.8181 10.5835C22.432 10.0188 20.9009 9.75198 19.3099 9.8602C18.3755 9.92376 17.4801 10.1149 16.6365 10.4111C16.6341 10.4143 16.6313 10.4172 16.6289 10.4204Z" fill="url(#paint22_linear_19878_6353)"/>
<path style="mix-blend-mode:multiply" opacity="0.3" d="M29.9819 21.8715C29.0394 19.5678 27.1752 17.9047 25.5358 16.986C25.5159 17.2196 25.491 17.4603 25.4589 17.7104C25.3593 18.4869 25.1766 19.2396 24.9229 19.9596C25.9915 20.7463 27.0269 21.9151 27.4854 23.2886C27.9282 24.6154 27.7582 26.1097 26.8728 27.3356C26.7049 27.568 26.492 27.7966 26.2754 27.9878C26.2723 27.9905 26.2691 27.9935 26.266 27.9964C28.1746 26.4963 29.5244 24.3344 29.9873 21.886C29.9854 21.8812 29.9838 21.8763 29.9819 21.8715Z" fill="url(#paint23_linear_19878_6353)"/>
<path style="mix-blend-mode:multiply" opacity="0.3" d="M17.495 17.3179C17.5527 17.7933 17.6402 18.2401 17.75 18.6627C18.6738 18.4453 19.5796 18.3654 20.4448 18.4075C20.4906 18.4106 20.5355 18.4114 20.5817 18.4152C20.5833 18.4153 20.585 18.4155 20.5867 18.4156C21.1286 18.4606 21.6944 18.5593 22.2796 18.7207C22.4048 18.3052 22.5091 17.8738 22.5842 17.423C22.6657 16.8626 22.692 16.3444 22.6883 15.8918C21.3025 15.5483 20.007 15.4811 18.826 15.5873C18.3843 15.6167 17.9423 15.6724 17.5027 15.7545C17.4395 16.3201 17.439 16.8564 17.495 17.3179Z" fill="url(#paint24_linear_19878_6353)"/>
<path d="M27.8005 21.8199H20.8671C19.9098 21.8199 19.1338 22.596 19.1338 23.5533V27.9733C19.1338 28.9306 19.9098 29.7066 20.8671 29.7066H27.8005C28.7577 29.7066 29.5338 28.9306 29.5338 27.9733V23.5533C29.5338 22.596 28.7577 21.8199 27.8005 21.8199Z" fill="#020617"/>
<path d="M25.5121 27.1638L25.5146 25.8771H25.6718L26.9196 24.4092H28.1596L26.4834 26.353H26.2272L25.5121 27.1638ZM24.5332 28.2767V23.12H25.6135V28.2767H24.5332ZM26.9678 28.2767L25.8215 26.5922L26.5417 25.8343L28.2332 28.2767H26.9678Z" fill="white"/>
<path d="M20.4336 28.2767V27.6372L22.3406 25.293V25.2653H20.4995V24.4092H23.6416V25.1067L21.8512 27.3929V27.4206H23.7075V28.2767H20.4336Z" fill="white"/>
<defs>
<linearGradient id="paint0_linear_19878_6353" x1="11.1282" y1="28.872" x2="27.7051" y2="12.2951" gradientUnits="userSpaceOnUse">
<stop offset="0.001139" stop-color="#E6007A"/>
<stop offset="0.207149" stop-color="#703AC2"/>
<stop offset="0.456011" stop-color="#0070EB"/>
<stop offset="0.768132" stop-color="#0297FB"/>
<stop offset="1" stop-color="#0AE2FF"/>
</linearGradient>
<radialGradient id="paint1_radial_19878_6353" cx="0" cy="0" r="1" gradientUnits="userSpaceOnUse" gradientTransform="translate(23.7057 17.3683) scale(4.94278)">
<stop stop-color="white"/>
<stop offset="1" stop-color="white" stop-opacity="0"/>
</radialGradient>
<radialGradient id="paint2_radial_19878_6353" cx="0" cy="0" r="1" gradientUnits="userSpaceOnUse" gradientTransform="translate(16.3988 26.5379) scale(2.87576)">
<stop stop-color="white"/>
<stop offset="1" stop-color="white" stop-opacity="0"/>
</radialGradient>
<linearGradient id="paint3_linear_19878_6353" x1="12.0834" y1="26.0514" x2="14.8554" y2="26.0129" gradientUnits="userSpaceOnUse">
<stop stop-color="white" stop-opacity="0"/>
<stop offset="1" stop-color="white"/>
</linearGradient>
<radialGradient id="paint4_radial_19878_6353" cx="0" cy="0" r="1" gradientUnits="userSpaceOnUse" gradientTransform="translate(15.868 18.1065) rotate(-120) scale(4.94278)">
<stop stop-color="white"/>
<stop offset="1" stop-color="white" stop-opacity="0"/>
</radialGradient>
<radialGradient id="paint5_radial_19878_6353" cx="0" cy="0" r="1" gradientUnits="userSpaceOnUse" gradientTransform="translate(27.4625 19.8489) rotate(-120) scale(2.87575 2.87576)">
<stop stop-color="white"/>
<stop offset="1" stop-color="white" stop-opacity="0"/>
</radialGradient>
<linearGradient id="paint6_linear_19878_6353" x1="29.1986" y1="23.8296" x2="27.7792" y2="21.4481" gradientUnits="userSpaceOnUse">
<stop stop-color="white" stop-opacity="0"/>
<stop offset="1" stop-color="white"/>
</linearGradient>
<radialGradient id="paint7_radial_19878_6353" cx="0" cy="0" r="1" gradientUnits="userSpaceOnUse" gradientTransform="translate(20.1918 24.2955) rotate(120) scale(4.94278)">
<stop stop-color="white"/>
<stop offset="1" stop-color="white" stop-opacity="0"/>
</radialGradient>
<radialGradient id="paint8_radial_19878_6353" cx="0" cy="0" r="1" gradientUnits="userSpaceOnUse" gradientTransform="translate(16.1373 13.612) rotate(120) scale(2.87576)">
<stop stop-color="white"/>
<stop offset="1" stop-color="white" stop-opacity="0"/>
</radialGradient>
<linearGradient id="paint9_linear_19878_6353" x1="18.7161" y1="10.1179" x2="17.3634" y2="12.5378" gradientUnits="userSpaceOnUse">
<stop stop-color="white" stop-opacity="0"/>
<stop offset="1" stop-color="white"/>
</linearGradient>
<linearGradient id="paint10_linear_19878_6353" x1="19.3186" y1="8.88767" x2="15.0836" y2="10.1197" gradientUnits="userSpaceOnUse">
<stop stop-color="#231F20"/>
<stop offset="1" stop-color="white"/>
</linearGradient>
<linearGradient id="paint11_linear_19878_6353" x1="11.3156" y1="25.0399" x2="14.8576" y2="28.7359" gradientUnits="userSpaceOnUse">
<stop stop-color="#231F20"/>
<stop offset="1" stop-color="white"/>
</linearGradient>
<linearGradient id="paint12_linear_19878_6353" x1="30.3254" y1="24.4828" x2="31.5574" y2="20.7354" gradientUnits="userSpaceOnUse">
<stop stop-color="#231F20"/>
<stop offset="1" stop-color="white"/>
</linearGradient>
<linearGradient id="paint13_linear_19878_6353" x1="21.2485" y1="11.0307" x2="26.9265" y2="12.3308" gradientUnits="userSpaceOnUse">
<stop stop-color="#231F20"/>
<stop offset="1" stop-color="white"/>
</linearGradient>
<linearGradient id="paint14_linear_19878_6353" x1="27.1427" y1="25.5659" x2="23.1778" y2="29.8331" gradientUnits="userSpaceOnUse">
<stop stop-color="#231F20"/>
<stop offset="1" stop-color="white"/>
</linearGradient>
<linearGradient id="paint15_linear_19878_6353" x1="11.6096" y1="23.4059" x2="9.89648" y2="17.8386" gradientUnits="userSpaceOnUse">
<stop stop-color="#231F20"/>
<stop offset="1" stop-color="white"/>
</linearGradient>
<linearGradient id="paint16_linear_19878_6353" x1="22.4902" y1="13.1249" x2="20.6935" y2="14.9216" gradientUnits="userSpaceOnUse">
<stop stop-color="#231F20"/>
<stop offset="1" stop-color="white"/>
</linearGradient>
<linearGradient id="paint17_linear_19878_6353" x1="12.8009" y1="21.2809" x2="15.2553" y2="21.9385" gradientUnits="userSpaceOnUse">
<stop stop-color="#231F20"/>
<stop offset="1" stop-color="white"/>
</linearGradient>
<linearGradient id="paint18_linear_19878_6353" x1="24.7077" y1="25.5926" x2="24.0501" y2="23.1383" gradientUnits="userSpaceOnUse">
<stop stop-color="#231F20"/>
<stop offset="1" stop-color="white"/>
</linearGradient>
<linearGradient id="paint19_linear_19878_6353" x1="20.9723" y1="23.4102" x2="22.0504" y2="21.9215" gradientUnits="userSpaceOnUse">
<stop stop-color="#231F20"/>
<stop offset="1" stop-color="white"/>
</linearGradient>
<linearGradient id="paint20_linear_19878_6353" x1="17.2605" y1="22.7657" x2="15.1044" y2="23.7924" gradientUnits="userSpaceOnUse">
<stop stop-color="#231F20"/>
<stop offset="1" stop-color="white"/>
</linearGradient>
<linearGradient id="paint21_linear_19878_6353" x1="16.4782" y1="19.1768" x2="17.1456" y2="20.5628" gradientUnits="userSpaceOnUse">
<stop stop-color="#231F20"/>
<stop offset="1" stop-color="white"/>
</linearGradient>
<linearGradient id="paint22_linear_19878_6353" x1="19.5821" y1="14.8963" x2="19.1201" y2="13.3049" gradientUnits="userSpaceOnUse">
<stop stop-color="#231F20"/>
<stop offset="1" stop-color="white"/>
</linearGradient>
<linearGradient id="paint23_linear_19878_6353" x1="24.562" y1="22.1821" x2="25.8967" y2="22.4902" gradientUnits="userSpaceOnUse">
<stop stop-color="#231F20"/>
<stop offset="1" stop-color="white"/>
</linearGradient>
<linearGradient id="paint24_linear_19878_6353" x1="22.4667" y1="17.6735" x2="20.7726" y2="17.3655" gradientUnits="userSpaceOnUse">
<stop stop-color="#231F20"/>
<stop offset="1" stop-color="white"/>
</linearGradient>
</defs>
</svg>
